<?xml version="1.0" encoding="UTF-8" standalone="no"?>
<svg
   xmlns:dc="http://purl.org/dc/elements/1.1/"
   xmlns:cc="http://creativecommons.org/ns#"
   xmlns:rdf="http://www.w3.org/1999/02/22-rdf-syntax-ns#"
   xmlns:svg="http://www.w3.org/2000/svg"
   xmlns="http://www.w3.org/2000/svg"
   xmlns:sodipodi="http://sodipodi.sourceforge.net/DTD/sodipodi-0.dtd"
   xmlns:inkscape="http://www.inkscape.org/namespaces/inkscape"
   version="1.1"
   width="16"
   height="16"
   id="svg3862"
   inkscape:version="0.91 r13725"
   sodipodi:docname="com.github.alainm23.planner.svg">
  <sodipodi:namedview
     pagecolor="#ffffff"
     bordercolor="#666666"
     borderopacity="1"
     objecttolerance="10"
     gridtolerance="10"
     guidetolerance="10"
     inkscape:pageopacity="0"
     inkscape:pageshadow="2"
     inkscape:window-width="1366"
     inkscape:window-height="705"
     id="namedview8"
     showgrid="false"
     inkscape:zoom="20.85965"
     inkscape:cx="8.4875868"
     inkscape:cy="5.0879119"
     inkscape:window-x="0"
     inkscape:window-y="30"
     inkscape:window-maximized="1"
     inkscape:current-layer="svg3862" />
  <defs
     id="defs3864" />
  <metadata
     id="metadata3867">
    <rdf:RDF>
      <cc:Work
         rdf:about="">
        <dc:format>image/svg+xml</dc:format>
        <dc:type
           rdf:resource="http://purl.org/dc/dcmitype/StillImage" />
        <dc:title />
      </cc:Work>
    </rdf:RDF>
  </metadata>
  <path
     style="fill:#666666;fill-opacity:1;stroke:none"
     d="M 8 0 A 8 8 0 0 0 0 8 A 8 8 0 0 0 8 16 A 8 8 0 0 0 16 8 A 8 8 0 0 0 8 0 z M 9.2792969 1.9863281 C 9.7399588 2.0004649 10.177898 2.1050013 10.615234 2.3085938 C 11.11792 2.5297681 11.320512 2.7306648 11.722656 3.1328125 L 12.445312 3.8574219 C 12.626279 4.0383938 12.746884 4.2801986 12.787109 4.5214844 C 12.847422 4.9035179 12.748367 4.9821579 13.009766 5.2636719 C 13.090195 5.3441014 13.210587 5.3441014 13.291016 5.2636719 C 13.371445 5.1832431 13.491838 5.1832431 13.572266 5.2636719 L 14.275391 5.96875 C 14.436248 6.129608 14.436248 6.3703924 14.275391 6.53125 L 12.847656 7.9589844 C 12.686799 8.1198424 12.446014 8.1198424 12.285156 7.9589844 L 11.621094 7.2753906 C 11.540665 7.1949625 11.540665 7.0745692 11.621094 6.9941406 C 11.701523 6.9137111 11.701523 6.7737885 11.621094 6.6933594 C 11.339582 6.4118469 11.258984 6.5109069 10.876953 6.4707031 C 10.666382 6.4382988 10.488626 6.3765323 10.332031 6.2597656 L 4.1328125 13.195312 C 3.8915257 13.436596 3.5088639 13.458085 3.2675781 13.216797 L 2.9863281 12.933594 C 2.7450467 12.712395 2.764573 12.309647 3.0058594 12.068359 L 9.1855469 5.1542969 L 9.1875 5.1445312 C 9.6499602 4.6820701 9.7110884 3.9571842 9.2285156 3.4746094 C 8.2834648 2.5295513 7.7395155 2.6308594 6.6738281 2.6308594 C 7.6791891 2.1910164 8.5115269 1.9627666 9.2792969 1.9863281 z "
     id="path4145" />
  <g
     transform="matrix(0.19070012,0,0,0.19070012,-3.5893914,-5.2636508)"
     id="g3375"
     style="fill:#ffffff;fill-opacity:1;stroke:none;stroke-opacity:1" />
</svg>
