<?xml version="1.0" encoding="UTF-8" standalone="no"?>
<svg
   xmlns:dc="http://purl.org/dc/elements/1.1/"
   xmlns:cc="http://creativecommons.org/ns#"
   xmlns:rdf="http://www.w3.org/1999/02/22-rdf-syntax-ns#"
   xmlns:svg="http://www.w3.org/2000/svg"
   xmlns="http://www.w3.org/2000/svg"
   xmlns:xlink="http://www.w3.org/1999/xlink"
   xmlns:sodipodi="http://sodipodi.sourceforge.net/DTD/sodipodi-0.dtd"
   xmlns:inkscape="http://www.inkscape.org/namespaces/inkscape"
   version="1.1"
   width="24"
   height="24"
   id="svg4505"
   inkscape:version="0.91 r13725"
   sodipodi:docname="com.github.alainm23.planner.svg">
  <sodipodi:namedview
     pagecolor="#ffffff"
     bordercolor="#666666"
     borderopacity="1"
     objecttolerance="10"
     gridtolerance="10"
     guidetolerance="10"
     inkscape:pageopacity="0"
     inkscape:pageshadow="2"
     inkscape:window-width="1366"
     inkscape:window-height="705"
     id="namedview49"
     showgrid="true"
     inkscape:zoom="22.627417"
     inkscape:cx="9.5028913"
     inkscape:cy="12.435815"
     inkscape:window-x="0"
     inkscape:window-y="30"
     inkscape:window-maximized="1"
     inkscape:current-layer="g4177">
    <inkscape:grid
       type="xygrid"
       id="grid4183"
       empspacing="4" />
    <inkscape:grid
       type="xygrid"
       id="grid4185"
       empspacing="2"
       color="#ff3fff"
       opacity="0.1254902"
       empcolor="#3fffff"
       empopacity="0.1372549"
       spacingx="0.5"
       spacingy="0.5" />
  </sodipodi:namedview>
  <defs
     id="defs4507">
    <linearGradient
       id="linearGradient3820-7-2-2">
      <stop
         id="stop3822-2-6-36"
         style="stop-color:#3d3d3d;stop-opacity:1"
         offset="0" />
      <stop
         id="stop3864-8-7-6"
         style="stop-color:#686868;stop-opacity:0.49803922"
         offset="0.5" />
      <stop
         id="stop3824-1-2-4"
         style="stop-color:#686868;stop-opacity:0"
         offset="1" />
    </linearGradient>
    <linearGradient
       id="linearGradient4011">
      <stop
         id="stop4013"
         style="stop-color:#ffffff;stop-opacity:1"
         offset="0" />
      <stop
         id="stop4015"
         style="stop-color:#ffffff;stop-opacity:0.23529412"
         offset="0.507761" />
      <stop
         id="stop4017"
         style="stop-color:#ffffff;stop-opacity:0.15686275"
         offset="0.83456558" />
      <stop
         id="stop4019"
         style="stop-color:#ffffff;stop-opacity:0.39215687"
         offset="1" />
    </linearGradient>
    <linearGradient
       id="linearGradient4632-92-3-0-8-1-6-6">
      <stop
         id="stop4634-68-8-0-2-9-1-1"
         style="stop-color:#fafafa;stop-opacity:1"
         offset="0" />
      <stop
         id="stop4636-8-21-7-1-4-9-4"
         style="stop-color:#e1e1e1;stop-opacity:1"
         offset="1" />
    </linearGradient>
    <linearGradient
       id="linearGradient3104-8-8-97-4-6-2-0-1-4-0-5-8-3-9-1-4">
      <stop
         id="stop3106-5-4-3-5-0-1-61-9-2-7-3-3-2-6-9-2"
         style="stop-color:#000000;stop-opacity:0.32173914"
         offset="0" />
      <stop
         id="stop3108-4-3-7-8-2-4-01-9-9-0-6-4-3-7-7-3"
         style="stop-color:#000000;stop-opacity:0.27826086"
         offset="1" />
    </linearGradient>
    <linearGradient
       gradientTransform="matrix(0.77562456,0,0,0.77562491,-43.981566,-9.614261)"
       gradientUnits="userSpaceOnUse"
       xlink:href="#linearGradient4806-9"
       id="linearGradient3097"
       y2="40.495617"
       x2="71.204407"
       y1="15.369057"
       x1="71.204407" />
    <linearGradient
       id="linearGradient4806-9">
      <stop
         offset="0"
         style="stop-color:#ffffff;stop-opacity:1"
         id="stop4808-49" />
      <stop
         offset="0.42447853"
         style="stop-color:#ffffff;stop-opacity:0.23529412"
         id="stop4810-05" />
      <stop
         offset="0.82089913"
         style="stop-color:#ffffff;stop-opacity:0.15686275"
         id="stop4812-6" />
      <stop
         offset="1"
         style="stop-color:#ffffff;stop-opacity:0.39215687"
         id="stop4814-7" />
    </linearGradient>
    <radialGradient
       gradientTransform="matrix(0.11151981,0,0,0.03548359,0.94202897,15.166729)"
       gradientUnits="userSpaceOnUse"
       xlink:href="#linearGradient3820-7-2-2"
       id="radialGradient3108"
       fy="186.17059"
       fx="99.157013"
       r="62.769119"
       cy="186.17059"
       cx="99.157013" />
    <linearGradient
       x1="71.204407"
       y1="7.8309216"
       x2="71.204407"
       y2="42.883553"
       id="linearGradient3364-8"
       xlink:href="#linearGradient4011"
       gradientUnits="userSpaceOnUse"
       gradientTransform="matrix(0.21621622,0,0,0.21621622,2.9900492,13.017354)" />
    <radialGradient
       cx="6.2751122"
       cy="8.4497671"
       r="19.99999"
       fx="6.2751122"
       fy="8.4497671"
       id="radialGradient3370-2"
       xlink:href="#linearGradient4632-92-3-0-8-1-6-6"
       gradientUnits="userSpaceOnUse"
       gradientTransform="matrix(0,0.5485247,-0.58027369,-1.4929998e-8,23.403203,10.557946)" />
    <linearGradient
       x1="-95.837799"
       y1="54.199703"
       x2="-95.837799"
       y2="5.1757793"
       id="linearGradient3373-2-5"
       xlink:href="#linearGradient3104-8-8-97-4-6-2-0-1-4-0-5-8-3-9-1-4"
       gradientUnits="userSpaceOnUse"
       gradientTransform="matrix(0.53833223,0,0,0.5558293,33.381992,-4.173296)" />
    <linearGradient
       id="linearGradient2867-449-88-871-390-598-476-591-434-148-57-177-3-8-8">
      <stop
         offset="0"
         style="stop-color:#64baff;stop-opacity:1"
         id="stop3750-8-9-0" />
      <stop
         offset="0.26238"
         style="stop-color:#3689e6;stop-opacity:1"
         id="stop3752-3-2-2" />
      <stop
         offset="0.704952"
         style="stop-color:#0d52bf;stop-opacity:1"
         id="stop3754-7-2-2-9" />
      <stop
         offset="1"
         style="stop-color:#0d52bf;stop-opacity:1"
         id="stop3756-9-3-05" />
    </linearGradient>
    <radialGradient
       gradientTransform="matrix(0,2.5609769,-2.7092078,-6.9705848e-8,34.892235,-9.5088666)"
       gradientUnits="userSpaceOnUse"
       xlink:href="#linearGradient2867-449-88-871-390-598-476-591-434-148-57-177-3-8-8"
       id="radialGradient3386"
       fy="8.4497671"
       fx="1.1978998"
       r="19.99999"
       cy="8.4497671"
       cx="1.1978998" />
  </defs>
  <metadata
     id="metadata4510">
    <rdf:RDF>
      <cc:Work
         rdf:about="">
        <dc:format>image/svg+xml</dc:format>
        <dc:type
           rdf:resource="http://purl.org/dc/dcmitype/StillImage" />
        <dc:title />
      </cc:Work>
    </rdf:RDF>
  </metadata>
  <g
     id="g4177">
    <path
       d="m 19,21.772727 a 7,2.2272727 0 0 1 -14,0 7,2.2272727 0 1 1 14,0 z"
       id="path3818-0-2-5"
       style="fill:url(#radialGradient3108);fill-opacity:1;stroke:none" />
    <path
       style="color:#000000;display:inline;overflow:visible;visibility:visible;fill:url(#radialGradient3386);fill-opacity:1;fill-rule:nonzero;stroke:none;stroke-width:1;marker:none;enable-background:accumulate"
       id="path2555-72"
       d="M 12.000001,1.4979502 C 6.206464,1.4979502 1.5,6.204412 1.5,11.99795 c 0,5.793538 4.706464,10.500002 10.500001,10.500001 5.793536,0 10.500005,-4.706463 10.499999,-10.500001 C 22.5,6.204412 17.793537,1.4979502 12.000001,1.4979502 Z" />
    <path
       d="M 12,1.5 C 6.206462,1.5 1.5,6.206462 1.5,11.999999 1.5,17.793538 6.206462,22.500002 12,22.5 17.793538,22.5 22.500007,17.793538 22.5,11.999999 22.5,6.206462 17.793538,1.5 12,1.5 Z"
       id="path2555-7-1-7"
       style="color:#000000;display:inline;overflow:visible;visibility:visible;opacity:0.5;fill:none;fill-opacity:0;fill-rule:nonzero;stroke:#0e141f;stroke-width:1;stroke-linecap:round;stroke-linejoin:round;stroke-miterlimit:4;stroke-dasharray:none;stroke-dashoffset:0;stroke-opacity:1;marker:none;enable-background:accumulate;clip-rule:nonzero;isolation:auto;mix-blend-mode:normal;color-interpolation:sRGB;color-interpolation-filters:linearRGB;solid-color:#000000;solid-opacity:1;filter-blend-mode:normal;filter-gaussianBlur-deviation:0;color-rendering:auto;image-rendering:auto;shape-rendering:auto;text-rendering:auto" />
    <path
       d="m 21.500001,12 c 0,5.246706 -4.253305,9.5 -9.500001,9.5 -5.246695,0 -9.5,-4.253294 -9.5,-9.5 0,-5.246704 4.253305,-9.5 9.5,-9.5 5.246696,0 9.500001,4.253296 9.500001,9.5 z"
       id="path3421"
       style="color:#000000;display:inline;overflow:visible;visibility:visible;opacity:0.3;fill:none;stroke:url(#linearGradient3097);stroke-width:1;stroke-linecap:round;stroke-linejoin:round;stroke-miterlimit:4;stroke-dasharray:none;stroke-dashoffset:0;stroke-opacity:1;marker:none;enable-background:accumulate" />
    <path
       inkscape:connector-curvature="0"
       id="path4176"
       d="m 13.326186,6.3087708 c -0.887286,-0.027229 -1.849349,0.2358847 -3.011212,0.7441967 1.23158,0 1.85931,-0.1161105 2.951474,0.9760619 0.557694,0.5576958 0.487875,1.3943854 -0.04657,1.9288364 l -0.004,0.01114 -7.1402379,7.9917602 c -0.2788467,0.278848 -0.3011165,0.743719 -0.022271,0.999351 l 0.3250164,0.326028 c 0.2788429,0.278849 0.7205002,0.255556 0.9993469,-0.02329 l 7.1635256,-8.017074 c 0.180972,0.134943 0.387445,0.20758 0.630795,0.245028 0.441501,0.04647 0.534289,-0.06917 0.859623,0.256166 0.09295,0.09295 0.09295,0.255354 0,0.348304 -0.09295,0.09295 -0.09295,0.232068 0,0.325016 l 0.766472,0.790773 c 0.185898,0.185898 0.465149,0.185898 0.651046,0 l 1.649382,-1.650396 c 0.185898,-0.185898 0.185898,-0.464134 0,-0.650033 l -0.813047,-0.81406 c -0.09295,-0.09295 -0.232067,-0.09295 -0.325016,0 -0.09295,0.09295 -0.232067,0.09295 -0.325017,0 C 17.33337,9.7712418 17.448995,9.6784578 17.379293,9.2369548 17.332804,8.9581085 17.193551,8.6796263 16.984414,8.470483 L 16.148059,7.6341498 C 15.683314,7.1694011 15.450192,6.9369793 14.869256,6.6813754 14.363841,6.4460904 13.858558,6.3251082 13.326186,6.3087708 Z"
       style="opacity:0.15;fill:#000000;fill-opacity:1;stroke:none;stroke-opacity:1" />
    <path
       style="opacity:0.07;fill:none;fill-opacity:1;stroke:#000000;stroke-opacity:1"
       d="m 13.326186,6.3087708 c -0.887286,-0.027229 -1.849349,0.2358847 -3.011212,0.7441967 1.23158,0 1.85931,-0.1161105 2.951474,0.9760619 0.557694,0.5576958 0.487875,1.3943854 -0.04657,1.9288364 l -0.004,0.01114 -7.1402379,7.9917602 c -0.2788467,0.278848 -0.3011165,0.743719 -0.022271,0.999351 l 0.3250164,0.326028 c 0.2788429,0.278849 0.7205002,0.255556 0.9993469,-0.02329 l 7.1635256,-8.017074 c 0.180972,0.134943 0.387445,0.20758 0.630795,0.245028 0.441501,0.04647 0.534289,-0.06917 0.859623,0.256166 0.09295,0.09295 0.09295,0.255354 0,0.348304 -0.09295,0.09295 -0.09295,0.232068 0,0.325016 l 0.766472,0.790773 c 0.185898,0.185898 0.465149,0.185898 0.651046,0 l 1.649382,-1.650396 c 0.185898,-0.185898 0.185898,-0.464134 0,-0.650033 l -0.813047,-0.81406 c -0.09295,-0.09295 -0.232067,-0.09295 -0.325016,0 -0.09295,0.09295 -0.232067,0.09295 -0.325017,0 C 17.33337,9.7712418 17.448995,9.6784578 17.379293,9.2369548 17.332804,8.9581085 17.193551,8.6796263 16.984414,8.470483 L 16.148059,7.6341498 C 15.683314,7.1694011 15.450192,6.9369793 14.869256,6.6813754 14.363841,6.4460904 13.858558,6.3251082 13.326186,6.3087708 Z"
       id="path4178"
       inkscape:connector-curvature="0" />
    <path
       style="opacity:1;fill:#ffffff;fill-opacity:1;stroke:none;stroke-opacity:1"
       d="m 13.326186,5.3091088 c -0.887286,-0.027229 -1.849349,0.2358847 -3.011212,0.7441967 1.23158,0 1.85931,-0.1161105 2.951474,0.9760619 0.557694,0.5576958 0.487875,1.3943854 -0.04657,1.9288364 l -0.004,0.01114 -7.1402379,7.9917602 c -0.2788467,0.278848 -0.3011165,0.743719 -0.022271,0.999351 l 0.3250164,0.326028 c 0.2788429,0.278849 0.7205002,0.255556 0.9993469,-0.02329 l 7.1635256,-8.017074 c 0.180972,0.134943 0.387445,0.20758 0.630795,0.245028 0.441501,0.04647 0.534289,-0.06917 0.859623,0.256166 0.09295,0.09295 0.09295,0.255354 0,0.348304 -0.09295,0.09295 -0.09295,0.232068 0,0.325016 l 0.766472,0.790773 c 0.185898,0.185898 0.465149,0.185898 0.651046,0 l 1.649382,-1.650396 c 0.185898,-0.185898 0.185898,-0.464134 0,-0.6500332 l -0.813047,-0.81406 c -0.09295,-0.09295 -0.232067,-0.09295 -0.325016,0 -0.09295,0.09295 -0.232067,0.09295 -0.325017,0 C 17.33337,8.7715798 17.448995,8.6787958 17.379293,8.2372928 17.332804,7.9584465 17.193551,7.6799643 16.984414,7.470821 L 16.148059,6.6344878 C 15.683314,6.1697391 15.450192,5.9373173 14.869256,5.6817134 14.363841,5.4464284 13.858558,5.3254462 13.326186,5.3091088 Z"
       id="path15"
       inkscape:connector-curvature="0" />
  </g>
</svg>
