<?xml version="1.0" encoding="UTF-8" standalone="no"?>
<svg
   xmlns:dc="http://purl.org/dc/elements/1.1/"
   xmlns:cc="http://creativecommons.org/ns#"
   xmlns:rdf="http://www.w3.org/1999/02/22-rdf-syntax-ns#"
   xmlns:svg="http://www.w3.org/2000/svg"
   xmlns="http://www.w3.org/2000/svg"
   xmlns:xlink="http://www.w3.org/1999/xlink"
   xmlns:sodipodi="http://sodipodi.sourceforge.net/DTD/sodipodi-0.dtd"
   xmlns:inkscape="http://www.inkscape.org/namespaces/inkscape"
   id="svg4031"
   height="48"
   width="48"
   version="1.1"
   inkscape:version="0.91 r13725"
   sodipodi:docname="com.github.alainm23.planner.svg">
  <sodipodi:namedview
     pagecolor="#ffffff"
     bordercolor="#666666"
     borderopacity="1"
     objecttolerance="10"
     gridtolerance="10"
     guidetolerance="10"
     inkscape:pageopacity="0"
     inkscape:pageshadow="2"
     inkscape:window-width="1366"
     inkscape:window-height="735"
     id="namedview54"
     showgrid="true"
     inkscape:zoom="11.313708"
     inkscape:cx="35.85937"
     inkscape:cy="9.1713362"
     inkscape:window-x="1366"
     inkscape:window-y="0"
     inkscape:window-maximized="1"
     inkscape:current-layer="svg4031">
    <inkscape:grid
       type="xygrid"
       id="grid4188"
       empspacing="4" />
    <inkscape:grid
       type="xygrid"
       id="grid4190"
       spacingx="0.5"
       spacingy="0.5"
       color="#ff3fff"
       opacity="0.1254902"
       empcolor="#3fffff"
       empopacity="0.11764706"
       empspacing="2" />
  </sodipodi:namedview>
  <defs
     id="defs4033">
    <linearGradient
       id="linearGradient3820-7-2-1">
      <stop
         offset="0"
         style="stop-color:#3d3d3d;stop-opacity:1"
         id="stop3822-2-6-3" />
      <stop
         offset="0.5"
         style="stop-color:#686868;stop-opacity:0.49803922"
         id="stop3864-8-7-7" />
      <stop
         offset="1"
         style="stop-color:#686868;stop-opacity:0"
         id="stop3824-1-2-5" />
    </linearGradient>
    <radialGradient
       gradientTransform="matrix(0.27083381,0,0,0.08762273,-2.855072,25.187228)"
       gradientUnits="userSpaceOnUse"
       xlink:href="#linearGradient3820-7-2-1"
       id="radialGradient3018"
       fy="186.17059"
       fx="99.157013"
       r="62.769119"
       cy="186.17059"
       cx="99.157013" />
    <linearGradient
       id="linearGradient4011-7">
      <stop
         offset="0"
         style="stop-color:#ffffff;stop-opacity:1"
         id="stop4013-4" />
      <stop
         offset="0.507761"
         style="stop-color:#ffffff;stop-opacity:0.23529412"
         id="stop4015-61" />
      <stop
         offset="0.83456558"
         style="stop-color:#ffffff;stop-opacity:0.15686275"
         id="stop4017-2" />
      <stop
         offset="1"
         style="stop-color:#ffffff;stop-opacity:0.39215687"
         id="stop4019-2" />
    </linearGradient>
    <linearGradient
       id="linearGradient8838-4">
      <stop
         offset="0"
         style="stop-color:#000000;stop-opacity:1"
         id="stop8840-4" />
      <stop
         offset="1"
         style="stop-color:#000000;stop-opacity:0"
         id="stop8842-8" />
    </linearGradient>
    <linearGradient
       gradientTransform="matrix(0.5135135,0,0,0.5135135,-0.836132,22.978716)"
       gradientUnits="userSpaceOnUse"
       xlink:href="#linearGradient4011-7"
       id="linearGradient3741"
       y2="42.883553"
       x2="71.204407"
       y1="7.8309216"
       x1="71.204407" />
    <radialGradient
       gradientTransform="matrix(1.1294118,0,0,0.2823525,-34.729414,43.694118)"
       gradientUnits="userSpaceOnUse"
       xlink:href="#linearGradient8838-4"
       id="radialGradient3748"
       fy="4.625"
       fx="62.625"
       r="10.625"
       cy="4.625"
       cx="62.625" />
    <linearGradient
       id="linearGradient4632-92-3-0-8-1-6-6">
      <stop
         offset="0"
         style="stop-color:#fafafa;stop-opacity:1"
         id="stop4634-68-8-0-2-9-1-1" />
      <stop
         offset="1"
         style="stop-color:#e1e1e1;stop-opacity:1"
         id="stop4636-8-21-7-1-4-9-4" />
    </linearGradient>
    <radialGradient
       xlink:href="#linearGradient4632-92-3-0-8-1-6-6"
       id="radialGradient3398"
       gradientUnits="userSpaceOnUse"
       gradientTransform="matrix(0,1.2189437,-1.289497,-3.3177771e-8,46.896006,18.350992)"
       cx="6.2751122"
       cy="8.4497671"
       fx="6.2751122"
       fy="8.4497671"
       r="19.99999" />
    <linearGradient
       xlink:href="#linearGradient3104-8-8-97-4-6-2-0-1-4-0-5-8-3-9-1"
       id="linearGradient4200-6"
       gradientUnits="userSpaceOnUse"
       gradientTransform="matrix(0.80749834,0,0,0.83374395,113.01159,-2.35899)"
       x1="-95.837799"
       y1="54.199703"
       x2="-95.837799"
       y2="5.1757793" />
    <linearGradient
       id="linearGradient3104-8-8-97-4-6-2-0-1-4-0-5-8-3-9-1">
      <stop
         offset="0"
         style="stop-color:#000000;stop-opacity:0.32173914"
         id="stop3106-5-4-3-5-0-1-61-9-2-7-3-3-2-6-9" />
      <stop
         offset="1"
         style="stop-color:#000000;stop-opacity:0.27826086"
         id="stop3108-4-3-7-8-2-4-01-9-9-0-6-4-3-7-7" />
    </linearGradient>
    <linearGradient
       id="linearGradient2867-449-88-871-390-598-476-591-434-148-57-177-3-8-8">
      <stop
         id="stop3750-8-9-0"
         style="stop-color:#64baff;stop-opacity:1"
         offset="0" />
      <stop
         id="stop3752-3-2-2"
         style="stop-color:#3689e6;stop-opacity:1"
         offset="0.26238" />
      <stop
         id="stop3754-7-2-2"
         style="stop-color:#0d52bf;stop-opacity:1"
         offset="0.704952" />
      <stop
         id="stop3756-9-3-05"
         style="stop-color:#0d52bf;stop-opacity:1"
         offset="1" />
    </linearGradient>
    <linearGradient
       id="linearGradient4011-8">
      <stop
         id="stop4013-9"
         style="stop-color:#ffffff;stop-opacity:1"
         offset="0" />
      <stop
         id="stop4015-2"
         style="stop-color:#ffffff;stop-opacity:0.23529412"
         offset="0.507761" />
      <stop
         id="stop4017-28"
         style="stop-color:#ffffff;stop-opacity:0.15686275"
         offset="0.83456558" />
      <stop
         id="stop4019-23"
         style="stop-color:#ffffff;stop-opacity:0.39215687"
         offset="1" />
    </linearGradient>
    <linearGradient
       y2="44.340794"
       x2="71.204407"
       y1="6.2375584"
       x1="71.204407"
       gradientTransform="matrix(1.054054,0,0,1.054054,-51.611004,-2.7279013)"
       gradientUnits="userSpaceOnUse"
       id="linearGradient3540"
       xlink:href="#linearGradient4011-8" />
    <radialGradient
       r="19.99999"
       fy="8.4497671"
       fx="1.1978998"
       cy="8.4497671"
       cx="1.1978998"
       gradientTransform="matrix(0,5.0000024,-5.2894057,-1.3609237e-7,68.694364,-17.989501)"
       gradientUnits="userSpaceOnUse"
       id="radialGradient3543"
       xlink:href="#linearGradient2867-449-88-871-390-598-476-591-434-148-57-177-3-8-8" />
    <radialGradient
       cx="66.127159"
       cy="48.76759"
       r="31.000002"
       fx="66.127159"
       fy="48.76759"
       id="radialGradient3381"
       xlink:href="#linearGradient3242-7-3-8-0-4-58-06"
       gradientUnits="userSpaceOnUse"
       gradientTransform="matrix(0,2.4235253,-2.6392787,0,226.36903,-84.88818)" />
    <linearGradient
       id="linearGradient3242-7-3-8-0-4-58-06">
      <stop
         id="stop3244-5-8-5-6-4-3-8"
         style="stop-color:#cdf87e;stop-opacity:1"
         offset="0" />
      <stop
         id="stop3246-9-5-1-5-3-0-7"
         style="stop-color:#a2e34f;stop-opacity:1"
         offset="0.26238" />
      <stop
         id="stop3248-7-2-0-7-5-35-9"
         style="stop-color:#68b723;stop-opacity:1"
         offset="0.66093999" />
      <stop
         id="stop3250-8-2-8-5-6-40-4"
         style="stop-color:#1d7e0d;stop-opacity:1"
         offset="1" />
    </linearGradient>
    <linearGradient
       x1="24.138529"
       y1="9.1762295"
       x2="24.138529"
       y2="37.130203"
       id="linearGradient3030"
       xlink:href="#linearGradient4361"
       gradientUnits="userSpaceOnUse"
       gradientTransform="matrix(2.1134672,0,0,1.645562,50.724212,61.899946)" />
    <linearGradient
       id="linearGradient4361">
      <stop
         id="stop4363"
         style="stop-color:#ffffff;stop-opacity:1"
         offset="0" />
      <stop
         id="stop4365"
         style="stop-color:#ffffff;stop-opacity:0.23529412"
         offset="0" />
      <stop
         id="stop4367"
         style="stop-color:#ffffff;stop-opacity:0.15686275"
         offset="1" />
      <stop
         id="stop4369"
         style="stop-color:#ffffff;stop-opacity:0.39215687"
         offset="1" />
    </linearGradient>
    <linearGradient
       x1="24.138529"
       y1="19.795095"
       x2="24.138529"
       y2="26.484531"
       id="linearGradient3030-1"
       xlink:href="#linearGradient4351"
       gradientUnits="userSpaceOnUse"
       gradientTransform="matrix(1.6592445,0,0,2.0928522,60.832154,51.571789)" />
    <linearGradient
       id="linearGradient4351">
      <stop
         id="stop4353"
         style="stop-color:#ffffff;stop-opacity:1"
         offset="0" />
      <stop
         id="stop4355"
         style="stop-color:#ffffff;stop-opacity:0.23529412"
         offset="0.00000015" />
      <stop
         id="stop4357"
         style="stop-color:#ffffff;stop-opacity:0.15686275"
         offset="1" />
      <stop
         id="stop4359"
         style="stop-color:#ffffff;stop-opacity:0.39215687"
         offset="1" />
    </linearGradient>
  </defs>
  <metadata
     id="metadata4036">
    <rdf:RDF>
      <cc:Work
         rdf:about="">
        <dc:format>image/svg+xml</dc:format>
        <dc:type
           rdf:resource="http://purl.org/dc/dcmitype/StillImage" />
        <dc:title />
      </cc:Work>
    </rdf:RDF>
  </metadata>
  <g
     id="g4182">
    <path
       d="m 40.999999,41.499999 a 17,5.4999999 0 1 1 -33.999999,0 17,5.4999999 0 1 1 33.999999,0 z"
       id="path3818-0-5"
       style="fill:url(#radialGradient3018);fill-opacity:1;stroke:none" />
    <path
       d="M 24.000003,3.4999978 C 12.68881,3.4999978 3.5,12.688804 3.5,23.999998 3.5,35.311192 12.68881,44.500003 24.000003,44.5 35.311191,44.5 44.500011,35.311192 44.5,23.999998 44.5,12.688804 35.311191,3.4999978 24.000003,3.4999978 z"
       id="path2555"
       style="color:#000000;fill:url(#radialGradient3543);fill-opacity:1;fill-rule:nonzero;stroke:none;stroke-width:1;marker:none;visibility:visible;display:inline;overflow:visible;enable-background:accumulate" />
    <path
       d="m 43.5,23.999308 c 0,10.7699 -8.73109,19.50069 -19.499753,19.50069 C 13.230598,43.499998 4.5,34.769109 4.5,23.999308 4.5,13.229906 13.230598,4.4999998 24.000247,4.4999998 34.76891,4.4999998 43.5,13.229906 43.5,23.999308 l 0,0 z"
       id="path8655-4"
       style="opacity:0.3;color:#000000;fill:none;stroke:url(#linearGradient3540);stroke-width:1;stroke-linecap:round;stroke-linejoin:round;stroke-miterlimit:4;stroke-opacity:1;stroke-dasharray:none;stroke-dashoffset:0;marker:none;visibility:visible;display:inline;overflow:visible;enable-background:accumulate" />
    <path
       d="M 24.000003,3.4999976 C 12.68881,3.4999976 3.5,12.688804 3.5,23.999998 3.5,35.311192 12.68881,44.500003 24.000003,44.5 35.311191,44.5 44.500011,35.311192 44.5,23.999998 44.5,12.688804 35.311191,3.4999976 24.000003,3.4999976 z"
       id="path2555-6-0"
       style="opacity:0.5;color:#000000;fill:#000000;fill-opacity:0;fill-rule:nonzero;stroke:#0e141f;stroke-width:1;stroke-linecap:round;stroke-linejoin:round;stroke-miterlimit:4;stroke-opacity:1;stroke-dasharray:none;stroke-dashoffset:0;marker:none;visibility:visible;display:inline;overflow:visible;enable-background:accumulate" />
  </g>
  <g
     transform="matrix(0.42512172,0,0,0.42512172,-3.0920947,-3.9311447)"
     id="g4195"
     style="opacity:0.07000002;fill:none;fill-opacity:1;stroke:#000000;stroke-width:2.3522675;stroke-miterlimit:4;stroke-dasharray:none;stroke-opacity:1">
    <path
       style="opacity:1;fill:none;fill-opacity:1;stroke:#000000;stroke-width:2.3522675;stroke-miterlimit:4;stroke-dasharray:none;stroke-opacity:1"
       d="m 67.485968,38.020363 c -4.026059,-0.123553 -8.39142,1.070326 -13.663367,3.37679 5.588289,0 8.436615,-0.526851 13.392306,4.428878 2.530532,2.530543 2.213728,6.327018 -0.211337,8.752088 l -0.01838,0.05054 -32.398811,36.262591 c -1.265266,1.265273 -1.366314,3.374619 -0.101074,4.534548 l 1.474761,1.479355 c 1.265263,1.265273 3.26928,1.159581 4.534548,-0.105668 l 32.504477,-36.37745 c 0.821158,0.612305 1.758031,0.941893 2.862232,1.111816 2.003309,0.210822 2.424336,-0.313856 3.900537,1.162349 0.421757,0.421757 0.421757,1.158671 0,1.58043 -0.421754,0.421754 -0.421754,1.053009 0,1.474761 l 3.477865,3.588128 c 0.843512,0.843513 2.11061,0.843513 2.954117,0 l 7.48407,-7.488665 c 0.843507,-0.843511 0.843507,-2.106009 0,-2.949522 L 89.98871,55.207538 c -0.421747,-0.421755 -1.053002,-0.421755 -1.474761,0 -0.421757,0.421759 -1.053002,0.421759 -1.474761,0 -1.37073,-1.476213 -0.846083,-1.897219 -1.16235,-3.90054 -0.210935,-1.265263 -0.842808,-2.528875 -1.791767,-3.477862 l -3.794864,-3.79487 C 78.18143,41.92547 77.123639,40.870857 74.487641,39.711055 72.194323,38.64345 69.901603,38.094494 67.485968,38.020363 Z"
       id="path4197"
       inkscape:connector-curvature="0" />
  </g>
  <g
     style="opacity:0.15;fill:#000000;fill-opacity:1;stroke:none;stroke-opacity:1"
     id="g4191"
     transform="matrix(0.42512172,0,0,0.42512172,-3.0920947,-3.9311447)">
    <path
       inkscape:connector-curvature="0"
       id="path4193"
       d="m 67.485968,38.020363 c -4.026059,-0.123553 -8.39142,1.070326 -13.663367,3.37679 5.588289,0 8.436615,-0.526851 13.392306,4.428878 2.530532,2.530543 2.213728,6.327018 -0.211337,8.752088 l -0.01838,0.05054 -32.398811,36.262591 c -1.265266,1.265273 -1.366314,3.374619 -0.101074,4.534548 l 1.474761,1.479355 c 1.265263,1.265273 3.26928,1.159581 4.534548,-0.105668 l 32.504477,-36.37745 c 0.821158,0.612305 1.758031,0.941893 2.862232,1.111816 2.003309,0.210822 2.424336,-0.313856 3.900537,1.162349 0.421757,0.421757 0.421757,1.158671 0,1.58043 -0.421754,0.421754 -0.421754,1.053009 0,1.474761 l 3.477865,3.588128 c 0.843512,0.843513 2.11061,0.843513 2.954117,0 l 7.48407,-7.488665 c 0.843507,-0.843511 0.843507,-2.106009 0,-2.949522 L 89.98871,55.207538 c -0.421747,-0.421755 -1.053002,-0.421755 -1.474761,0 -0.421757,0.421759 -1.053002,0.421759 -1.474761,0 -1.37073,-1.476213 -0.846083,-1.897219 -1.16235,-3.90054 -0.210935,-1.265263 -0.842808,-2.528875 -1.791767,-3.477862 l -3.794864,-3.79487 C 78.18143,41.92547 77.123639,40.870857 74.487641,39.711055 72.194323,38.64345 69.901603,38.094494 67.485968,38.020363 Z"
       style="opacity:1;fill:#000000;fill-opacity:1;stroke:none;stroke-opacity:1" />
  </g>
  <g
     transform="matrix(0.42512172,0,0,0.42512172,-3.0920947,-4.9313197)"
     id="g3375"
     style="fill:#ffffff;fill-opacity:1;stroke:none;stroke-opacity:1">
    <path
       style="opacity:1;fill:#ffffff;fill-opacity:1;stroke:none;stroke-opacity:1"
       d="m 67.485968,38.020363 c -4.026059,-0.123553 -8.39142,1.070326 -13.663367,3.37679 5.588289,0 8.436615,-0.526851 13.392306,4.428878 2.530532,2.530543 2.213728,6.327018 -0.211337,8.752088 l -0.01838,0.05054 -32.398811,36.262591 c -1.265266,1.265273 -1.366314,3.374619 -0.101074,4.534548 l 1.474761,1.479355 c 1.265263,1.265273 3.26928,1.159581 4.534548,-0.105668 l 32.504477,-36.37745 c 0.821158,0.612305 1.758031,0.941893 2.862232,1.111816 2.003309,0.210822 2.424336,-0.313856 3.900537,1.162349 0.421757,0.421757 0.421757,1.158671 0,1.58043 -0.421754,0.421754 -0.421754,1.053009 0,1.474761 l 3.477865,3.588128 c 0.843512,0.843513 2.11061,0.843513 2.954117,0 l 7.48407,-7.488665 c 0.843507,-0.843511 0.843507,-2.106009 0,-2.949522 L 89.98871,55.207538 c -0.421747,-0.421755 -1.053002,-0.421755 -1.474761,0 -0.421757,0.421759 -1.053002,0.421759 -1.474761,0 -1.37073,-1.476213 -0.846083,-1.897219 -1.16235,-3.90054 -0.210935,-1.265263 -0.842808,-2.528875 -1.791767,-3.477862 l -3.794864,-3.79487 C 78.18143,41.92547 77.123639,40.870857 74.487641,39.711055 72.194323,38.64345 69.901603,38.094494 67.485968,38.020363 Z"
       id="path15"
       inkscape:connector-curvature="0" />
  </g>
  <g
     transform="matrix(0.39988193,0,0,0.39988485,-3.1884016,-2.9884541)"
     id="g4390">
    <path
       style="color:#000000;display:inline;overflow:visible;visibility:visible;fill:url(#radialGradient3381);fill-opacity:1;fill-rule:nonzero;stroke:none;stroke-width:0.98542738;stroke-linecap:round;stroke-linejoin:round;stroke-miterlimit:4;stroke-dasharray:none;stroke-dashoffset:0;stroke-opacity:1;marker:none;enable-background:accumulate"
       id="path2262"
       d="m 89.5,91.499992 0,-16.007287 17,0 0,16.007287 16.00729,0 0,17.000008 -16.00729,0 0,16.00729 -17,0 0,-16.00729 -16.007286,0 0,-17.000008 16.007286,0 z"
       inkscape:connector-curvature="0" />
    <path
       d="m 90.500004,93.012938 0,-16.512937 14.999996,0 0,16.487061 m 0,14.012938 0,16.5 -14.999996,0 0,-16.5"
       id="path2272-4"
       style="display:inline;opacity:0.5;fill:none;stroke:url(#linearGradient3030);stroke-width:1;stroke-linecap:butt;stroke-linejoin:miter;stroke-miterlimit:4;stroke-dasharray:none;stroke-opacity:1"
       inkscape:connector-curvature="0" />
    <path
       d="m 106,92.556134 15.5,-0.05434 0,14.943816 -15.5,0.0544 m -16,0 -15.5,-0.0544 0,-14.943816 15.5,0.05434"
       id="path2272-2"
       style="display:inline;opacity:0.5;fill:none;stroke:url(#linearGradient3030-1);stroke-width:1;stroke-linecap:butt;stroke-linejoin:miter;stroke-miterlimit:4;stroke-dasharray:none;stroke-opacity:1"
       inkscape:connector-curvature="0" />
    <path
       style="color:#000000;clip-rule:nonzero;display:inline;overflow:visible;visibility:visible;opacity:0.5;isolation:auto;mix-blend-mode:normal;color-interpolation:sRGB;color-interpolation-filters:linearRGB;solid-color:#000000;solid-opacity:1;fill:none;fill-opacity:1;fill-rule:nonzero;stroke:#0f5a00;stroke-width:1;stroke-linecap:round;stroke-linejoin:round;stroke-miterlimit:4;stroke-dasharray:none;stroke-dashoffset:0;stroke-opacity:1;marker:none;color-rendering:auto;image-rendering:auto;shape-rendering:auto;text-rendering:auto;enable-background:accumulate"
       id="path2262-8"
       d="m 89.5,91.499992 0,-16.007287 17,0 0,16.007287 16.00729,0 0,17.000008 -16.00729,0 0,16.00729 -17,0 0,-16.00729 -16.007286,0 0,-17.000008 16.007286,0 z"
       inkscape:connector-curvature="0" />
  </g>
</svg>
