<?xml version="1.0" encoding="UTF-8" standalone="no"?>
<svg
   xmlns:dc="http://purl.org/dc/elements/1.1/"
   xmlns:cc="http://creativecommons.org/ns#"
   xmlns:rdf="http://www.w3.org/1999/02/22-rdf-syntax-ns#"
   xmlns:svg="http://www.w3.org/2000/svg"
   xmlns="http://www.w3.org/2000/svg"
   xmlns:xlink="http://www.w3.org/1999/xlink"
   xmlns:sodipodi="http://sodipodi.sourceforge.net/DTD/sodipodi-0.dtd"
   xmlns:inkscape="http://www.inkscape.org/namespaces/inkscape"
   id="svg4031"
   height="64"
   width="64"
   version="1.1"
   inkscape:version="0.91 r13725"
   sodipodi:docname="planner-team.svg">
  <sodipodi:namedview
     pagecolor="#ffffff"
     bordercolor="#666666"
     borderopacity="1"
     objecttolerance="10"
     gridtolerance="10"
     guidetolerance="10"
     inkscape:pageopacity="0"
     inkscape:pageshadow="2"
     inkscape:window-width="1600"
     inkscape:window-height="837"
     id="namedview54"
     showgrid="true"
     inkscape:zoom="5.656854"
     inkscape:cx="-12.971264"
     inkscape:cy="21.558241"
     inkscape:window-x="0"
     inkscape:window-y="30"
     inkscape:window-maximized="1"
     inkscape:current-layer="g4182">
    <inkscape:grid
       type="xygrid"
       id="grid4188"
       empspacing="4" />
    <inkscape:grid
       type="xygrid"
       id="grid4190"
       spacingx="0.5"
       spacingy="0.5"
       color="#ff3fff"
       opacity="0.1254902"
       empcolor="#3fffff"
       empopacity="0.11764706"
       empspacing="2" />
  </sodipodi:namedview>
  <defs
     id="defs4033">
    <linearGradient
       id="linearGradient3820-7-2-1">
      <stop
         offset="0"
         style="stop-color:#3d3d3d;stop-opacity:1"
         id="stop3822-2-6-3" />
      <stop
         offset="0.5"
         style="stop-color:#686868;stop-opacity:0.49803922"
         id="stop3864-8-7-7" />
      <stop
         offset="1"
         style="stop-color:#686868;stop-opacity:0"
         id="stop3824-1-2-5" />
    </linearGradient>
    <radialGradient
       gradientTransform="matrix(0.27083381,0,0,0.08762273,-2.855072,25.187228)"
       gradientUnits="userSpaceOnUse"
       xlink:href="#linearGradient3820-7-2-1"
       id="radialGradient3018"
       fy="186.17059"
       fx="99.157013"
       r="62.769119"
       cy="186.17059"
       cx="99.157013" />
    <linearGradient
       id="linearGradient4011-7">
      <stop
         offset="0"
         style="stop-color:#ffffff;stop-opacity:1"
         id="stop4013-4" />
      <stop
         offset="0.507761"
         style="stop-color:#ffffff;stop-opacity:0.23529412"
         id="stop4015-61" />
      <stop
         offset="0.83456558"
         style="stop-color:#ffffff;stop-opacity:0.15686275"
         id="stop4017-2" />
      <stop
         offset="1"
         style="stop-color:#ffffff;stop-opacity:0.39215687"
         id="stop4019-2" />
    </linearGradient>
    <linearGradient
       id="linearGradient8838-4">
      <stop
         offset="0"
         style="stop-color:#000000;stop-opacity:1"
         id="stop8840-4" />
      <stop
         offset="1"
         style="stop-color:#000000;stop-opacity:0"
         id="stop8842-8" />
    </linearGradient>
    <linearGradient
       gradientTransform="matrix(0.5135135,0,0,0.5135135,-0.836132,22.978716)"
       gradientUnits="userSpaceOnUse"
       xlink:href="#linearGradient4011-7"
       id="linearGradient3741"
       y2="42.883553"
       x2="71.204407"
       y1="7.8309216"
       x1="71.204407" />
    <radialGradient
       gradientTransform="matrix(1.1294118,0,0,0.2823525,-34.729414,43.694118)"
       gradientUnits="userSpaceOnUse"
       xlink:href="#linearGradient8838-4"
       id="radialGradient3748"
       fy="4.625"
       fx="62.625"
       r="10.625"
       cy="4.625"
       cx="62.625" />
    <linearGradient
       id="linearGradient4632-92-3-0-8-1-6-6">
      <stop
         offset="0"
         style="stop-color:#fafafa;stop-opacity:1"
         id="stop4634-68-8-0-2-9-1-1" />
      <stop
         offset="1"
         style="stop-color:#e1e1e1;stop-opacity:1"
         id="stop4636-8-21-7-1-4-9-4" />
    </linearGradient>
    <radialGradient
       xlink:href="#linearGradient4632-92-3-0-8-1-6-6"
       id="radialGradient3398"
       gradientUnits="userSpaceOnUse"
       gradientTransform="matrix(0,1.2189437,-1.289497,-3.3177771e-8,46.896006,18.350992)"
       cx="6.2751122"
       cy="8.4497671"
       fx="6.2751122"
       fy="8.4497671"
       r="19.99999" />
    <linearGradient
       xlink:href="#linearGradient3104-8-8-97-4-6-2-0-1-4-0-5-8-3-9-1"
       id="linearGradient4200-6"
       gradientUnits="userSpaceOnUse"
       gradientTransform="matrix(0.80749834,0,0,0.83374395,113.01159,-2.35899)"
       x1="-95.837799"
       y1="54.199703"
       x2="-95.837799"
       y2="5.1757793" />
    <linearGradient
       id="linearGradient3104-8-8-97-4-6-2-0-1-4-0-5-8-3-9-1">
      <stop
         offset="0"
         style="stop-color:#000000;stop-opacity:0.32173914"
         id="stop3106-5-4-3-5-0-1-61-9-2-7-3-3-2-6-9" />
      <stop
         offset="1"
         style="stop-color:#000000;stop-opacity:0.27826086"
         id="stop3108-4-3-7-8-2-4-01-9-9-0-6-4-3-7-7" />
    </linearGradient>
    <linearGradient
       id="linearGradient2867-449-88-871-390-598-476-591-434-148-57-177-3-8-8">
      <stop
         id="stop3750-8-9-0"
         style="stop-color:#95a3ab;stop-opacity:1"
         offset="0" />
      <stop
         id="stop3752-3-2-2"
         style="stop-color:#667885;stop-opacity:1"
         offset="0.26238" />
      <stop
         id="stop3754-7-2-2"
         style="stop-color:#485a6c;stop-opacity:1"
         offset="0.704952" />
      <stop
         id="stop3756-9-3-05"
         style="stop-color:#273445;stop-opacity:1"
         offset="1" />
    </linearGradient>
    <linearGradient
       id="linearGradient4011-8">
      <stop
         id="stop4013-9"
         style="stop-color:#ffffff;stop-opacity:1"
         offset="0" />
      <stop
         id="stop4015-2"
         style="stop-color:#ffffff;stop-opacity:0.23529412"
         offset="0.507761" />
      <stop
         id="stop4017-28"
         style="stop-color:#ffffff;stop-opacity:0.15686275"
         offset="0.83456558" />
      <stop
         id="stop4019-23"
         style="stop-color:#ffffff;stop-opacity:0.39215687"
         offset="1" />
    </linearGradient>
    <linearGradient
       y2="44.340794"
       x2="71.204407"
       y1="6.2375584"
       x1="71.204407"
       gradientTransform="matrix(1.6061774,0,0,1.6061774,-83.216761,-24.728225)"
       gradientUnits="userSpaceOnUse"
       id="linearGradient3540"
       xlink:href="#linearGradient4011-8" />
    <radialGradient
       r="19.99999"
       fy="8.4497671"
       fx="1.1978998"
       cy="8.4497671"
       cx="1.1978998"
       gradientTransform="matrix(0,5.0000024,-5.2894057,-1.3609237e-7,68.694364,-17.989501)"
       gradientUnits="userSpaceOnUse"
       id="radialGradient3543"
       xlink:href="#linearGradient2867-449-88-871-390-598-476-591-434-148-57-177-3-8-8" />
  </defs>
  <metadata
     id="metadata4036">
    <rdf:RDF>
      <cc:Work
         rdf:about="">
        <dc:format>image/svg+xml</dc:format>
        <dc:type
           rdf:resource="http://purl.org/dc/dcmitype/StillImage" />
        <dc:title />
      </cc:Work>
    </rdf:RDF>
  </metadata>
  <g
     id="g4182"
     transform="translate(0,16)">
    <path
       d="M 32.000002,-15.238093 C 14.7639,-15.238093 0.7619047,-1.2361042 0.7619047,16 c 0,17.236103 14.0019953,31.2381 31.2380973,31.238095 17.236095,0 31.238105,-14.001992 31.238088,-31.238095 0,-17.2361042 -14.001993,-31.238093 -31.238088,-31.238093 z"
       id="path2555"
       style="color:#000000;display:inline;overflow:visible;visibility:visible;fill:#64baff;fill-opacity:1;fill-rule:nonzero;stroke:none;stroke-width:1;marker:none;enable-background:accumulate"
       inkscape:connector-curvature="0" />
    <path
       inkscape:connector-curvature="0"
       id="path4487"
       d="m 32.139879,8.4011705 c -1.631964,0.016884 -3.63749,0.8036464 -5.880952,3.2797615 l 1.949404,-1.017857 c 0,0 -2.607329,1.195314 -2.232143,4.526785 -0.0229,0.0018 -0.04913,-0.0096 -0.07142,-0.0059 -0.531785,0.17725 -0.708688,1.108396 -0.354166,2.083333 0.265891,0.66473 0.66399,1.150447 1.107143,1.372024 0.265893,1.772611 1.196672,3.322682 2.437499,4.297618 -0.177249,0.177275 -0.574704,0.622979 -1.017857,1.154763 -0.197375,0.148022 -0.511919,0.334034 -0.824404,0.520833 -2.556076,-0.752951 -3.875974,-1.459546 -4.494047,-1.895834 -0.26589,-0.354522 -0.533722,-0.664673 -0.666667,-0.797618 0.84199,-0.664731 1.417978,-1.684113 1.595238,-2.836309 0.265892,-0.132937 0.578692,-0.488396 0.755953,-0.931549 0.21868,-0.612273 0.131672,-1.219349 -0.21131,-1.363095 0.07939,-0.972524 -0.179476,-2.163274 -1.517858,-3.113095 0,0 -2.83603,-3.589595 -6.824404,0.79762 l 1.285714,-0.663691 c 0,0 -1.676489,0.805763 -1.470237,2.967262 -0.02642,0.0056 -0.05544,-0.0094 -0.08037,0.003 -0.35452,0.132937 -0.489094,0.707293 -0.223213,1.372023 0.177249,0.443152 0.442768,0.798604 0.752975,0.931549 0.177249,1.196513 0.797563,2.171577 1.595239,2.836309 -0.132937,0.132937 -0.397799,0.398454 -0.66369,0.752975 -0.709046,0.531785 -2.436238,1.462238 -6.291668,2.392858 0,0 -0.0453,0.442739 -0.133927,1.151785 0.265891,0.354523 0.576696,0.710628 0.886904,1.020833 0.753361,0.753361 1.593189,1.372977 2.523809,1.904762 0.17725,0.132937 0.400448,0.220882 0.622024,0.309524 1.019253,0.487471 2.127892,0.843571 3.324405,1.020833 0.265893,0.04431 0.531724,0.08928 0.797618,0.08928 l 0.08631,0 0.223214,0 c 0.08431,0 0.168667,0.0058 0.252976,0.01189 0.126324,0.140434 0.243702,0.293964 0.366071,0.428571 1.107883,1.107883 2.39474,2.083276 3.857143,2.880952 0.310208,0.17725 0.618366,0.310836 0.928571,0.488096 1.551035,0.753359 3.236318,1.284703 5.008929,1.550595 0.398837,0.04431 0.797919,0.133928 1.241071,0.133928 l 0.133928,0 0.309524,0 c 0.398837,0.04431 0.79792,0.04465 1.241072,0.04465 0.398838,0 0.842234,-3.3e-4 1.241071,-0.04465 l 0.309524,0 0.133928,0 c 0.443153,-0.04431 0.839256,-0.08961 1.238095,-0.133928 0.398837,-0.04431 0.755925,-0.131581 1.154763,-0.220238 0.08862,0 0.220906,-0.04497 0.309523,-0.08928 0.310208,-0.08862 0.663007,-0.176237 0.973215,-0.26488 0.354523,-0.08863 0.666311,-0.22121 1.020833,-0.354167 0.04431,0 0.131261,-0.04497 0.175595,-0.08928 0.797673,-0.310205 1.553187,-0.666639 2.306547,-1.065477 1.418088,-0.797676 2.701969,-1.770093 3.854167,-2.877976 0.125349,-0.125348 0.240635,-0.25943 0.360119,-0.38988 0.05754,-0.0059 0.115078,6.61e-4 0.172618,-0.009 l 0.175595,0 0.08928,0 c 0.265893,-0.04431 0.576369,-0.04497 0.842261,-0.08928 0.265894,-0.04431 0.487085,-0.08961 0.752977,-0.133927 0.08863,0 0.134568,-0.04465 0.223215,-0.04465 0.221588,-0.04431 0.442112,-0.08696 0.663689,-0.175594 0.221588,-0.08863 0.442115,-0.134568 0.663691,-0.223214 0.04431,0 0.08961,-0.04465 0.133928,-0.04465 0.531783,-0.177251 1.018483,-0.442442 1.505951,-0.708333 0.930621,-0.531786 1.817744,-1.151401 2.526786,-1.904762 0.310208,-0.310205 0.621015,-0.66631 0.886906,-1.020834 -0.08863,-0.664729 -0.133928,-1.107142 -0.133928,-1.107142 -3.85543,-0.93062 -5.58262,-1.861074 -6.291666,-2.392857 -0.265891,-0.354522 -0.533722,-0.664674 -0.666666,-0.797619 0.84199,-0.664731 1.417977,-1.684112 1.595238,-2.836309 0.265892,-0.132937 0.578691,-0.488396 0.755951,-0.931549 0.221588,-0.620414 0.131291,-1.239074 -0.223214,-1.372022 -0.01006,-0.0024 -0.02243,0.002 -0.03273,0 0.06644,-0.96329 -0.201981,-2.125676 -1.517858,-3.059525 0,0 -2.83603,-3.589592 -6.824405,0.79762 l 1.285715,-0.66369 c 0,0 -1.67349,0.776629 -1.470237,2.922619 -0.01234,0.0044 -0.02679,-0.003 -0.03869,0.003 -0.35452,0.132937 -0.486142,0.707293 -0.220237,1.372023 0.177251,0.443153 0.442767,0.798604 0.752975,0.931549 0.177251,1.196513 0.797562,2.171578 1.595238,2.836309 -0.132937,0.132937 -0.397801,0.398455 -0.663691,0.752975 C 41.4904,23.114545 40.11255,23.8357 37.473211,24.60065 37.177176,24.421773 36.86798,24.240199 36.672616,24.091722 36.229463,23.515621 35.832018,23.114221 35.65476,22.936959 c 1.240829,-0.974936 2.127294,-2.525007 2.437499,-4.297618 0.443153,-0.177249 0.841249,-0.707294 1.107142,-1.372024 0.354523,-0.974937 0.221943,-1.906069 -0.354165,-2.083333 -0.0038,-0.0013 -0.0081,-0.0018 -0.01189,-0.003 0.124495,-1.459279 -0.261981,-3.249739 -2.291666,-4.69643 0,0 -1.681848,-2.111463 -4.401786,-2.083332 z"
       style="opacity:0.07000002;fill:none;fill-opacity:1;stroke:#000000;stroke-width:1.52380943;stroke-opacity:1" />
    <path
       id="path4520"
       d="m 32.374998,-3.8720202 c -3.102069,0 -5.627977,1.9942048 -5.627977,4.43154863 0,1.99418647 1.639057,3.63521037 3.943453,4.21130787 l 1.684524,2.3928577 1.729165,-2.3928577 c 2.260079,-0.5760975 3.89881,-2.2614368 3.89881,-4.21130787 0,-2.43734233 -2.525906,-4.43154863 -5.627975,-4.43154863 z m -12.85119,6.8690479 c -2.127133,0 -3.89881,1.3725667 -3.89881,3.0565468 0,1.3737736 1.151347,2.5267578 2.702382,2.9255951 l 1.196428,1.6398814 1.196428,-1.6398814 c 1.551037,-0.3988373 2.702382,-1.5518215 2.702382,-2.9255951 0,-1.6839801 -1.727362,-3.0565468 -3.89881,-3.0565468 z m 25.30357,0 c -2.127135,0 -3.89881,1.3725667 -3.89881,3.0565468 0,1.3737736 1.151348,2.5267578 2.70238,2.9255951 l 1.19643,1.6398814 1.196428,-1.6398814 c 1.595351,-0.3988373 2.70238,-1.5518215 2.70238,-2.9255951 0,-1.6839801 -1.72736,-3.0565468 -3.898808,-3.0565468 z"
       style="opacity:0.07000002;fill:none;fill-opacity:1;stroke:#000000;stroke-width:1.52380943;stroke-opacity:1"
       inkscape:connector-curvature="0" />
    <path
       style="opacity:0.15;fill:#000000;fill-opacity:1"
       d="m 32.139879,8.4011705 c -1.631964,0.016884 -3.63749,0.8036464 -5.880952,3.2797615 l 1.949404,-1.017857 c 0,0 -2.607329,1.195314 -2.232143,4.526785 -0.0229,0.0018 -0.04913,-0.0096 -0.07142,-0.0059 -0.531785,0.17725 -0.708688,1.108396 -0.354166,2.083333 0.265891,0.66473 0.66399,1.150447 1.107143,1.372024 0.265893,1.772611 1.196672,3.322682 2.437499,4.297618 -0.177249,0.177275 -0.574704,0.622979 -1.017857,1.154763 -0.197375,0.148022 -0.511919,0.334034 -0.824404,0.520833 -2.556076,-0.752951 -3.875974,-1.459546 -4.494047,-1.895834 -0.26589,-0.354522 -0.533722,-0.664673 -0.666667,-0.797618 0.84199,-0.664731 1.417978,-1.684113 1.595238,-2.836309 0.265892,-0.132937 0.578692,-0.488396 0.755953,-0.931549 0.21868,-0.612273 0.131672,-1.219349 -0.21131,-1.363095 0.07939,-0.972524 -0.179476,-2.163274 -1.517858,-3.113095 0,0 -2.83603,-3.589595 -6.824404,0.79762 l 1.285714,-0.663691 c 0,0 -1.676489,0.805763 -1.470237,2.967262 -0.02642,0.0056 -0.05544,-0.0094 -0.08037,0.003 -0.35452,0.132937 -0.489094,0.707293 -0.223213,1.372023 0.177249,0.443152 0.442768,0.798604 0.752975,0.931549 0.177249,1.196513 0.797563,2.171577 1.595239,2.836309 -0.132937,0.132937 -0.397799,0.398454 -0.66369,0.752975 -0.709046,0.531785 -2.436238,1.462238 -6.291668,2.392858 0,0 -0.0453,0.442739 -0.133927,1.151785 0.265891,0.354523 0.576696,0.710628 0.886904,1.020833 0.753361,0.753361 1.593189,1.372977 2.523809,1.904762 0.17725,0.132937 0.400448,0.220882 0.622024,0.309524 1.019253,0.487471 2.127892,0.843571 3.324405,1.020833 0.265893,0.04431 0.531724,0.08928 0.797618,0.08928 l 0.08631,0 0.223214,0 c 0.08431,0 0.168667,0.0058 0.252976,0.01189 0.126324,0.140434 0.243702,0.293964 0.366071,0.428571 1.107883,1.107883 2.39474,2.083276 3.857143,2.880952 0.310208,0.17725 0.618366,0.310836 0.928571,0.488096 1.551035,0.753359 3.236318,1.284703 5.008929,1.550595 0.398837,0.04431 0.797919,0.133928 1.241071,0.133928 l 0.133928,0 0.309524,0 c 0.398837,0.04431 0.79792,0.04465 1.241072,0.04465 0.398838,0 0.842234,-3.3e-4 1.241071,-0.04465 l 0.309524,0 0.133928,0 c 0.443153,-0.04431 0.839256,-0.08961 1.238095,-0.133928 0.398837,-0.04431 0.755925,-0.131581 1.154763,-0.220238 0.08862,0 0.220906,-0.04497 0.309523,-0.08928 0.310208,-0.08862 0.663007,-0.176237 0.973215,-0.26488 0.354523,-0.08863 0.666311,-0.22121 1.020833,-0.354167 0.04431,0 0.131261,-0.04497 0.175595,-0.08928 0.797673,-0.310205 1.553187,-0.666639 2.306547,-1.065477 1.418088,-0.797676 2.701969,-1.770093 3.854167,-2.877976 0.125349,-0.125348 0.240635,-0.25943 0.360119,-0.38988 0.05754,-0.0059 0.115078,6.61e-4 0.172618,-0.009 l 0.175595,0 0.08928,0 c 0.265893,-0.04431 0.576369,-0.04497 0.842261,-0.08928 0.265894,-0.04431 0.487085,-0.08961 0.752977,-0.133927 0.08863,0 0.134568,-0.04465 0.223215,-0.04465 0.221588,-0.04431 0.442112,-0.08696 0.663689,-0.175594 0.221588,-0.08863 0.442115,-0.134568 0.663691,-0.223214 0.04431,0 0.08961,-0.04465 0.133928,-0.04465 0.531783,-0.177251 1.018483,-0.442442 1.505951,-0.708333 0.930621,-0.531786 1.817744,-1.151401 2.526786,-1.904762 0.310208,-0.310205 0.621015,-0.66631 0.886906,-1.020834 -0.08863,-0.664729 -0.133928,-1.107142 -0.133928,-1.107142 -3.85543,-0.93062 -5.58262,-1.861074 -6.291666,-2.392857 -0.265891,-0.354522 -0.533722,-0.664674 -0.666666,-0.797619 0.84199,-0.664731 1.417977,-1.684112 1.595238,-2.836309 0.265892,-0.132937 0.578691,-0.488396 0.755951,-0.931549 0.221588,-0.620414 0.131291,-1.239074 -0.223214,-1.372022 -0.01006,-0.0024 -0.02243,0.002 -0.03273,0 0.06644,-0.96329 -0.201981,-2.125676 -1.517858,-3.059525 0,0 -2.83603,-3.589592 -6.824405,0.79762 l 1.285715,-0.66369 c 0,0 -1.67349,0.776629 -1.470237,2.922619 -0.01234,0.0044 -0.02679,-0.003 -0.03869,0.003 -0.35452,0.132937 -0.486142,0.707293 -0.220237,1.372023 0.177251,0.443153 0.442767,0.798604 0.752975,0.931549 0.177251,1.196513 0.797562,2.171578 1.595238,2.836309 -0.132937,0.132937 -0.397801,0.398455 -0.663691,0.752975 C 41.4904,23.114545 40.11255,23.8357 37.473211,24.60065 37.177176,24.421773 36.86798,24.240199 36.672616,24.091722 36.229463,23.515621 35.832018,23.114221 35.65476,22.936959 c 1.240829,-0.974936 2.127294,-2.525007 2.437499,-4.297618 0.443153,-0.177249 0.841249,-0.707294 1.107142,-1.372024 0.354523,-0.974937 0.221943,-1.906069 -0.354165,-2.083333 -0.0038,-0.0013 -0.0081,-0.0018 -0.01189,-0.003 0.124495,-1.459279 -0.261981,-3.249739 -2.291666,-4.69643 0,0 -1.681848,-2.111463 -4.401786,-2.083332 z"
       id="path4473"
       inkscape:connector-curvature="0" />
    <path
       d="m 61.714281,15.998948 c 0,16.411275 -13.304517,29.715335 -29.713907,29.715335 -16.410893,0 -29.7146599,-13.304211 -29.7146599,-29.715335 0,-16.41051588 13.3037669,-29.713229 29.7146599,-29.713229 16.40939,0 29.713907,13.30271312 29.713907,29.713229 l 0,0 z"
       id="path8655-4"
       style="color:#000000;display:inline;overflow:visible;visibility:visible;opacity:0.3;fill:none;stroke:url(#linearGradient3540);stroke-width:1.52380943;stroke-linecap:round;stroke-linejoin:round;stroke-miterlimit:4;stroke-dasharray:none;stroke-dashoffset:0;stroke-opacity:1;marker:none;enable-background:accumulate"
       inkscape:connector-curvature="0" />
    <path
       d="M 32.000002,-15.238094 C 14.7639,-15.238094 0.7619047,-1.2361042 0.7619047,16 c 0,17.236103 14.0019953,31.2381 31.2380973,31.238095 17.236095,0 31.238105,-14.001992 31.238088,-31.238095 0,-17.2361042 -14.001993,-31.238094 -31.238088,-31.238094 z"
       id="path2555-6-0"
       style="color:#000000;display:inline;overflow:visible;visibility:visible;opacity:0.5;fill:#000000;fill-opacity:0;fill-rule:nonzero;stroke:#0e141f;stroke-width:1.52380943;stroke-linecap:round;stroke-linejoin:round;stroke-miterlimit:4;stroke-dasharray:none;stroke-dashoffset:0;stroke-opacity:1;marker:none;enable-background:accumulate"
       inkscape:connector-curvature="0" />
    <path
       inkscape:connector-curvature="0"
       style="fill:#e6e9ee"
       d="m 54.044901,23.586484 c -3.85543,-0.930621 -5.583726,-1.86124 -6.292771,-2.393024 -0.265891,-0.354521 -0.531783,-0.664729 -0.664728,-0.797674 l 0,0 c 0.84199,-0.664732 1.418087,-1.683982 1.595348,-2.83618 0.265892,-0.132937 0.5761,-0.487468 0.75336,-0.930621 0.221588,-0.620414 0.132937,-1.240827 -0.221562,-1.373775 -0.177275,-0.04431 -0.398837,0 -0.5761,0.17725 -0.487468,-1.86124 -1.949871,-3.190699 -3.722485,-3.190699 -1.77261,0 -3.235014,1.329459 -3.722481,3.190699 -0.177251,-0.17725 -0.398838,-0.26589 -0.5761,-0.17725 -0.354521,0.132937 -0.487468,0.709046 -0.221564,1.373775 0.177251,0.443153 0.443153,0.797677 0.753361,0.930621 0.177251,1.196514 0.797673,2.171448 1.595349,2.83618 l 0,0 c -0.132937,0.132937 -0.398838,0.398837 -0.664728,0.753358 -0.709045,0.531785 -2.437341,1.462405 -6.292771,2.393025 0,0 -0.04431,0.443153 -0.132937,1.152198 0.26589,0.354523 0.576098,0.709045 0.886306,1.01925 0.753357,0.753361 1.595347,1.373774 2.525971,1.905559 0.17725,0.132937 0.398838,0.221563 0.620412,0.310205 1.019253,0.487471 2.127134,0.841991 3.323648,1.019253 0.265892,0.04431 0.531782,0.08863 0.797674,0.08863 0.04431,0 0.04431,0 0.08863,0 0.04431,0 0.132937,0 0.221588,0 0.265891,0 0.531783,0.04431 0.797673,0.04431 0.265892,0 0.531785,0 0.797676,-0.04431 0.08863,0 0.132937,0 0.177249,0 0.04431,0 0.04431,0 0.08863,0 0.265893,-0.04431 0.576098,-0.04431 0.84199,-0.08863 0.265893,-0.04431 0.487468,-0.08862 0.753361,-0.132937 0.08862,0 0.132937,-0.04431 0.221588,-0.04431 0.221587,-0.04431 0.443152,-0.08862 0.664729,-0.177249 0.221588,-0.08863 0.443153,-0.132937 0.664729,-0.221588 0.04431,0 0.08863,-0.04431 0.132937,-0.04431 0.531784,-0.177251 1.01925,-0.443153 1.506718,-0.709044 0.930621,-0.531785 1.81693,-1.152198 2.525972,-1.905559 0.310208,-0.310205 0.620414,-0.664727 0.886305,-1.01925 -0.08862,-0.66473 -0.132937,-1.107882 -0.132937,-1.107882 z"
       id="path5" />
    <path
       inkscape:connector-curvature="0"
       style="fill:#324a5e"
       d="m 41.326415,17.382346 c -1.99419,-3.811117 0.797675,-5.051945 0.797675,-5.051945 l -1.285143,0.66473 c 3.988374,-4.3872116 6.824552,-0.797674 6.824552,-0.797674 2.747548,1.949872 0.974937,4.918997 0.974937,4.918997 0,0 -0.310205,-2.171452 -1.506719,-3.102073 0,0 -1.41809,1.462406 -4.697419,0.132938 0,0 -0.753361,1.063567 -0.487472,2.481656 0,0 -0.310205,-0.177276 -0.443152,-0.930621 0.04431,-0.04431 -0.354519,0.930621 -0.17725,1.68398 l 0,0 z"
       id="path7" />
    <path
       inkscape:connector-curvature="0"
       style="fill:#e6e9ee"
       d="m 29.05108,23.586484 c -3.855428,-0.930621 -5.53941,-1.86124 -6.29277,-2.393024 -0.26589,-0.354521 -0.531782,-0.664729 -0.664727,-0.797674 l 0,0 c 0.84199,-0.664732 1.418087,-1.683982 1.595348,-2.83618 0.265892,-0.132937 0.5761,-0.487468 0.75336,-0.930621 0.221588,-0.620414 0.132937,-1.240827 -0.221587,-1.373775 -0.17725,-0.04431 -0.398838,0 -0.576101,0.17725 -0.487468,-1.86124 -1.949871,-3.190699 -3.722482,-3.190699 -1.772612,0 -3.235017,1.329459 -3.722483,3.190699 -0.177276,-0.17725 -0.398839,-0.26589 -0.576101,-0.17725 -0.35452,0.132937 -0.487468,0.709046 -0.221588,1.373775 0.17725,0.443153 0.443153,0.797677 0.753361,0.930621 0.177249,1.196514 0.797675,2.171448 1.595348,2.83618 l 0,0 c -0.132938,0.132937 -0.398838,0.398837 -0.664729,0.753358 -0.709045,0.531785 -2.43734,1.462405 -6.29277,2.393025 0,0 -0.04431,0.443153 -0.132937,1.152198 0.265891,0.354523 0.576097,0.709045 0.886305,1.01925 0.753361,0.753361 1.595351,1.373774 2.525972,1.905559 0.177249,0.132937 0.398837,0.221563 0.620413,0.310205 1.019253,0.487471 2.127132,0.841991 3.323646,1.019253 0.265892,0.04431 0.531782,0.08863 0.797676,0.08863 0.04431,0 0.04431,0 0.08863,0 0.04431,0 0.132937,0 0.221587,0 0.26589,0 0.531782,0.04431 0.797675,0.04431 0.265891,0 0.531784,0 0.797673,-0.04431 0.08863,0 0.132937,0 0.177276,0 0.04431,0 0.04431,0 0.08862,0 0.265893,-0.04431 0.576098,-0.04431 0.84199,-0.08863 0.265893,-0.04431 0.487468,-0.08862 0.753361,-0.132937 0.08863,0 0.132937,-0.04431 0.221562,-0.04431 0.221588,-0.04431 0.443153,-0.08862 0.664731,-0.177249 0.221562,-0.08863 0.443153,-0.132937 0.664727,-0.221588 0.04431,0 0.08863,-0.04431 0.132937,-0.04431 0.531782,-0.177251 1.01925,-0.443153 1.506717,-0.709044 0.930624,-0.531785 1.816929,-1.152198 2.525972,-1.905559 0.310208,-0.310205 0.620416,-0.664727 0.886305,-1.01925 -0.08863,-0.66473 -0.132937,-1.107882 -0.132937,-1.107882 z"
       id="path9" />
    <path
       inkscape:connector-curvature="0"
       style="fill:#324a5e"
       d="m 16.37691,17.382346 c -1.994188,-3.811117 0.797675,-5.09626 0.797675,-5.09626 l -1.285143,0.664731 c 3.988374,-4.3872146 6.824554,-0.797676 6.824554,-0.797676 2.747549,1.949874 0.974935,4.918997 0.974935,4.918997 0,0 -0.310205,-2.171451 -1.506719,-3.10207 0,0 -1.418087,1.462406 -4.69742,0.132937 0,0 -0.75336,1.063568 -0.487466,2.481656 0,0 -0.310208,-0.17725 -0.443153,-0.930621 0,0 -0.398839,0.974936 -0.177251,1.728295 l 0,0 z"
       id="path11" />
    <path
       inkscape:connector-curvature="0"
       style="fill:#ffffff"
       d="m 46.156779,26.201085 c -5.8053,-1.418087 -8.375586,-2.791861 -9.48347,-3.633851 -0.443153,-0.5761 -0.84199,-0.974936 -1.01925,-1.152198 l 0,0 c 1.240829,-0.974936 2.127134,-2.525972 2.437339,-4.298582 0.443153,-0.17725 0.84199,-0.709046 1.107883,-1.373776 0.354523,-0.974936 0.221587,-1.905555 -0.354522,-2.082818 -0.265891,-0.08863 -0.576099,0.04431 -0.886306,0.310208 -0.709047,-2.791862 -2.969124,-4.830365 -5.583725,-4.830365 -2.658916,0 -4.874683,2.038503 -5.583725,4.830365 -0.310208,-0.265891 -0.620416,-0.354524 -0.886306,-0.310208 -0.531785,0.177249 -0.709045,1.107882 -0.354523,2.082818 0.265891,0.66473 0.664728,1.152198 1.107881,1.373776 0.265893,1.77261 1.196513,3.323646 2.437341,4.298582 l 0,0 c -0.17725,0.177275 -0.576098,0.620414 -1.01925,1.152198 -1.063569,0.797675 -3.633855,2.215764 -9.483472,3.633851 0,0 -0.08863,0.66473 -0.17725,1.728296 0.398837,0.531786 0.886305,1.063568 1.329458,1.551037 1.107883,1.107882 2.393026,2.082817 3.855428,2.880493 0.310208,0.177249 0.620416,0.310208 0.930621,0.487468 1.551036,0.753359 3.235017,1.285143 5.007628,1.551035 0.398837,0.04431 0.797675,0.132938 1.240827,0.132938 0.04431,0 0.08863,0 0.132938,0 0.08862,0 0.221587,0 0.310208,0 0.398837,0.04431 0.797676,0.04431 1.240828,0.04431 0.398838,0 0.84199,0 1.240828,-0.04431 0.08862,0 0.221588,0 0.310208,0 0.04431,0 0.08862,0 0.132937,0 0.443153,-0.04431 0.84199,-0.08863 1.240829,-0.132938 0.398837,-0.04431 0.75336,-0.132937 1.152198,-0.221587 0.08862,0 0.221587,-0.04431 0.310205,-0.08863 0.310208,-0.08863 0.664729,-0.17725 0.974937,-0.265893 0.354524,-0.08862 0.664729,-0.221563 1.019251,-0.35452 0.04431,0 0.132937,-0.04431 0.177275,-0.08863 0.797673,-0.310205 1.551034,-0.664728 2.304395,-1.063565 1.418087,-0.797677 2.70323,-1.772611 3.855428,-2.880494 0.487468,-0.487468 0.930621,-1.019252 1.329458,-1.551037 -0.310205,-1.01925 -0.354522,-1.68398 -0.354522,-1.68398 z"
       id="path13" />
    <path
       inkscape:connector-curvature="0"
       style="fill:#324a5e"
       d="M 27.012577,16.806246 C 23.999139,11.045259 28.20909,9.139703 28.20909,9.139703 l -1.949872,1.01925 c 5.982564,-6.6029753 10.281146,-1.1965133 10.281146,-1.1965133 4.165638,2.9691243 1.462403,7.4006533 1.462403,7.4006533 0,0 -0.487466,-3.235015 -2.260077,-4.69742 0,0 -2.127135,2.215764 -7.090447,0.177251 0,0 -1.152198,1.595351 -0.753361,3.722484 0,0 -0.487466,-0.310208 -0.620413,-1.418091 0,0.08863 -0.620414,1.506721 -0.265892,2.658916 l 0,0 z"
       id="path15" />
    <path
       style="opacity:0.15;fill:#000000;fill-opacity:1"
       d="m 32.374998,-3.8720202 c -3.102069,0 -5.627977,1.9942048 -5.627977,4.43154863 0,1.99418647 1.639057,3.63521037 3.943453,4.21130787 l 1.684524,2.3928577 1.729165,-2.3928577 c 2.260079,-0.5760975 3.89881,-2.2614368 3.89881,-4.21130787 0,-2.43734233 -2.525906,-4.43154863 -5.627975,-4.43154863 z m -12.85119,6.8690479 c -2.127133,0 -3.89881,1.3725667 -3.89881,3.0565468 0,1.3737736 1.151347,2.5267578 2.702382,2.9255951 l 1.196428,1.6398814 1.196428,-1.6398814 c 1.551037,-0.3988373 2.702382,-1.5518215 2.702382,-2.9255951 0,-1.6839801 -1.727362,-3.0565468 -3.89881,-3.0565468 z m 25.30357,0 c -2.127135,0 -3.89881,1.3725667 -3.89881,3.0565468 0,1.3737736 1.151348,2.5267578 2.70238,2.9255951 l 1.19643,1.6398814 1.196428,-1.6398814 c 1.595351,-0.3988373 2.70238,-1.5518215 2.70238,-2.9255951 0,-1.6839801 -1.72736,-3.0565468 -3.898808,-3.0565468 z"
       id="path4489"
       inkscape:connector-curvature="0" />
    <path
       inkscape:connector-curvature="0"
       style="fill:#ffffff"
       d="m 38.002767,-0.96418193 c 0,-2.43734227 -2.52597,-4.43152757 -5.628039,-4.43152757 -3.102069,0 -5.628041,1.9941853 -5.628041,4.43152757 0,1.99418803 1.639663,3.63385423 3.944059,4.20995163 l 1.683982,2.3930254 1.728296,-2.3930254 c 2.260079,-0.5760974 3.899743,-2.26007902 3.899743,-4.20995163 z"
       id="path17" />
    <circle
       id="circle21"
       r="0.88630557"
       cy="-1.0971277"
       cx="29.494234"
       style="fill:#c6262e;fill-opacity:1" />
    <circle
       id="circle23"
       r="0.88630557"
       cy="-1.0971277"
       cx="32.374725"
       style="fill:#c6262e;fill-opacity:1" />
    <circle
       id="circle25"
       r="0.88630557"
       cy="-1.0971277"
       cx="35.255219"
       style="fill:#c6262e;fill-opacity:0.94117647" />
    <path
       inkscape:connector-curvature="0"
       style="fill:#ffffff"
       d="m 48.727065,4.5309125 c 0,-1.6839801 -1.728295,-3.0577537 -3.899744,-3.0577537 -2.127134,0 -3.899745,1.3737736 -3.899745,3.0577537 0,1.3737736 1.152198,2.5259716 2.703232,2.9248089 l 1.196513,1.6396661 1.196512,-1.6396661 c 1.595351,-0.3988373 2.703232,-1.5510353 2.703232,-2.9248089 z"
       id="path27" />
    <circle
       id="circle31"
       r="0.6204139"
       cy="4.4422832"
       cx="42.877445"
       style="fill:#68b723;fill-opacity:1" />
    <circle
       id="circle33"
       r="0.6204139"
       cy="4.4422832"
       cx="44.871635"
       style="fill:#68b723;fill-opacity:1" />
    <circle
       id="circle35"
       r="0.6204139"
       cy="4.4422832"
       cx="46.865822"
       style="fill:#68b723;fill-opacity:1" />
    <path
       inkscape:connector-curvature="0"
       style="fill:#ffffff"
       d="m 23.423041,4.5309125 c 0,-1.6839801 -1.728297,-3.0577537 -3.899745,-3.0577537 -2.127133,0 -3.899747,1.3737736 -3.899747,3.0577537 0,1.3737736 1.152198,2.5259716 2.703234,2.9248089 l 1.196513,1.6396661 1.19651,-1.6396661 c 1.551037,-0.3988373 2.703235,-1.5510353 2.703235,-2.9248089 z"
       id="path37" />
    <circle
       id="circle41"
       r="0.6204139"
       cy="4.4422832"
       cx="17.529108"
       style="fill:#68b723;fill-opacity:1" />
    <circle
       id="circle43"
       r="0.6204139"
       cy="4.4422832"
       cx="19.523296"
       style="fill:#68b723;fill-opacity:1" />
    <circle
       id="circle45"
       r="0.6204139"
       cy="4.4422832"
       cx="21.517483"
       style="fill:#68b723;fill-opacity:1" />
  </g>
</svg>
