<?xml version="1.0" encoding="UTF-8" standalone="no"?>
<!-- Created with Inkscape (http://www.inkscape.org/) -->

<svg
   xmlns:dc="http://purl.org/dc/elements/1.1/"
   xmlns:cc="http://creativecommons.org/ns#"
   xmlns:rdf="http://www.w3.org/1999/02/22-rdf-syntax-ns#"
   xmlns:svg="http://www.w3.org/2000/svg"
   xmlns="http://www.w3.org/2000/svg"
   xmlns:xlink="http://www.w3.org/1999/xlink"
   xmlns:sodipodi="http://sodipodi.sourceforge.net/DTD/sodipodi-0.dtd"
   xmlns:inkscape="http://www.inkscape.org/namespaces/inkscape"
   width="64"
   height="64"
   id="svg2"
   version="1.1"
   inkscape:version="0.91 r13725"
   sodipodi:docname="planner-games.svg">
  <defs
     id="defs4">
    <linearGradient
       id="linearGradient3880">
      <stop
         style="stop-color:#000000;stop-opacity:0.19607843;"
         offset="0"
         id="stop3882" />
      <stop
         style="stop-color:#000000;stop-opacity:0;"
         offset="1"
         id="stop3884" />
    </linearGradient>
    <linearGradient
       id="linearGradient3830">
      <stop
         style="stop-color:#808080;stop-opacity:0.50980395;"
         offset="0"
         id="stop3832" />
      <stop
         id="stop3848"
         offset="0.05"
         style="stop-color:#808080;stop-opacity:0.39215687;" />
      <stop
         id="stop3846"
         offset="0.904248"
         style="stop-color:#808080;stop-opacity:0.47058824;" />
      <stop
         style="stop-color:#808080;stop-opacity:0.58823532;"
         offset="1"
         id="stop3834" />
    </linearGradient>
    <inkscape:path-effect
       effect="skeletal"
       id="path-effect3787"
       is_visible="true"
       pattern="m 55.594343,1001.6632 1,0"
       copytype="single_stretched"
       prop_scale="1"
       scale_y_rel="false"
       spacing="0"
       normal_offset="0"
       tang_offset="0"
       prop_units="false"
       vertical_pattern="false"
       fuse_tolerance="0" />
    <inkscape:path-effect
       effect="spiro"
       id="path-effect3785"
       is_visible="true" />
    <linearGradient
       id="linearGradient3775">
      <stop
         style="stop-color:#ffffff;stop-opacity:0.58823532;"
         offset="0"
         id="stop3777" />
      <stop
         style="stop-color:#ffffff;stop-opacity:1;"
         offset="1"
         id="stop3779" />
    </linearGradient>
    <linearGradient
       id="linearGradient3765">
      <stop
         style="stop-color:#ffffff;stop-opacity:1;"
         offset="0"
         id="stop3767" />
      <stop
         style="stop-color:#e4e4e4;stop-opacity:1;"
         offset="1"
         id="stop3769" />
    </linearGradient>
    <radialGradient
       inkscape:collect="always"
       xlink:href="#linearGradient3765"
       id="radialGradient3771"
       cx="14.891734"
       cy="-17.680855"
       fx="14.891734"
       fy="-17.680855"
       r="25.570608"
       gradientUnits="userSpaceOnUse"
       gradientTransform="matrix(-1.7922484,4.7450628e-8,-3.529013e-8,-1.3329366,41.58142,-41.248313)" />
    <linearGradient
       inkscape:collect="always"
       xlink:href="#linearGradient3775"
       id="linearGradient3781"
       x1="15.123692"
       y1="-18.801283"
       x2="15.123692"
       y2="32.56842"
       gradientUnits="userSpaceOnUse" />
    <linearGradient
       inkscape:collect="always"
       xlink:href="#linearGradient3830"
       id="linearGradient3836"
       x1="29.461779"
       y1="1008.808"
       x2="29.461779"
       y2="1033.2281"
       gradientUnits="userSpaceOnUse" />
    <radialGradient
       inkscape:collect="always"
       xlink:href="#linearGradient3765"
       id="radialGradient3872"
       gradientUnits="userSpaceOnUse"
       gradientTransform="matrix(-1.7922484,4.7450628e-8,-3.529013e-8,-1.3329366,41.58142,-41.248313)"
       cx="14.891734"
       cy="-17.680855"
       fx="14.891734"
       fy="-17.680855"
       r="25.570608" />
    <linearGradient
       inkscape:collect="always"
       xlink:href="#linearGradient3775"
       id="linearGradient3874"
       gradientUnits="userSpaceOnUse"
       x1="15.123692"
       y1="-18.801283"
       x2="15.123692"
       y2="32.56842" />
    <linearGradient
       inkscape:collect="always"
       xlink:href="#linearGradient3830"
       id="linearGradient3876"
       gradientUnits="userSpaceOnUse"
       x1="29.461779"
       y1="1008.808"
       x2="29.461779"
       y2="1033.2281" />
    <radialGradient
       inkscape:collect="always"
       xlink:href="#linearGradient3880"
       id="radialGradient3888"
       cx="32.629204"
       cy="60.414944"
       fx="32.629204"
       fy="60.414944"
       r="26.290409"
       gradientTransform="matrix(1,0,0,0.10474308,0,54.086896)"
       gradientUnits="userSpaceOnUse" />
    <radialGradient
       inkscape:collect="always"
       xlink:href="#linearGradient3765"
       id="radialGradient3901"
       gradientUnits="userSpaceOnUse"
       gradientTransform="matrix(-1.7922484,4.7450628e-8,-3.529013e-8,-1.3329366,41.58142,-41.248313)"
       cx="14.891734"
       cy="-17.680855"
       fx="14.891734"
       fy="-17.680855"
       r="25.570608" />
    <linearGradient
       inkscape:collect="always"
       xlink:href="#linearGradient3775"
       id="linearGradient3903"
       gradientUnits="userSpaceOnUse"
       x1="15.123692"
       y1="-18.801283"
       x2="15.123692"
       y2="32.56842" />
    <linearGradient
       inkscape:collect="always"
       xlink:href="#linearGradient3830"
       id="linearGradient3905"
       gradientUnits="userSpaceOnUse"
       x1="29.461779"
       y1="1008.808"
       x2="29.461779"
       y2="1033.2281" />
    <radialGradient
       inkscape:collect="always"
       xlink:href="#linearGradient3765"
       id="radialGradient3914"
       gradientUnits="userSpaceOnUse"
       gradientTransform="matrix(-1.9465608,5.1536121e-8,-3.8328607e-8,-1.4477023,60.641885,968.14048)"
       cx="14.891734"
       cy="-17.680855"
       fx="14.891734"
       fy="-17.680855"
       r="25.570608" />
    <linearGradient
       inkscape:collect="always"
       xlink:href="#linearGradient3775"
       id="linearGradient3916"
       gradientUnits="userSpaceOnUse"
       x1="15.123692"
       y1="-18.801283"
       x2="15.123692"
       y2="32.56842" />
    <linearGradient
       inkscape:collect="always"
       xlink:href="#linearGradient3830"
       id="linearGradient3918"
       gradientUnits="userSpaceOnUse"
       x1="29.461779"
       y1="1008.808"
       x2="29.461779"
       y2="1033.2281" />
    <linearGradient
       inkscape:collect="always"
       xlink:href="#linearGradient3830"
       id="linearGradient3922"
       gradientUnits="userSpaceOnUse"
       x1="29.461779"
       y1="1008.808"
       x2="29.461779"
       y2="1033.2281"
       gradientTransform="translate(0,-1.3508906)" />
    <linearGradient
       inkscape:collect="always"
       xlink:href="#linearGradient3830"
       id="linearGradient3022"
       gradientUnits="userSpaceOnUse"
       gradientTransform="translate(0,-1.3508906)"
       x1="29.461779"
       y1="1008.808"
       x2="29.461779"
       y2="1033.2281" />
    <linearGradient
       inkscape:collect="always"
       xlink:href="#linearGradient3830"
       id="linearGradient3794"
       gradientUnits="userSpaceOnUse"
       gradientTransform="matrix(2.0661021,0,0,2.0661021,-1.0822163,-1122.9211)"
       x1="29.461779"
       y1="1008.808"
       x2="29.461779"
       y2="1033.2281" />
    <linearGradient
       inkscape:collect="always"
       xlink:href="#linearGradient3830"
       id="linearGradient3798"
       gradientUnits="userSpaceOnUse"
       gradientTransform="matrix(2.0661021,0,0,2.0661021,-1.0822163,-1122.9211)"
       x1="29.461779"
       y1="1008.808"
       x2="29.461779"
       y2="1033.2281" />
    <linearGradient
       inkscape:collect="always"
       xlink:href="#linearGradient3775"
       id="linearGradient3804"
       gradientUnits="userSpaceOnUse"
       x1="15.123692"
       y1="-18.801283"
       x2="15.123692"
       y2="32.56842"
       gradientTransform="matrix(1.0678391,0,0,1.0678391,15.758056,1013.0651)" />
    <linearGradient
       inkscape:collect="always"
       xlink:href="#linearGradient3830"
       id="linearGradient3028"
       gradientUnits="userSpaceOnUse"
       gradientTransform="matrix(0.9411701,0,0,0.9411701,2.3531397,59.557224)"
       x1="29.461779"
       y1="1008.808"
       x2="29.461779"
       y2="1033.2281" />
    <linearGradient
       inkscape:collect="always"
       xlink:href="#linearGradient3830"
       id="linearGradient3032"
       gradientUnits="userSpaceOnUse"
       gradientTransform="matrix(0.9411701,0,0,0.9411701,2.3531397,59.557224)"
       x1="29.461779"
       y1="1008.808"
       x2="29.461779"
       y2="1033.2281" />
  </defs>
  <sodipodi:namedview
     id="base"
     pagecolor="#ffffff"
     bordercolor="#666666"
     borderopacity="1.0"
     inkscape:pageopacity="0.0"
     inkscape:pageshadow="2"
     inkscape:zoom="2.4058204"
     inkscape:cx="-72.325578"
     inkscape:cy="25.799353"
     inkscape:document-units="px"
     inkscape:current-layer="layer1"
     showgrid="false"
     borderlayer="true"
     inkscape:showpageshadow="false"
     inkscape:window-width="1366"
     inkscape:window-height="705"
     inkscape:window-x="0"
     inkscape:window-y="30"
     inkscape:window-maximized="1" />
  <metadata
     id="metadata7">
    <rdf:RDF>
      <cc:Work
         rdf:about="">
        <dc:format>image/svg+xml</dc:format>
        <dc:type
           rdf:resource="http://purl.org/dc/dcmitype/StillImage" />
        <dc:title />
      </cc:Work>
    </rdf:RDF>
  </metadata>
  <g
     inkscape:label="Layer 1"
     inkscape:groupmode="layer"
     id="layer1"
     transform="translate(0,-988.36218)">
    <circle
       r="27.772236"
       cy="1020.3622"
       cx="32"
       style="fill:url(#radialGradient3914);fill-opacity:1;stroke:none"
       id="path2985" />
    <circle
       r="27.772236"
       cy="1020.3622"
       cx="32"
       id="path3755"
       style="fill:none;stroke:#828282;stroke-width:0.45552933;stroke-miterlimit:4;stroke-dasharray:none;stroke-opacity:0.58823529" />
    <circle
       r="27.305296"
       cy="1020.3622"
       cx="32"
       style="fill:none;stroke:url(#linearGradient3804);stroke-width:0.46259585;stroke-miterlimit:4;stroke-dasharray:none;stroke-opacity:0.58823529"
       id="path3773" />
    <path
       style="fill:url(#linearGradient3032);fill-opacity:1;stroke:none"
       d="m 22.588298,1008.9799 c -6.302588,0 -11.382277,5.0798 -11.382277,11.3824 0,6.3025 5.079689,11.3822 11.382277,11.3822 l 18.823403,0 c 6.302588,0 11.382274,-5.0797 11.382274,-11.3822 0,-6.3026 -5.079686,-11.3824 -11.382274,-11.3824 l -18.823403,0 z m 22.293968,3.9118 c 0.08913,-0.018 0.170179,0 0.264704,0 0.756199,0 1.382343,0.5968 1.382343,1.3529 0,0.7562 -0.626144,1.3824 -1.382343,1.3824 -0.756199,0 -1.352932,-0.6262 -1.352932,-1.3824 0,-0.6616 0.464298,-1.2252 1.088228,-1.3529 z m -26.617468,0.2942 1.176463,0 c 0.352182,0 0.647054,0.2654 0.647054,0.6176 l 0,1.8235 1.794106,0 c 0.352182,0 0.647053,0.2948 0.647053,0.647 l 0,1.1471 c 0,0.3522 -0.294871,0.6471 -0.647053,0.6471 l -1.794106,0 0,1.8235 c 0,0.3522 -0.294872,0.6176 -0.647054,0.6176 l -1.176463,0 c -0.352183,0 -0.647054,-0.2654 -0.647054,-0.6176 l 0,-1.8235 -1.794107,0 c -0.352182,0 -0.647053,-0.2949 -0.647053,-0.6471 l 0,-1.1471 c 0,-0.3522 0.294871,-0.647 0.647053,-0.647 l 1.794107,0 0,-1.8235 c 0,-0.3522 0.294871,-0.6176 0.647054,-0.6176 z m 24.117484,2.4411 c 0.7562,0 1.352932,0.5967 1.352932,1.3529 0,0.7562 -0.596732,1.3824 -1.352932,1.3824 -0.756198,0 -1.382343,-0.6262 -1.382343,-1.3824 0,-0.7562 0.626145,-1.3529 1.382343,-1.3529 z m 5.558787,0 c 0.756199,0 1.382342,0.5967 1.382342,1.3529 0,0.7562 -0.626143,1.3824 -1.382342,1.3824 -0.7562,0 -1.352933,-0.6262 -1.352933,-1.3824 0,-0.7562 0.596733,-1.3529 1.352933,-1.3529 z m -19.617515,1.1176 1.470578,0 c 0.352183,0 0.647055,0.2655 0.647055,0.6177 l 0,0.1176 c 0,0.3522 -0.294872,0.6176 -0.647055,0.6176 l -1.470578,0 c -0.352183,0 -0.617644,-0.2654 -0.617644,-0.6176 l 0,-0.1176 c 0,-0.3522 0.265461,-0.6177 0.617644,-0.6177 z m 6.088194,0 1.470579,0 c 0.352182,0 0.617642,0.2655 0.617642,0.6177 l 0,0.1176 c 0,0.3522 -0.26546,0.6176 -0.617642,0.6176 l -1.470579,0 c -0.352184,0 -0.647054,-0.2654 -0.647054,-0.6176 l 0,-0.1176 c 0,-0.3522 0.29487,-0.6177 0.647054,-0.6177 z m 10.735222,1.3236 c 0.756199,0 1.382343,0.5967 1.382343,1.3529 0,0.7561 -0.626144,1.3823 -1.382343,1.3823 -0.756199,0 -1.352932,-0.6262 -1.352932,-1.3823 0,-0.7562 0.596733,-1.3529 1.352932,-1.3529 z m -19.588104,4.647 c 1.782469,0 3.205861,1.4233 3.205861,3.2058 0,1.7824 -1.423392,3.2353 -3.205861,3.2353 -1.782468,0 -3.235272,-1.4529 -3.235272,-3.2353 0,-1.7825 1.452804,-3.2058 3.235272,-3.2058 z m 12.999913,0 c 1.782469,0 3.235272,1.4233 3.235272,3.2058 0,1.7824 -1.452803,3.2353 -3.235272,3.2353 -1.782469,0 -3.235273,-1.4529 -3.235273,-3.2353 0,-1.7825 1.452804,-3.2058 3.235273,-3.2058 z"
       id="rect3789"
       inkscape:connector-curvature="0" />
    <path
       inkscape:connector-curvature="0"
       style="fill:#ffffff;fill-opacity:0.19607843;stroke:none"
       d="m 32,992.59771 c -15.338183,0 -27.76452,12.42639 -27.76452,27.76459 0,9.6857 4.9536953,18.2065 12.470505,23.1763 -0.959265,-11.2397 3.53223,-22.7225 12.999912,-30.3822 7.554396,-6.1117 16.814543,-8.5881 25.735123,-7.6764 C 50.51315,997.7336 41.86112,992.59771 32,992.59771 Z"
       id="path3859" />
    <path
       inkscape:connector-curvature="0"
       id="path3927"
       d="m 22.588298,1008.9799 c -6.302588,0 -11.382277,5.0798 -11.382277,11.3824 0,6.3025 5.079689,11.3822 11.382277,11.3822 l 18.823403,0 c 6.302588,0 11.382274,-5.0797 11.382274,-11.3822 0,-6.3026 -5.079686,-11.3824 -11.382274,-11.3824 l -18.823403,0 z m 22.293968,3.9118 c 0.08913,-0.018 0.170179,0 0.264704,0 0.756199,0 1.382343,0.5968 1.382343,1.3529 0,0.7562 -0.626144,1.3824 -1.382343,1.3824 -0.756199,0 -1.352932,-0.6262 -1.352932,-1.3824 0,-0.6616 0.464298,-1.2252 1.088228,-1.3529 z m -26.617468,0.2942 1.176463,0 c 0.352182,0 0.647054,0.2654 0.647054,0.6176 l 0,1.8235 1.794106,0 c 0.352182,0 0.647053,0.2948 0.647053,0.647 l 0,1.1471 c 0,0.3522 -0.294871,0.6471 -0.647053,0.6471 l -1.794106,0 0,1.8235 c 0,0.3522 -0.294872,0.6176 -0.647054,0.6176 l -1.176463,0 c -0.352183,0 -0.647054,-0.2654 -0.647054,-0.6176 l 0,-1.8235 -1.794107,0 c -0.352182,0 -0.647053,-0.2949 -0.647053,-0.6471 l 0,-1.1471 c 0,-0.3522 0.294871,-0.647 0.647053,-0.647 l 1.794107,0 0,-1.8235 c 0,-0.3522 0.294871,-0.6176 0.647054,-0.6176 z m 24.117484,2.4411 c 0.7562,0 1.352932,0.5967 1.352932,1.3529 0,0.7562 -0.596732,1.3824 -1.352932,1.3824 -0.756198,0 -1.382343,-0.6262 -1.382343,-1.3824 0,-0.7562 0.626145,-1.3529 1.382343,-1.3529 z m 5.558787,0 c 0.756199,0 1.382342,0.5967 1.382342,1.3529 0,0.7562 -0.626143,1.3824 -1.382342,1.3824 -0.7562,0 -1.352933,-0.6262 -1.352933,-1.3824 0,-0.7562 0.596733,-1.3529 1.352933,-1.3529 z m -19.617515,1.1176 1.470578,0 c 0.352183,0 0.647055,0.2655 0.647055,0.6177 l 0,0.1176 c 0,0.3522 -0.294872,0.6176 -0.647055,0.6176 l -1.470578,0 c -0.352183,0 -0.617644,-0.2654 -0.617644,-0.6176 l 0,-0.1176 c 0,-0.3522 0.265461,-0.6177 0.617644,-0.6177 z m 6.088194,0 1.470579,0 c 0.352182,0 0.617642,0.2655 0.617642,0.6177 l 0,0.1176 c 0,0.3522 -0.26546,0.6176 -0.617642,0.6176 l -1.470579,0 c -0.352184,0 -0.647054,-0.2654 -0.647054,-0.6176 l 0,-0.1176 c 0,-0.3522 0.29487,-0.6177 0.647054,-0.6177 z m 10.735222,1.3236 c 0.756199,0 1.382343,0.5967 1.382343,1.3529 0,0.7561 -0.626144,1.3823 -1.382343,1.3823 -0.756199,0 -1.352932,-0.6262 -1.352932,-1.3823 0,-0.7562 0.596733,-1.3529 1.352932,-1.3529 z m -19.588104,4.647 c 1.782469,0 3.205861,1.4233 3.205861,3.2058 0,1.7824 -1.423392,3.2353 -3.205861,3.2353 -1.782468,0 -3.235272,-1.4529 -3.235272,-3.2353 0,-1.7825 1.452804,-3.2058 3.235272,-3.2058 z m 12.999913,0 c 1.782469,0 3.235272,1.4233 3.235272,3.2058 0,1.7824 -1.452803,3.2353 -3.235272,3.2353 -1.782469,0 -3.235273,-1.4529 -3.235273,-3.2353 0,-1.7825 1.452804,-3.2058 3.235273,-3.2058 z"
       style="fill:url(#linearGradient3028);fill-opacity:1;stroke:none" />
    <rect
       style="fill:none;stroke:#b4b4b4;stroke-width:0.45552933;stroke-miterlimit:4;stroke-dasharray:none;stroke-opacity:0.58823529"
       id="rect3933"
       width="41.606552"
       height="22.890642"
       x="11.217796"
       y="1008.8879"
       rx="11.445321"
       ry="11.445321" />
  </g>
</svg>
