<?xml version="1.0" encoding="UTF-8" standalone="no"?>
<svg
   xmlns:dc="http://purl.org/dc/elements/1.1/"
   xmlns:cc="http://creativecommons.org/ns#"
   xmlns:rdf="http://www.w3.org/1999/02/22-rdf-syntax-ns#"
   xmlns:svg="http://www.w3.org/2000/svg"
   xmlns="http://www.w3.org/2000/svg"
   xmlns:xlink="http://www.w3.org/1999/xlink"
   xmlns:sodipodi="http://sodipodi.sourceforge.net/DTD/sodipodi-0.dtd"
   xmlns:inkscape="http://www.inkscape.org/namespaces/inkscape"
   height="64"
   width="64"
   version="1.1"
   id="svg2"
   inkscape:version="0.91 r13725"
   sodipodi:docname="planner-prototype.svg">
  <metadata
     id="metadata141">
    <rdf:RDF>
      <cc:Work
         rdf:about="">
        <dc:format>image/svg+xml</dc:format>
        <dc:type
           rdf:resource="http://purl.org/dc/dcmitype/StillImage" />
      </cc:Work>
    </rdf:RDF>
  </metadata>
  <sodipodi:namedview
     pagecolor="#ffffff"
     bordercolor="#666666"
     borderopacity="1"
     objecttolerance="10"
     gridtolerance="10"
     guidetolerance="10"
     inkscape:pageopacity="0"
     inkscape:pageshadow="2"
     inkscape:window-width="1366"
     inkscape:window-height="705"
     id="namedview139"
     showgrid="false"
     inkscape:zoom="2.6074563"
     inkscape:cx="-10.364064"
     inkscape:cy="37.303652"
     inkscape:window-x="0"
     inkscape:window-y="30"
     inkscape:window-maximized="1"
     inkscape:current-layer="svg2" />
  <defs
     id="defs4">
    <linearGradient
       id="p"
       y2="43"
       gradientUnits="userSpaceOnUse"
       x2="24"
       gradientTransform="matrix(1.4324,0,0,1.4363,-2.3784,-2.4708)"
       y1="5"
       x1="24">
      <stop
         stop-color="#fff"
         offset="0"
         id="stop7" />
      <stop
         stop-color="#fff"
         stop-opacity=".23529"
         offset=".063165"
         id="stop9" />
      <stop
         stop-color="#fff"
         stop-opacity=".15686"
         offset=".95056"
         id="stop11" />
      <stop
         stop-color="#fff"
         stop-opacity=".39216"
         offset="1"
         id="stop13" />
    </linearGradient>
    <radialGradient
       id="c"
       gradientUnits="userSpaceOnUse"
       cy="8.4498"
       cx="7.4957"
       gradientTransform="matrix(2.7399e-8,3.2958,-3.4865,-6.072e-8,61.46,-19.382)"
       r="20">
      <stop
         stop-color="#54bfec"
         offset="0"
         id="stop16" />
      <stop
         stop-color="#55c1ec"
         offset=".26238"
         id="stop18" />
      <stop
         stop-color="#3689e6"
         offset=".70495"
         id="stop20" />
      <stop
         stop-color="#2b63a0"
         offset="1"
         id="stop22" />
    </radialGradient>
    <linearGradient
       id="i"
       y2="3.899"
       gradientUnits="userSpaceOnUse"
       x2="24"
       gradientTransform="matrix(1.4103,0,0,1.4103,-1.8462,-1.8462)"
       y1="44"
       x1="24">
      <stop
         stop-color="#1e74bc"
         offset="0"
         id="stop25" />
      <stop
         stop-color="#3fa8ea"
         offset="1"
         id="stop27" />
    </linearGradient>
    <radialGradient
       id="e"
       gradientUnits="userSpaceOnUse"
       cy="43.5"
       cx="4.993"
       gradientTransform="matrix(2.0038 0 0 1.4 27.988 -17.4)"
       r="2.5">
      <stop
         stop-color="#181818"
         offset="0"
         id="stop30" />
      <stop
         stop-color="#181818"
         stop-opacity="0"
         offset="1"
         id="stop32" />
    </radialGradient>
    <radialGradient
       id="d"
       gradientUnits="userSpaceOnUse"
       cy="43.5"
       cx="4.993"
       gradientTransform="matrix(2.0038 0 0 1.4 -20.012 -104.4)"
       r="2.5">
      <stop
         stop-color="#181818"
         offset="0"
         id="stop35" />
      <stop
         stop-color="#181818"
         stop-opacity="0"
         offset="1"
         id="stop37" />
    </radialGradient>
    <linearGradient
       id="q"
       y2="39.999"
       gradientUnits="userSpaceOnUse"
       x2="25.058"
       y1="47.028"
       x1="25.058">
      <stop
         stop-color="#181818"
         stop-opacity="0"
         offset="0"
         id="stop40" />
      <stop
         stop-color="#181818"
         offset=".5"
         id="stop42" />
      <stop
         stop-color="#181818"
         stop-opacity="0"
         offset="1"
         id="stop44" />
    </linearGradient>
    <linearGradient
       id="o"
       y2="26.03"
       gradientUnits="userSpaceOnUse"
       x2="9"
       gradientTransform="matrix(0.85064,-0.85481,1.1461,1.1404,28.452,12.976)"
       y1="29.057"
       x1="9">
      <stop
         stop-color="#ece5a5"
         offset="0"
         id="stop47" />
      <stop
         stop-color="#fcfbf2"
         offset="1"
         id="stop49" />
    </linearGradient>
    <linearGradient
       id="n"
       y2="41.392"
       gradientUnits="userSpaceOnUse"
       x2="9.5221"
       gradientTransform="matrix(0.74712,0.032247,0.032207,0.7462,59.395,8.1406)"
       y1="37.372"
       x1="5.5179">
      <stop
         stop-color="#dbce48"
         offset="0"
         id="stop52" />
      <stop
         stop-color="#c5b625"
         offset="1"
         id="stop54" />
    </linearGradient>
    <linearGradient
       id="m"
       y2="30"
       xlink:href="#b"
       gradientUnits="userSpaceOnUse"
       x2="30.038"
       gradientTransform="matrix(0.85064,-0.85481,1.1461,1.1404,30.229,11.19)"
       y1="24.99"
       x1="30.038" />
    <linearGradient
       id="b">
      <stop
         stop-color="#b1b1b1"
         offset="0"
         id="stop58" />
      <stop
         stop-color="#fff"
         offset=".5"
         id="stop60" />
      <stop
         stop-color="#8f8f8f"
         offset="1"
         id="stop62" />
    </linearGradient>
    <linearGradient
       id="l"
       y2="30"
       xlink:href="#a"
       gradientUnits="userSpaceOnUse"
       x2="30.038"
       gradientTransform="matrix(0.85064,-0.85481,1.1461,1.1404,30.472,10.946)"
       y1="24.99"
       x1="30.038" />
    <linearGradient
       id="a">
      <stop
         stop-color="#565656"
         offset="0"
         id="stop66" />
      <stop
         stop-color="#9a9a9a"
         offset=".5"
         id="stop68" />
      <stop
         stop-color="#545454"
         offset="1"
         id="stop70" />
    </linearGradient>
    <linearGradient
       id="k"
       y2="30"
       xlink:href="#b"
       gradientUnits="userSpaceOnUse"
       x2="30.038"
       gradientTransform="matrix(0.85064,-0.85481,1.1461,1.1404,29.378,12.045)"
       y1="24.99"
       x1="30.038" />
    <linearGradient
       id="j"
       y2="30"
       xlink:href="#a"
       gradientUnits="userSpaceOnUse"
       x2="30.038"
       gradientTransform="matrix(0.85064,-0.85481,1.1461,1.1404,29.622,11.8)"
       y1="24.99"
       x1="30.038" />
    <linearGradient
       id="h"
       y2="30"
       xlink:href="#b"
       gradientUnits="userSpaceOnUse"
       x2="30.038"
       gradientTransform="matrix(0.85064,-0.85481,1.1461,1.1404,28.531,12.896)"
       y1="24.99"
       x1="30.038" />
    <linearGradient
       id="g"
       y2="30"
       xlink:href="#a"
       gradientUnits="userSpaceOnUse"
       x2="30.038"
       gradientTransform="matrix(0.85064,-0.85481,1.1461,1.1404,28.775,12.651)"
       y1="24.99"
       x1="30.038" />
    <linearGradient
       id="f"
       y2="31.211"
       gradientUnits="userSpaceOnUse"
       x2="23.576"
       gradientTransform="matrix(0.87539,-0.87968,0.97933,0.97445,31.983,17.152)"
       y1="25.357"
       x1="23.576">
      <stop
         stop-color="#181818"
         offset="0"
         id="stop77" />
      <stop
         stop-color="#dbdbdb"
         offset=".13483"
         id="stop79" />
      <stop
         stop-color="#a4a4a4"
         offset=".20224"
         id="stop81" />
      <stop
         stop-color="#fff"
         offset=".26966"
         id="stop83" />
      <stop
         stop-color="#8d8d8d"
         offset=".44650"
         id="stop85" />
      <stop
         stop-color="#959595"
         offset=".57114"
         id="stop87" />
      <stop
         stop-color="#cecece"
         offset=".72038"
         id="stop89" />
      <stop
         stop-color="#181818"
         offset="1"
         id="stop91" />
    </linearGradient>
  </defs>
  <g
     id="g4202"
     transform="matrix(0.89285714,0,0,0.89285714,3.9285714,4.4285716)">
    <rect
       id="rect103"
       x="4.5"
       y="4.5"
       width="55"
       ry="3"
       rx="3"
       style="color:#000000;fill:url(#c);stroke:url(#i);stroke-linecap:round;stroke-linejoin:round"
       height="55" />
    <rect
       id="rect105"
       x="5.5"
       y="5.4288001"
       width="53"
       height="53.141998"
       ry="2"
       rx="2"
       style="opacity:0.5;fill:none;stroke:url(#p);stroke-linecap:round;stroke-linejoin:round" />
    <path
       id="path107"
       d="m 11,7 0,4 -4,0 0,1 4,0 0,7 -4,0 0,1 4,0 0,7 -4,0 0,1 4,0 0,7 -4,0 0,1 4,0 0,7 -4,0 0,1 4,0 0,7 -4,0 0,1 4,0 0,5 1,0 0,-5 7,0 0,5 1,0 0,-5 7,0 0,5 1,0 0,-5 7,0 0,5 1,0 0,-5 7,0 0,5 1,0 0,-5 7,0 0,5 1,0 0,-5 5,0 0,-1 -5,0 0,-7 5,0 0,-1 -5,0 0,-7 5,0 0,-1 -5,0 0,-7 5,0 0,-1 -5,0 0,-7 5,0 0,-1 -5,0 0,-7 5,0 0,-1 -5,0 0,-4 -1,0 0,4 -7,0 0,-4 -1,0 0,4 -7,0 0,-4 -1,0 0,4 -7,0 0,-4 -1,0 0,4 -7,0 0,-4 -1,0 0,4 -7,0 0,-4 -1,0 z m 1,5 7,0 0,7 -7,0 0,-7 z m 8,0 7,0 0,7 -7,0 0,-7 z m 8,0 7,0 0,7 -7,0 0,-7 z m 8,0 7,0 0,7 -7,0 0,-7 z m 8,0 7,0 0,7 -7,0 0,-7 z m -32,8 7,0 0,7 -7,0 0,-7 z m 8,0 7,0 0,7 -7,0 0,-7 z m 8,0 7,0 0,7 -7,0 0,-7 z m 8,0 7,0 0,7 -7,0 0,-7 z m 8,0 7,0 0,7 -7,0 0,-7 z m -32,8 7,0 0,7 -7,0 0,-7 z m 8,0 7,0 0,7 -7,0 0,-7 z m 8,0 7,0 0,7 -7,0 0,-7 z m 8,0 7,0 0,7 -7,0 0,-7 z m 8,0 7,0 0,7 -7,0 0,-7 z m -32,8 7,0 0,7 -7,0 0,-7 z m 8,0 7,0 0,7 -7,0 0,-7 z m 8,0 7,0 0,7 -7,0 0,-7 z m 8,0 7,0 0,7 -7,0 0,-7 z m 8,0 7,0 0,7 -7,0 0,-7 z m -32,8 7,0 0,7 -7,0 0,-7 z m 8,0 7,0 0,7 -7,0 0,-7 z m 8,0 7,0 0,7 -7,0 0,-7 z m 8,0 7,0 0,7 -7,0 0,-7 z m 8,0 7,0 0,7 -7,0 0,-7 z"
       inkscape:connector-curvature="0"
       style="opacity:0.2;fill:#ffffff" />
    <path
       id="path109"
       d="M 25.5,11 C 21.908,11 19,13.908 19,17.5 l 0,1.5 0,1 0,23 0,1 0,1.5 c 0,3.592 2.908,6.5 6.5,6.5 l 13,0 c 3.592,0 6.5,-2.908 6.5,-6.5 l 0,-1.5 0,-1 0,-23 0,-1 0,-1.5 C 45,13.908 42.092,11 38.5,11 l -13,0 z m 0,1 13,0 c 3.056,0 5.5,2.444 5.5,5.5 l 0,1.5 -24,0 0,-1.5 C 20,14.444 22.444,12 25.5,12 Z m -5.5,8 24,0 0,23 -24,0 0,-23 z m 0,24 24,0 0,1.5 c 0,3.056 -2.444,5.5 -5.5,5.5 l -13,0 C 22.444,51 20,48.556 20,45.5 L 20,44 Z"
       style="color:#000000;text-indent:0;text-decoration:none;text-decoration-line:none;text-decoration-style:solid;text-decoration-color:#000000;text-transform:none;block-progression:tb;white-space:normal;opacity:0.25;isolation:auto;mix-blend-mode:normal;solid-color:#000000;fill:#ffffff;stroke:#2e8ed3;stroke-width:2;stroke-linecap:round;stroke-linejoin:round;color-rendering:auto;image-rendering:auto;shape-rendering:auto"
       inkscape:connector-curvature="0" />
    <path
       id="path111"
       d="M 25.5,11 C 21.908,11 19,13.908 19,17.5 l 0,1.5 0,1 0,23 0,1 0,1.5 c 0,3.592 2.908,6.5 6.5,6.5 l 13,0 c 3.592,0 6.5,-2.908 6.5,-6.5 l 0,-1.5 0,-1 0,-23 0,-1 0,-1.5 C 45,13.908 42.092,11 38.5,11 l -13,0 z m 0,1 13,0 c 3.056,0 5.5,2.444 5.5,5.5 l 0,1.5 -24,0 0,-1.5 C 20,14.444 22.444,12 25.5,12 Z m -5.5,8 24,0 0,23 -24,0 0,-23 z m 0,24 24,0 0,1.5 c 0,3.056 -2.444,5.5 -5.5,5.5 l -13,0 C 22.444,51 20,48.556 20,45.5 L 20,44 Z"
       style="color:#000000;text-indent:0;text-decoration:none;text-decoration-line:none;text-decoration-style:solid;text-decoration-color:#000000;text-transform:none;block-progression:tb;white-space:normal;isolation:auto;mix-blend-mode:normal;solid-color:#000000;fill:#ffffff;color-rendering:auto;image-rendering:auto;shape-rendering:auto"
       inkscape:connector-curvature="0" />
    <g
       id="g113"
       transform="translate(-33.101,9.8125)">
      <path
         id="path115"
         d="m 84.624,22.594 c -0.231,-0.13598 -0.40974,-0.10061 -0.52782,-0.02495 l -15.728,10.015 -2.8946,1.8484 -0.08912,0.0374 -3.4271,7.7224 8.4932,0.25582 0.0705,-0.04718 2.9132,-1.8386 15.724,-10.101 c 0.47234,-0.30264 -0.27468,-2.3085 -1.6757,-4.5073 -1.0508,-1.6491 -2.1656,-2.9517 -2.8586,-3.3596 z"
         inkscape:connector-curvature="0"
         style="opacity:0.15;fill:#0c0c0c;fill-rule:evenodd" />
      <path
         id="path117"
         d="m 66.578,32.039 c 0.59454,-0.44614 2.2627,0.39074 3.7957,1.9161 1.5293,1.5217 2.3351,3.15 1.8991,3.7504 -0.0016,0.0023 0.03752,0.03339 0.03581,0.03564 l 21.345,-21.451 c 0.54195,-0.54461 -0.3001,-2.2656 -1.8818,-3.8394 -1.5816,-1.5738 -3.3069,-2.4073 -3.8489,-1.8627 l -21.345,21.451 z"
         style="fill:url(#f);stroke:#0c0c0c;stroke-width:0.5;stroke-linejoin:round"
         inkscape:connector-curvature="0" />
      <path
         id="path119"
         d="m 85.318,13.206 c 0.59454,-0.44614 2.2627,0.39074 3.7957,1.9161 1.5293,1.5217 2.3351,3.15 1.8991,3.7504 -0.0016,0.0023 0.03752,0.03338 0.03581,0.03564 l 2.6051,-2.6179 0.05317,-0.05342 c 0.0017,-0.0023 -0.03748,-0.03336 -0.03581,-0.03564 0.43603,-0.60036 -0.36979,-2.2287 -1.8991,-3.7504 -1.533,-1.5254 -3.2012,-2.3622 -3.7957,-1.9161 l -0.05317,0.05342 -2.6051,2.6179 4e-6,0 z"
         inkscape:connector-curvature="0"
         style="opacity:0.8;fill:#ffb6ed;stroke:#e28ccd;stroke-width:0.5;stroke-linejoin:round" />
      <path
         id="path121"
         d="m 66.578,32.039 c 0.59454,-0.44614 2.2627,0.39074 3.7957,1.9161 1.5293,1.5217 2.3351,3.15 1.8991,3.7504 -0.0016,0.0023 0.03752,0.03339 0.03583,0.03564 l 14.7,-14.772 0.05317,-0.05343 c 0.0017,-0.0023 -0.03748,-0.03336 -0.03581,-0.03564 0.43603,-0.60036 -0.36979,-2.2287 -1.8991,-3.7504 -1.533,-1.5254 -3.2012,-2.3622 -3.7957,-1.9161 l -0.05317,0.05342 -14.7,14.772 -7e-6,0 z"
         inkscape:connector-curvature="0"
         style="opacity:0.6;fill:#0c0c0c" />
      <path
         id="path123"
         d="m 82.398,16.14 c 0.59454,-0.44614 2.2627,0.39074 3.7957,1.9161 1.5293,1.5217 2.3351,3.15 1.8991,3.7504 -0.0016,0.0023 0.03752,0.03339 0.03581,0.03564 l 0.266,-0.267 c 0.0017,-0.0023 -0.03748,-0.03336 -0.03581,-0.03564 0.43604,-0.60036 -0.36978,-2.2287 -1.8991,-3.7504 -1.533,-1.5254 -3.2012,-2.3622 -3.7957,-1.9161 l -0.26583,0.26713 0,2e-6 z"
         style="fill:url(#g)"
         inkscape:connector-curvature="0" />
      <path
         id="path125"
         d="m 82.155,16.385 c 0.59454,-0.44614 2.2627,0.39074 3.7957,1.9161 1.5293,1.5217 2.3351,3.15 1.8991,3.7504 -0.0016,0.0023 0.03751,0.03339 0.03581,0.03564 l 0.26582,-0.26713 c 0.0017,-0.0023 -0.03748,-0.03336 -0.03581,-0.03564 0.43604,-0.60036 -0.36978,-2.2287 -1.8991,-3.7504 -1.533,-1.5254 -3.2012,-2.3622 -3.7957,-1.9161 L 82.155,16.385 l 0,10e-7 z"
         style="fill:url(#h)"
         inkscape:connector-curvature="0" />
      <path
         id="path127"
         d="m 83.245,15.29 c 0.59454,-0.44614 2.2627,0.39074 3.7957,1.9161 1.5293,1.5217 2.3351,3.15 1.8991,3.7504 -0.0016,0.0023 0.03751,0.03338 0.03581,0.03564 l 0.26583,-0.26713 c 0.0017,-0.0023 -0.03748,-0.03336 -0.03581,-0.03564 0.43604,-0.60036 -0.36978,-2.2287 -1.8991,-3.7504 -1.533,-1.5254 -3.2012,-2.3622 -3.7957,-1.9161 L 83.24501,15.29 Z"
         style="fill:url(#j)"
         inkscape:connector-curvature="0" />
      <path
         id="path129"
         d="m 83.001,15.535 c 0.59454,-0.44614 2.2627,0.39074 3.7957,1.9161 1.5293,1.5217 2.3351,3.15 1.8991,3.7504 -0.0016,0.0023 0.03752,0.03339 0.03581,0.03564 l 0.26582,-0.26713 c 0.0017,-0.0023 -0.03748,-0.03336 -0.03581,-0.03564 0.43604,-0.60036 -0.36978,-2.2287 -1.8991,-3.7504 -1.533,-1.5254 -3.2012,-2.3622 -3.7957,-1.9161 L 83.00099,15.535 Z"
         style="fill:url(#k)"
         inkscape:connector-curvature="0" />
      <path
         id="path131"
         d="m 84.096,14.435 c 0.59454,-0.44614 2.2627,0.39074 3.7957,1.9161 1.5293,1.5217 2.3351,3.15 1.8991,3.7504 -0.0016,0.0023 0.0375,0.03339 0.03581,0.03564 l 0.26582,-0.26713 c 0.0017,-0.0023 -0.03748,-0.03336 -0.03581,-0.03564 0.43604,-0.60036 -0.36978,-2.2287 -1.8991,-3.7504 -1.533,-1.5254 -3.2012,-2.3622 -3.7957,-1.9161 L 84.096,14.435 l 10e-7,0 z"
         style="fill:url(#l)"
         inkscape:connector-curvature="0" />
      <path
         id="path133"
         d="m 83.852,14.68 c 0.59453,-0.44614 2.2627,0.39074 3.7957,1.9161 1.5293,1.5217 2.3351,3.15 1.8991,3.7504 -0.0016,0.0023 0.03752,0.03339 0.03581,0.03564 l 0.26583,-0.26713 c 0.0017,-0.0023 -0.03748,-0.03336 -0.03581,-0.03564 0.43604,-0.60036 -0.36978,-2.2287 -1.8991,-3.7504 -1.533,-1.5254 -3.2012,-2.3622 -3.7957,-1.9161 L 83.85201,14.68 Z"
         style="fill:url(#m)"
         inkscape:connector-curvature="0" />
      <path
         id="path135"
         d="m 62.487,41.748 9.7113,-3.961 0.08274,-0.08273 c 0.43604,-0.60036 -0.38029,-2.2288 -1.9096,-3.7505 -1.533,-1.5254 -3.1992,-2.3576 -3.7937,-1.9115 l -4.0907,9.7057 -7e-6,0 z"
         style="fill:url(#o);fill-rule:evenodd;stroke:url(#n);stroke-width:0.5"
         inkscape:connector-curvature="0" />
      <path
         id="path137"
         d="m 63.595,39.119 -1.1086,2.6183 2.6487,-1.0859 c -0.212,-0.254 -0.408,-0.512 -0.663,-0.766 -0.293,-0.292 -0.582,-0.529 -0.877,-0.766 z"
         inkscape:connector-curvature="0"
         style="fill:#0c0c0c;fill-rule:evenodd;stroke:#0c0c0c;stroke-width:0.5" />
    </g>
  </g>
</svg>
