<?xml version="1.0" encoding="UTF-8" standalone="no"?>
<svg
   xmlns:dc="http://purl.org/dc/elements/1.1/"
   xmlns:cc="http://creativecommons.org/ns#"
   xmlns:rdf="http://www.w3.org/1999/02/22-rdf-syntax-ns#"
   xmlns:svg="http://www.w3.org/2000/svg"
   xmlns="http://www.w3.org/2000/svg"
   xmlns:xlink="http://www.w3.org/1999/xlink"
   xmlns:sodipodi="http://sodipodi.sourceforge.net/DTD/sodipodi-0.dtd"
   xmlns:inkscape="http://www.inkscape.org/namespaces/inkscape"
   id="svg4031"
   height="48"
   width="48"
   version="1.1"
   inkscape:version="0.91 r13725"
   sodipodi:docname="planner-startup.svg">
  <sodipodi:namedview
     pagecolor="#ffffff"
     bordercolor="#666666"
     borderopacity="1"
     objecttolerance="10"
     gridtolerance="10"
     guidetolerance="10"
     inkscape:pageopacity="0"
     inkscape:pageshadow="2"
     inkscape:window-width="1366"
     inkscape:window-height="705"
     id="namedview54"
     showgrid="true"
     inkscape:zoom="11.313708"
     inkscape:cx="27.899207"
     inkscape:cy="24.626354"
     inkscape:window-x="0"
     inkscape:window-y="30"
     inkscape:window-maximized="1"
     inkscape:current-layer="g4182">
    <inkscape:grid
       type="xygrid"
       id="grid4188"
       empspacing="4" />
    <inkscape:grid
       type="xygrid"
       id="grid4190"
       spacingx="0.5"
       spacingy="0.5"
       color="#ff3fff"
       opacity="0.1254902"
       empcolor="#3fffff"
       empopacity="0.11764706"
       empspacing="2" />
  </sodipodi:namedview>
  <defs
     id="defs4033">
    <linearGradient
       id="linearGradient3820-7-2-1">
      <stop
         offset="0"
         style="stop-color:#3d3d3d;stop-opacity:1"
         id="stop3822-2-6-3" />
      <stop
         offset="0.5"
         style="stop-color:#686868;stop-opacity:0.49803922"
         id="stop3864-8-7-7" />
      <stop
         offset="1"
         style="stop-color:#686868;stop-opacity:0"
         id="stop3824-1-2-5" />
    </linearGradient>
    <radialGradient
       gradientTransform="matrix(0.27083381,0,0,0.08762273,-2.855072,25.187228)"
       gradientUnits="userSpaceOnUse"
       xlink:href="#linearGradient3820-7-2-1"
       id="radialGradient3018"
       fy="186.17059"
       fx="99.157013"
       r="62.769119"
       cy="186.17059"
       cx="99.157013" />
    <linearGradient
       id="linearGradient4011-7">
      <stop
         offset="0"
         style="stop-color:#ffffff;stop-opacity:1"
         id="stop4013-4" />
      <stop
         offset="0.507761"
         style="stop-color:#ffffff;stop-opacity:0.23529412"
         id="stop4015-61" />
      <stop
         offset="0.83456558"
         style="stop-color:#ffffff;stop-opacity:0.15686275"
         id="stop4017-2" />
      <stop
         offset="1"
         style="stop-color:#ffffff;stop-opacity:0.39215687"
         id="stop4019-2" />
    </linearGradient>
    <linearGradient
       id="linearGradient8838-4">
      <stop
         offset="0"
         style="stop-color:#000000;stop-opacity:1"
         id="stop8840-4" />
      <stop
         offset="1"
         style="stop-color:#000000;stop-opacity:0"
         id="stop8842-8" />
    </linearGradient>
    <linearGradient
       gradientTransform="matrix(0.5135135,0,0,0.5135135,-0.836132,22.978716)"
       gradientUnits="userSpaceOnUse"
       xlink:href="#linearGradient4011-7"
       id="linearGradient3741"
       y2="42.883553"
       x2="71.204407"
       y1="7.8309216"
       x1="71.204407" />
    <radialGradient
       gradientTransform="matrix(1.1294118,0,0,0.2823525,-34.729414,43.694118)"
       gradientUnits="userSpaceOnUse"
       xlink:href="#linearGradient8838-4"
       id="radialGradient3748"
       fy="4.625"
       fx="62.625"
       r="10.625"
       cy="4.625"
       cx="62.625" />
    <linearGradient
       id="linearGradient4632-92-3-0-8-1-6-6">
      <stop
         offset="0"
         style="stop-color:#fafafa;stop-opacity:1"
         id="stop4634-68-8-0-2-9-1-1" />
      <stop
         offset="1"
         style="stop-color:#e1e1e1;stop-opacity:1"
         id="stop4636-8-21-7-1-4-9-4" />
    </linearGradient>
    <radialGradient
       xlink:href="#linearGradient4632-92-3-0-8-1-6-6"
       id="radialGradient3398"
       gradientUnits="userSpaceOnUse"
       gradientTransform="matrix(0,1.2189437,-1.289497,-3.3177771e-8,46.896006,18.350992)"
       cx="6.2751122"
       cy="8.4497671"
       fx="6.2751122"
       fy="8.4497671"
       r="19.99999" />
    <linearGradient
       xlink:href="#linearGradient3104-8-8-97-4-6-2-0-1-4-0-5-8-3-9-1"
       id="linearGradient4200-6"
       gradientUnits="userSpaceOnUse"
       gradientTransform="matrix(0.80749834,0,0,0.83374395,113.01159,-2.35899)"
       x1="-95.837799"
       y1="54.199703"
       x2="-95.837799"
       y2="5.1757793" />
    <linearGradient
       id="linearGradient3104-8-8-97-4-6-2-0-1-4-0-5-8-3-9-1">
      <stop
         offset="0"
         style="stop-color:#000000;stop-opacity:0.32173914"
         id="stop3106-5-4-3-5-0-1-61-9-2-7-3-3-2-6-9" />
      <stop
         offset="1"
         style="stop-color:#000000;stop-opacity:0.27826086"
         id="stop3108-4-3-7-8-2-4-01-9-9-0-6-4-3-7-7" />
    </linearGradient>
    <linearGradient
       id="linearGradient2867-449-88-871-390-598-476-591-434-148-57-177-3-8-8">
      <stop
         id="stop3750-8-9-0"
         style="stop-color:#95a3ab;stop-opacity:1"
         offset="0" />
      <stop
         id="stop3752-3-2-2"
         style="stop-color:#667885;stop-opacity:1"
         offset="0.26238" />
      <stop
         id="stop3754-7-2-2"
         style="stop-color:#485a6c;stop-opacity:1"
         offset="0.704952" />
      <stop
         id="stop3756-9-3-05"
         style="stop-color:#273445;stop-opacity:1"
         offset="1" />
    </linearGradient>
    <linearGradient
       id="linearGradient4011-8">
      <stop
         id="stop4013-9"
         style="stop-color:#ffffff;stop-opacity:1"
         offset="0" />
      <stop
         id="stop4015-2"
         style="stop-color:#ffffff;stop-opacity:0.23529412"
         offset="0.507761" />
      <stop
         id="stop4017-28"
         style="stop-color:#ffffff;stop-opacity:0.15686275"
         offset="0.83456558" />
      <stop
         id="stop4019-23"
         style="stop-color:#ffffff;stop-opacity:0.39215687"
         offset="1" />
    </linearGradient>
    <linearGradient
       y2="44.340794"
       x2="71.204407"
       y1="6.2375584"
       x1="71.204407"
       gradientTransform="matrix(1.054054,0,0,1.054054,-51.611004,-2.7279013)"
       gradientUnits="userSpaceOnUse"
       id="linearGradient3540"
       xlink:href="#linearGradient4011-8" />
    <radialGradient
       r="19.99999"
       fy="8.4497671"
       fx="1.1978998"
       cy="8.4497671"
       cx="1.1978998"
       gradientTransform="matrix(0,5.0000024,-5.2894057,-1.3609237e-7,68.694364,-17.989501)"
       gradientUnits="userSpaceOnUse"
       id="radialGradient3543"
       xlink:href="#linearGradient2867-449-88-871-390-598-476-591-434-148-57-177-3-8-8" />
  </defs>
  <metadata
     id="metadata4036">
    <rdf:RDF>
      <cc:Work
         rdf:about="">
        <dc:format>image/svg+xml</dc:format>
        <dc:type
           rdf:resource="http://purl.org/dc/dcmitype/StillImage" />
        <dc:title />
      </cc:Work>
    </rdf:RDF>
  </metadata>
  <g
     id="g4182">
    <path
       d="m 40.999999,41.499999 a 17,5.4999999 0 1 1 -33.999999,0 17,5.4999999 0 1 1 33.999999,0 z"
       id="path3818-0-5"
       style="fill:url(#radialGradient3018);fill-opacity:1;stroke:none" />
    <path
       d="M 24.000003,3.4999978 C 12.68881,3.4999978 3.5,12.688804 3.5,23.999998 3.5,35.311192 12.68881,44.500003 24.000003,44.5 35.311191,44.5 44.500011,35.311192 44.5,23.999998 44.5,12.688804 35.311191,3.4999978 24.000003,3.4999978 z"
       id="path2555"
       style="color:#000000;fill:#8cd5ff;fill-opacity:1;fill-rule:nonzero;stroke:none;stroke-width:1;marker:none;visibility:visible;display:inline;overflow:visible;enable-background:accumulate" />
    <path
       inkscape:connector-curvature="0"
       style="fill:none;fill-opacity:1;opacity:0.07;stroke:#000000;stroke-opacity:1"
       d="m 32.582656,37.797 -17.41531,0 c -0.713255,0 -1.277915,-0.56466 -1.277915,-1.277914 l 0,-22.437814 c 0,-0.713254 0.56466,-1.277914 1.277915,-1.277914 l 17.41531,0 c 0.713255,0 1.277915,0.56466 1.277915,1.277914 l 0,22.467533 c 0,0.683535 -0.56466,1.248195 -1.277915,1.248195 z"
       id="path4232" />
    <path
       id="path4230"
       d="m 32.582656,37.797 -17.41531,0 c -0.713255,0 -1.277915,-0.56466 -1.277915,-1.277914 l 0,-22.437814 c 0,-0.713254 0.56466,-1.277914 1.277915,-1.277914 l 17.41531,0 c 0.713255,0 1.277915,0.56466 1.277915,1.277914 l 0,22.467533 c 0,0.683535 -0.56466,1.248195 -1.277915,1.248195 z"
       style="fill:#000000;fill-opacity:1;opacity:0.15"
       inkscape:connector-curvature="0" />
    <path
       d="m 43.5,23.999308 c 0,10.7699 -8.73109,19.50069 -19.499753,19.50069 C 13.230598,43.499998 4.5,34.769109 4.5,23.999308 4.5,13.229906 13.230598,4.4999998 24.000247,4.4999998 34.76891,4.4999998 43.5,13.229906 43.5,23.999308 l 0,0 z"
       id="path8655-4"
       style="opacity:0.3;color:#000000;fill:none;stroke:url(#linearGradient3540);stroke-width:1;stroke-linecap:round;stroke-linejoin:round;stroke-miterlimit:4;stroke-opacity:1;stroke-dasharray:none;stroke-dashoffset:0;marker:none;visibility:visible;display:inline;overflow:visible;enable-background:accumulate" />
    <path
       d="M 24.000003,3.4999976 C 12.68881,3.4999976 3.5,12.688804 3.5,23.999998 3.5,35.311192 12.68881,44.500003 24.000003,44.5 35.311191,44.5 44.500011,35.311192 44.5,23.999998 44.5,12.688804 35.311191,3.4999976 24.000003,3.4999976 z"
       id="path2555-6-0"
       style="opacity:0.5;color:#000000;fill:#000000;fill-opacity:0;fill-rule:nonzero;stroke:#0e141f;stroke-width:1;stroke-linecap:round;stroke-linejoin:round;stroke-miterlimit:4;stroke-opacity:1;stroke-dasharray:none;stroke-dashoffset:0;marker:none;visibility:visible;display:inline;overflow:visible;enable-background:accumulate" />
    <path
       inkscape:connector-curvature="0"
       style="fill:#ffffff"
       d="m 32.582656,36.796821 -17.41531,0 c -0.713255,0 -1.277915,-0.56466 -1.277915,-1.277914 l 0,-22.437814 c 0,-0.713254 0.56466,-1.277914 1.277915,-1.277914 l 17.41531,0 c 0.713255,0 1.277915,0.56466 1.277915,1.277914 l 0,22.467533 c 0,0.683535 -0.56466,1.248195 -1.277915,1.248195 z"
       id="path5" />
    <path
       inkscape:connector-curvature="0"
       style="fill:#ff7058"
       d="m 33.860571,15.785519 0,-2.704426 c 0,-0.683535 -0.56466,-1.248195 -1.248198,-1.248195 l -17.474746,0 c -0.683536,0 -1.248196,0.56466 -1.248196,1.248195 l 0,2.704426 c 0,0 19.97114,0 19.97114,0 z"
       id="path7" />
    <g
       transform="matrix(0.07429738,0,0,0.07429738,5.0034625,5.4433223)"
       id="g9">
      <circle
         style="fill:#ffffff"
         cx="358.79999"
         cy="112.4"
         r="12"
         id="circle11" />
      <circle
         style="fill:#ffffff"
         cx="148.86192"
         cy="112.4"
         r="12"
         id="circle15" />
    </g>
    <g
       transform="matrix(0.07429738,0,0,0.07429738,5.0034625,5.4433223)"
       id="g17">
      <path
         inkscape:connector-curvature="0"
         style="fill:#4cdbc4"
         d="m 208.4,235.6 -57.2,0 c -2.4,0 -4,-2 -4,-4 l 0,-57.6 c 0,-2.4 2,-4 4,-4 l 57.2,0 c 2.4,0 4,2 4,4 l 0,57.2 c 0,2.4 -1.6,4.4 -4,4.4 z m -53.2,-8.4 48.8,0 0,-48.8 -48.8,0 0,48.8 z"
         id="path19" />
      <path
         inkscape:connector-curvature="0"
         style="fill:#4cdbc4"
         d="m 208.4,325.6 -57.2,0 c -2.4,0 -4,-2 -4,-4 l 0,-57.2 c 0,-2.4 2,-4 4,-4 l 57.2,0 c 2.4,0 4,2 4,4 l 0,57.2 c 0,2.4 -1.6,4 -4,4 z m -53.2,-8.4 48.8,0 0,-48.8 -48.8,0 0,48.8 z"
         id="path21" />
    </g>
    <g
       transform="matrix(0.07429738,0,0,0.07429738,5.0034625,5.4433223)"
       id="g23">
      <rect
         x="234"
         y="170"
         style="fill:#e6e9ee"
         width="127.2"
         height="7.5999999"
         id="rect25" />
      <rect
         x="234"
         y="187.2"
         style="fill:#e6e9ee"
         width="127.2"
         height="7.5999999"
         id="rect27" />
      <rect
         x="234"
         y="204.8"
         style="fill:#e6e9ee"
         width="127.2"
         height="7.5999999"
         id="rect29" />
      <rect
         x="234"
         y="222.39999"
         style="fill:#e6e9ee"
         width="71.199997"
         height="7.5999999"
         id="rect31" />
      <rect
         x="234"
         y="260"
         style="fill:#e6e9ee"
         width="127.2"
         height="7.5999999"
         id="rect33" />
      <rect
         x="234"
         y="277.60001"
         style="fill:#e6e9ee"
         width="127.2"
         height="7.5999999"
         id="rect35" />
      <rect
         x="234"
         y="294.79999"
         style="fill:#e6e9ee"
         width="127.2"
         height="7.5999999"
         id="rect37" />
      <rect
         x="234"
         y="312.39999"
         style="fill:#e6e9ee"
         width="71.199997"
         height="7.5999999"
         id="rect39" />
    </g>
    <g
       transform="matrix(0.07429738,0,0,0.07429738,5.0034625,5.4433223)"
       id="g41">
      <path
         inkscape:connector-curvature="0"
         style="fill:#324a5e"
         d="m 172.4,218 c -0.8,0 -1.6,-0.8 -2.4,-1.6 l -7.6,-10 c -1.2,-1.6 -1.2,-4.4 0.8,-5.6 1.6,-1.2 4.4,-1.2 5.6,0.8 l 4.4,5.6 14.4,-21.2 c 1.2,-2 3.6,-2.4 5.6,-1.2 2,1.2 2.4,3.6 1.2,5.6 l -17.6,26 c -0.8,1.2 -2,1.6 -3.2,1.6 -0.4,0 -0.8,0 -1.2,0 z"
         id="path43" />
      <path
         inkscape:connector-curvature="0"
         style="fill:#324a5e"
         d="m 172.4,309.6 c -0.8,0 -1.6,-0.8 -2.4,-1.6 l -7.6,-10 c -1.2,-1.6 -1.2,-4.4 0.8,-5.6 1.6,-1.2 4.4,-1.2 5.6,0.8 l 4.4,5.6 14.4,-21.2 c 1.2,-2 3.6,-2.4 5.6,-1.2 2,1.2 2.4,3.6 1.2,5.6 l -17.6,26 c -0.8,1.2 -2,1.6 -3.2,1.6 -0.4,0.4 -0.8,0 -1.2,0 z"
         id="path45" />
    </g>
  </g>
</svg>
