<?xml version="1.0" encoding="UTF-8" standalone="no"?>
<svg
   xmlns:dc="http://purl.org/dc/elements/1.1/"
   xmlns:cc="http://creativecommons.org/ns#"
   xmlns:rdf="http://www.w3.org/1999/02/22-rdf-syntax-ns#"
   xmlns:svg="http://www.w3.org/2000/svg"
   xmlns="http://www.w3.org/2000/svg"
   xmlns:xlink="http://www.w3.org/1999/xlink"
   xmlns:sodipodi="http://sodipodi.sourceforge.net/DTD/sodipodi-0.dtd"
   xmlns:inkscape="http://www.inkscape.org/namespaces/inkscape"
   id="svg4031"
   height="64"
   width="64"
   version="1.1"
   inkscape:version="0.91 r13725"
   sodipodi:docname="planner-pen.svg">
  <sodipodi:namedview
     pagecolor="#ffffff"
     bordercolor="#666666"
     borderopacity="1"
     objecttolerance="10"
     gridtolerance="10"
     guidetolerance="10"
     inkscape:pageopacity="0"
     inkscape:pageshadow="2"
     inkscape:window-width="1366"
     inkscape:window-height="705"
     id="namedview54"
     showgrid="true"
     inkscape:zoom="4"
     inkscape:cx="-2.0185003"
     inkscape:cy="36.939377"
     inkscape:window-x="0"
     inkscape:window-y="30"
     inkscape:window-maximized="1"
     inkscape:current-layer="g4182">
    <inkscape:grid
       type="xygrid"
       id="grid4188"
       empspacing="4" />
    <inkscape:grid
       type="xygrid"
       id="grid4190"
       spacingx="0.5"
       spacingy="0.5"
       color="#ff3fff"
       opacity="0.1254902"
       empcolor="#3fffff"
       empopacity="0.11764706"
       empspacing="2" />
  </sodipodi:namedview>
  <defs
     id="defs4033">
    <linearGradient
       id="linearGradient3820-7-2-1">
      <stop
         offset="0"
         style="stop-color:#3d3d3d;stop-opacity:1"
         id="stop3822-2-6-3" />
      <stop
         offset="0.5"
         style="stop-color:#686868;stop-opacity:0.49803922"
         id="stop3864-8-7-7" />
      <stop
         offset="1"
         style="stop-color:#686868;stop-opacity:0"
         id="stop3824-1-2-5" />
    </linearGradient>
    <radialGradient
       gradientTransform="matrix(0.27083381,0,0,0.08762273,-2.855072,25.187228)"
       gradientUnits="userSpaceOnUse"
       xlink:href="#linearGradient3820-7-2-1"
       id="radialGradient3018"
       fy="186.17059"
       fx="99.157013"
       r="62.769119"
       cy="186.17059"
       cx="99.157013" />
    <linearGradient
       id="linearGradient4011-7">
      <stop
         offset="0"
         style="stop-color:#ffffff;stop-opacity:1"
         id="stop4013-4" />
      <stop
         offset="0.507761"
         style="stop-color:#ffffff;stop-opacity:0.23529412"
         id="stop4015-61" />
      <stop
         offset="0.83456558"
         style="stop-color:#ffffff;stop-opacity:0.15686275"
         id="stop4017-2" />
      <stop
         offset="1"
         style="stop-color:#ffffff;stop-opacity:0.39215687"
         id="stop4019-2" />
    </linearGradient>
    <linearGradient
       id="linearGradient8838-4">
      <stop
         offset="0"
         style="stop-color:#000000;stop-opacity:1"
         id="stop8840-4" />
      <stop
         offset="1"
         style="stop-color:#000000;stop-opacity:0"
         id="stop8842-8" />
    </linearGradient>
    <linearGradient
       gradientTransform="matrix(0.5135135,0,0,0.5135135,-0.836132,22.978716)"
       gradientUnits="userSpaceOnUse"
       xlink:href="#linearGradient4011-7"
       id="linearGradient3741"
       y2="42.883553"
       x2="71.204407"
       y1="7.8309216"
       x1="71.204407" />
    <radialGradient
       gradientTransform="matrix(1.1294118,0,0,0.2823525,-34.729414,43.694118)"
       gradientUnits="userSpaceOnUse"
       xlink:href="#linearGradient8838-4"
       id="radialGradient3748"
       fy="4.625"
       fx="62.625"
       r="10.625"
       cy="4.625"
       cx="62.625" />
    <linearGradient
       id="linearGradient4632-92-3-0-8-1-6-6">
      <stop
         offset="0"
         style="stop-color:#fafafa;stop-opacity:1"
         id="stop4634-68-8-0-2-9-1-1" />
      <stop
         offset="1"
         style="stop-color:#e1e1e1;stop-opacity:1"
         id="stop4636-8-21-7-1-4-9-4" />
    </linearGradient>
    <radialGradient
       xlink:href="#linearGradient4632-92-3-0-8-1-6-6"
       id="radialGradient3398"
       gradientUnits="userSpaceOnUse"
       gradientTransform="matrix(0,1.2189437,-1.289497,-3.3177771e-8,46.896006,18.350992)"
       cx="6.2751122"
       cy="8.4497671"
       fx="6.2751122"
       fy="8.4497671"
       r="19.99999" />
    <linearGradient
       xlink:href="#linearGradient3104-8-8-97-4-6-2-0-1-4-0-5-8-3-9-1"
       id="linearGradient4200-6"
       gradientUnits="userSpaceOnUse"
       gradientTransform="matrix(0.80749834,0,0,0.83374395,113.01159,-2.35899)"
       x1="-95.837799"
       y1="54.199703"
       x2="-95.837799"
       y2="5.1757793" />
    <linearGradient
       id="linearGradient3104-8-8-97-4-6-2-0-1-4-0-5-8-3-9-1">
      <stop
         offset="0"
         style="stop-color:#000000;stop-opacity:0.32173914"
         id="stop3106-5-4-3-5-0-1-61-9-2-7-3-3-2-6-9" />
      <stop
         offset="1"
         style="stop-color:#000000;stop-opacity:0.27826086"
         id="stop3108-4-3-7-8-2-4-01-9-9-0-6-4-3-7-7" />
    </linearGradient>
    <linearGradient
       id="linearGradient2867-449-88-871-390-598-476-591-434-148-57-177-3-8-8">
      <stop
         id="stop3750-8-9-0"
         style="stop-color:#95a3ab;stop-opacity:1"
         offset="0" />
      <stop
         id="stop3752-3-2-2"
         style="stop-color:#667885;stop-opacity:1"
         offset="0.26238" />
      <stop
         id="stop3754-7-2-2"
         style="stop-color:#485a6c;stop-opacity:1"
         offset="0.704952" />
      <stop
         id="stop3756-9-3-05"
         style="stop-color:#273445;stop-opacity:1"
         offset="1" />
    </linearGradient>
    <linearGradient
       id="linearGradient4011-8">
      <stop
         id="stop4013-9"
         style="stop-color:#ffffff;stop-opacity:1"
         offset="0" />
      <stop
         id="stop4015-2"
         style="stop-color:#ffffff;stop-opacity:0.23529412"
         offset="0.507761" />
      <stop
         id="stop4017-28"
         style="stop-color:#ffffff;stop-opacity:0.15686275"
         offset="0.83456558" />
      <stop
         id="stop4019-23"
         style="stop-color:#ffffff;stop-opacity:0.39215687"
         offset="1" />
    </linearGradient>
    <linearGradient
       y2="44.340794"
       x2="71.204407"
       y1="6.2375584"
       x1="71.204407"
       gradientTransform="matrix(1.4054053,0,0,1.4054053,-68.814672,-19.637202)"
       gradientUnits="userSpaceOnUse"
       id="linearGradient3540"
       xlink:href="#linearGradient4011-8" />
    <radialGradient
       r="19.99999"
       fy="8.4497671"
       fx="1.1978998"
       cy="8.4497671"
       cx="1.1978998"
       gradientTransform="matrix(0,5.0000024,-5.2894057,-1.3609237e-7,68.694364,-17.989501)"
       gradientUnits="userSpaceOnUse"
       id="radialGradient3543"
       xlink:href="#linearGradient2867-449-88-871-390-598-476-591-434-148-57-177-3-8-8" />
  </defs>
  <metadata
     id="metadata4036">
    <rdf:RDF>
      <cc:Work
         rdf:about="">
        <dc:format>image/svg+xml</dc:format>
        <dc:type
           rdf:resource="http://purl.org/dc/dcmitype/StillImage" />
        <dc:title />
      </cc:Work>
    </rdf:RDF>
  </metadata>
  <g
     id="g4182"
     transform="translate(0,16)">
    <path
       d="m 32.000004,-11.333336 c -15.08159,0 -27.3333373,12.25174151 -27.3333373,27.333334 0,15.081591 12.2517473,27.333339 27.3333373,27.333335 15.081584,0 27.333344,-12.251744 27.333329,-27.333335 0,-15.08159249 -12.251745,-27.333334 -27.333329,-27.333334 z"
       id="path2555"
       style="color:#000000;display:inline;overflow:visible;visibility:visible;fill:#c6262e;fill-opacity:1;fill-rule:nonzero;stroke:none;stroke-width:1;marker:none;enable-background:accumulate"
       inkscape:connector-curvature="0" />
    <path
       d="M 58,15.999077 C 58,30.358944 46.358547,41.999997 32.00033,41.999997 17.640797,41.999997 6,30.358812 6,15.999077 6,1.6398749 17.640797,-10 32.00033,-10 46.358547,-10 58,1.6398749 58,15.999077 l 0,0 z"
       id="path8655-4"
       style="color:#000000;display:inline;overflow:visible;visibility:visible;opacity:0.3;fill:none;stroke:url(#linearGradient3540);stroke-width:1.33333337;stroke-linecap:round;stroke-linejoin:round;stroke-miterlimit:4;stroke-dasharray:none;stroke-dashoffset:0;stroke-opacity:1;marker:none;enable-background:accumulate"
       inkscape:connector-curvature="0" />
    <path
       d="m 32.000004,-11.333336 c -15.08159,0 -27.3333373,12.25174151 -27.3333373,27.333334 0,15.081591 12.2517473,27.333339 27.3333373,27.333335 15.081584,0 27.333344,-12.251744 27.333329,-27.333335 0,-15.08159249 -12.251745,-27.333334 -27.333329,-27.333334 z"
       id="path2555-6-0"
       style="color:#000000;display:inline;overflow:visible;visibility:visible;opacity:0.5;fill:#000000;fill-opacity:0;fill-rule:nonzero;stroke:#0e141f;stroke-width:1.33333337;stroke-linecap:round;stroke-linejoin:round;stroke-miterlimit:4;stroke-dasharray:none;stroke-dashoffset:0;stroke-opacity:1;marker:none;enable-background:accumulate"
       inkscape:connector-curvature="0" />
    <path
       style="opacity:0.15;fill:#000000;fill-opacity:1"
       d="M 44.926513,4.2840002 26.640504,8.4744763 24.418929,18.157699 23.907016,17.645793 c -0.123813,-0.123813 -0.314253,-0.123813 -0.438065,0 l -2.466744,2.466704 c -0.123813,0.123814 -0.123813,0.314249 0,0.438058 l 8.781207,8.781065 c 0.123813,0.123813 0.314252,0.123813 0.438063,0 l 2.466744,-2.466704 c 0.123814,-0.123813 0.123814,-0.31425 0,-0.438059 L 32.157334,25.89598 41.840712,23.674439 46.050229,5.3887255 39.535801,11.903047 c 0.609534,1.085716 0.447627,2.495277 -0.476198,3.419085 -1.114304,1.114287 -2.933342,1.114287 -4.057169,0 -1.114305,-1.114287 -1.114305,-2.933483 0,-4.057291 0.923822,-0.923809 2.323882,-1.085714 3.41914,-0.476191 l 6.504939,-6.5046498 z m -23.171876,17.0284608 -5.70489,3.74293 9.228757,9.228609 3.742991,-5.704798 -7.266858,-7.266741 z"
       id="path4186"
       inkscape:connector-curvature="0" />
    <path
       style="fill:#ffffff"
       d="m 29.783337,27.997756 -8.781093,-8.781094 c -0.123814,-0.123799 -0.123814,-0.314292 0,-0.438102 l 2.466707,-2.466707 c 0.123813,-0.123813 0.314291,-0.123813 0.438102,0 l 8.781094,8.781094 c 0.123813,0.123813 0.123813,0.31429 0,0.438103 l -2.466707,2.466706 c -0.123813,0.123814 -0.314291,0.123814 -0.438103,0 z"
       id="path5"
       inkscape:connector-curvature="0" />
    <path
       inkscape:connector-curvature="0"
       id="path4178"
       d="M 44.926513,4.2840002 26.640504,8.4744763 24.418929,18.157699 23.907016,17.645793 c -0.123813,-0.123813 -0.314253,-0.123813 -0.438065,0 l -2.466744,2.466704 c -0.123813,0.123814 -0.123813,0.314249 0,0.438058 l 8.781207,8.781065 c 0.123813,0.123813 0.314252,0.123813 0.438063,0 l 2.466744,-2.466704 c 0.123814,-0.123813 0.123814,-0.31425 0,-0.438059 L 32.157334,25.89598 41.840712,23.674439 46.050229,5.3887255 39.535801,11.903047 c 0.609534,1.085716 0.447627,2.495277 -0.476198,3.419085 -1.114304,1.114287 -2.933342,1.114287 -4.057169,0 -1.114305,-1.114287 -1.114305,-2.933483 0,-4.057291 0.923822,-0.923809 2.323882,-1.085714 3.41914,-0.476191 l 6.504939,-6.5046498 z m -23.171876,17.0284608 -5.70489,3.74293 9.228757,9.228609 3.742991,-5.704798 -7.266858,-7.266741 z"
       style="opacity:0.07000002;fill:none;fill-opacity:1;stroke:#000000;stroke-width:1.33333337;stroke-opacity:1" />
    <polygon
       style="fill:#2b3b4e"
       points="146.5,281.2 222.8,357.5 183.5,417.4 86.6,320.5 "
       id="polygon7"
       transform="matrix(0.09523963,0,0,0.09523963,7.8020323,-6.8028049)" />
    <path
       style="fill:#f9c440;fill-opacity:1"
       d="m 46.050267,4.0545135 -6.514391,6.5143895 c 0.609533,1.085733 0.447627,2.495279 -0.476199,3.419104 -1.114302,1.114302 -2.93338,1.114302 -4.057207,0 -1.114303,-1.114304 -1.114303,-2.933382 0,-4.0572077 0.923825,-0.923826 2.323846,-1.085732 3.419104,-0.476198 l 6.504865,-6.5048678 -18.286007,4.1905438 -2.22861,9.7144417 7.714411,7.71441 9.714442,-2.228608 4.209592,-18.2860075 z"
       id="path9"
       inkscape:connector-curvature="0" />
  </g>
</svg>
