<?xml version="1.0" encoding="UTF-8" standalone="no"?>
<svg
   xmlns:dc="http://purl.org/dc/elements/1.1/"
   xmlns:cc="http://creativecommons.org/ns#"
   xmlns:rdf="http://www.w3.org/1999/02/22-rdf-syntax-ns#"
   xmlns:svg="http://www.w3.org/2000/svg"
   xmlns="http://www.w3.org/2000/svg"
   xmlns:xlink="http://www.w3.org/1999/xlink"
   xmlns:sodipodi="http://sodipodi.sourceforge.net/DTD/sodipodi-0.dtd"
   xmlns:inkscape="http://www.inkscape.org/namespaces/inkscape"
   id="svg4031"
   height="48"
   width="48"
   version="1.1"
   inkscape:version="0.91 r13725"
   sodipodi:docname="planner-startup.svg">
  <sodipodi:namedview
     pagecolor="#ffffff"
     bordercolor="#666666"
     borderopacity="1"
     objecttolerance="10"
     gridtolerance="10"
     guidetolerance="10"
     inkscape:pageopacity="0"
     inkscape:pageshadow="2"
     inkscape:window-width="1366"
     inkscape:window-height="705"
     id="namedview54"
     showgrid="true"
     inkscape:zoom="7.9999995"
     inkscape:cx="25.401998"
     inkscape:cy="25.579183"
     inkscape:window-x="0"
     inkscape:window-y="30"
     inkscape:window-maximized="1"
     inkscape:current-layer="g4182">
    <inkscape:grid
       type="xygrid"
       id="grid4188"
       empspacing="4" />
    <inkscape:grid
       type="xygrid"
       id="grid4190"
       spacingx="0.5"
       spacingy="0.5"
       color="#ff3fff"
       opacity="0.1254902"
       empcolor="#3fffff"
       empopacity="0.11764706"
       empspacing="2" />
  </sodipodi:namedview>
  <defs
     id="defs4033">
    <linearGradient
       id="linearGradient3820-7-2-1">
      <stop
         offset="0"
         style="stop-color:#3d3d3d;stop-opacity:1"
         id="stop3822-2-6-3" />
      <stop
         offset="0.5"
         style="stop-color:#686868;stop-opacity:0.49803922"
         id="stop3864-8-7-7" />
      <stop
         offset="1"
         style="stop-color:#686868;stop-opacity:0"
         id="stop3824-1-2-5" />
    </linearGradient>
    <radialGradient
       gradientTransform="matrix(0.27083381,0,0,0.08762273,-2.855072,25.187228)"
       gradientUnits="userSpaceOnUse"
       xlink:href="#linearGradient3820-7-2-1"
       id="radialGradient3018"
       fy="186.17059"
       fx="99.157013"
       r="62.769119"
       cy="186.17059"
       cx="99.157013" />
    <linearGradient
       id="linearGradient4011-7">
      <stop
         offset="0"
         style="stop-color:#ffffff;stop-opacity:1"
         id="stop4013-4" />
      <stop
         offset="0.507761"
         style="stop-color:#ffffff;stop-opacity:0.23529412"
         id="stop4015-61" />
      <stop
         offset="0.83456558"
         style="stop-color:#ffffff;stop-opacity:0.15686275"
         id="stop4017-2" />
      <stop
         offset="1"
         style="stop-color:#ffffff;stop-opacity:0.39215687"
         id="stop4019-2" />
    </linearGradient>
    <linearGradient
       id="linearGradient8838-4">
      <stop
         offset="0"
         style="stop-color:#000000;stop-opacity:1"
         id="stop8840-4" />
      <stop
         offset="1"
         style="stop-color:#000000;stop-opacity:0"
         id="stop8842-8" />
    </linearGradient>
    <linearGradient
       gradientTransform="matrix(0.5135135,0,0,0.5135135,-0.836132,22.978716)"
       gradientUnits="userSpaceOnUse"
       xlink:href="#linearGradient4011-7"
       id="linearGradient3741"
       y2="42.883553"
       x2="71.204407"
       y1="7.8309216"
       x1="71.204407" />
    <radialGradient
       gradientTransform="matrix(1.1294118,0,0,0.2823525,-34.729414,43.694118)"
       gradientUnits="userSpaceOnUse"
       xlink:href="#linearGradient8838-4"
       id="radialGradient3748"
       fy="4.625"
       fx="62.625"
       r="10.625"
       cy="4.625"
       cx="62.625" />
    <linearGradient
       id="linearGradient4632-92-3-0-8-1-6-6">
      <stop
         offset="0"
         style="stop-color:#fafafa;stop-opacity:1"
         id="stop4634-68-8-0-2-9-1-1" />
      <stop
         offset="1"
         style="stop-color:#e1e1e1;stop-opacity:1"
         id="stop4636-8-21-7-1-4-9-4" />
    </linearGradient>
    <radialGradient
       xlink:href="#linearGradient4632-92-3-0-8-1-6-6"
       id="radialGradient3398"
       gradientUnits="userSpaceOnUse"
       gradientTransform="matrix(0,1.2189437,-1.289497,-3.3177771e-8,46.896006,18.350992)"
       cx="6.2751122"
       cy="8.4497671"
       fx="6.2751122"
       fy="8.4497671"
       r="19.99999" />
    <linearGradient
       xlink:href="#linearGradient3104-8-8-97-4-6-2-0-1-4-0-5-8-3-9-1"
       id="linearGradient4200-6"
       gradientUnits="userSpaceOnUse"
       gradientTransform="matrix(0.80749834,0,0,0.83374395,113.01159,-2.35899)"
       x1="-95.837799"
       y1="54.199703"
       x2="-95.837799"
       y2="5.1757793" />
    <linearGradient
       id="linearGradient3104-8-8-97-4-6-2-0-1-4-0-5-8-3-9-1">
      <stop
         offset="0"
         style="stop-color:#000000;stop-opacity:0.32173914"
         id="stop3106-5-4-3-5-0-1-61-9-2-7-3-3-2-6-9" />
      <stop
         offset="1"
         style="stop-color:#000000;stop-opacity:0.27826086"
         id="stop3108-4-3-7-8-2-4-01-9-9-0-6-4-3-7-7" />
    </linearGradient>
    <linearGradient
       id="linearGradient2867-449-88-871-390-598-476-591-434-148-57-177-3-8-8">
      <stop
         id="stop3750-8-9-0"
         style="stop-color:#95a3ab;stop-opacity:1"
         offset="0" />
      <stop
         id="stop3752-3-2-2"
         style="stop-color:#667885;stop-opacity:1"
         offset="0.26238" />
      <stop
         id="stop3754-7-2-2"
         style="stop-color:#485a6c;stop-opacity:1"
         offset="0.704952" />
      <stop
         id="stop3756-9-3-05"
         style="stop-color:#273445;stop-opacity:1"
         offset="1" />
    </linearGradient>
    <linearGradient
       id="linearGradient4011-8">
      <stop
         id="stop4013-9"
         style="stop-color:#ffffff;stop-opacity:1"
         offset="0" />
      <stop
         id="stop4015-2"
         style="stop-color:#ffffff;stop-opacity:0.23529412"
         offset="0.507761" />
      <stop
         id="stop4017-28"
         style="stop-color:#ffffff;stop-opacity:0.15686275"
         offset="0.83456558" />
      <stop
         id="stop4019-23"
         style="stop-color:#ffffff;stop-opacity:0.39215687"
         offset="1" />
    </linearGradient>
    <linearGradient
       y2="44.340794"
       x2="71.204407"
       y1="6.2375584"
       x1="71.204407"
       gradientTransform="matrix(1.054054,0,0,1.054054,-51.611004,-2.7279013)"
       gradientUnits="userSpaceOnUse"
       id="linearGradient3540"
       xlink:href="#linearGradient4011-8" />
    <radialGradient
       r="19.99999"
       fy="8.4497671"
       fx="1.1978998"
       cy="8.4497671"
       cx="1.1978998"
       gradientTransform="matrix(0,5.0000024,-5.2894057,-1.3609237e-7,68.694364,-17.989501)"
       gradientUnits="userSpaceOnUse"
       id="radialGradient3543"
       xlink:href="#linearGradient2867-449-88-871-390-598-476-591-434-148-57-177-3-8-8" />
  </defs>
  <metadata
     id="metadata4036">
    <rdf:RDF>
      <cc:Work
         rdf:about="">
        <dc:format>image/svg+xml</dc:format>
        <dc:type
           rdf:resource="http://purl.org/dc/dcmitype/StillImage" />
        <dc:title />
      </cc:Work>
    </rdf:RDF>
  </metadata>
  <g
     id="g4182">
    <path
       d="m 40.999999,41.499999 a 17,5.4999999 0 1 1 -33.999999,0 17,5.4999999 0 1 1 33.999999,0 z"
       id="path3818-0-5"
       style="fill:url(#radialGradient3018);fill-opacity:1;stroke:none" />
    <path
       d="M 24.000003,3.4999978 C 12.68881,3.4999978 3.5,12.688804 3.5,23.999998 3.5,35.311192 12.68881,44.500003 24.000003,44.5 35.311191,44.5 44.500011,35.311192 44.5,23.999998 44.5,12.688804 35.311191,3.4999978 24.000003,3.4999978 z"
       id="path2555"
       style="color:#000000;fill:#273445;fill-opacity:1;fill-rule:nonzero;stroke:none;stroke-width:1;marker:none;visibility:visible;display:inline;overflow:visible;enable-background:accumulate" />
    <path
       inkscape:connector-curvature="0"
       id="path4227"
       d="m 24.044922,9.1287972 c 0,0 -5.404297,3.2676228 -5.404297,11.1152348 0,2.142314 0.18444,4.700574 0.503906,7.146484 -2.186047,1.542782 -3.61914,4.083989 -3.61914,6.960937 0,0.702316 0.09146,1.373143 0.24414,2.044922 1.026631,-1.668272 2.54409,-2.995789 4.347657,-3.798828 0.313638,1.170513 0.667446,2.144953 1.05664,2.791016 l 5.742188,0 c 0.390582,-0.640554 0.744136,-1.616246 1.058593,-2.791016 1.802719,0.800204 3.319437,2.118223 4.345703,3.767578 0.152673,-0.641245 0.244141,-1.342607 0.244141,-2.044922 0,-2.875315 -1.431288,-5.415108 -3.615234,-6.951171 0.316837,-2.440256 0.5,-4.992048 0.5,-7.125 0,-7.847612 -5.404297,-11.1152347 -5.404297,-11.1152348 z M 21.449219,36.732313 22.152344,41.037 22.640625,38.197157 23.097656,41.037 23.587891,38.197157 24.044922,41.037 24.503906,38.197157 24.992188,41.037 25.449219,38.197157 25.9375,41.037 l 0.703125,-4.304687 -5.191406,0 z"
       style="opacity:0.07;fill:none;fill-opacity:1;stroke:#000000;stroke-opacity:1" />
    <path
       style="opacity:0.15;fill:#000000;fill-opacity:1"
       d="m 24.044922,9.1287972 c 0,0 -5.404297,3.2676228 -5.404297,11.1152348 0,2.142314 0.18444,4.700574 0.503906,7.146484 -2.186047,1.542782 -3.61914,4.083989 -3.61914,6.960937 0,0.702316 0.09146,1.373143 0.24414,2.044922 1.026631,-1.668272 2.54409,-2.995789 4.347657,-3.798828 0.313638,1.170513 0.667446,2.144953 1.05664,2.791016 l 5.742188,0 c 0.390582,-0.640554 0.744136,-1.616246 1.058593,-2.791016 1.802719,0.800204 3.319437,2.118223 4.345703,3.767578 0.152673,-0.641245 0.244141,-1.342607 0.244141,-2.044922 0,-2.875315 -1.431288,-5.415108 -3.615234,-6.951171 0.316837,-2.440256 0.5,-4.992048 0.5,-7.125 0,-7.847612 -5.404297,-11.1152347 -5.404297,-11.1152348 z M 21.449219,36.732313 22.152344,41.037 22.640625,38.197157 23.097656,41.037 23.587891,38.197157 24.044922,41.037 24.503906,38.197157 24.992188,41.037 25.449219,38.197157 25.9375,41.037 l 0.703125,-4.304687 -5.191406,0 z"
       id="polygon4219"
       inkscape:connector-curvature="0" />
    <path
       d="m 43.5,23.999308 c 0,10.7699 -8.73109,19.50069 -19.499753,19.50069 C 13.230598,43.499998 4.5,34.769109 4.5,23.999308 4.5,13.229906 13.230598,4.4999998 24.000247,4.4999998 34.76891,4.4999998 43.5,13.229906 43.5,23.999308 l 0,0 z"
       id="path8655-4"
       style="opacity:0.3;color:#000000;fill:none;stroke:url(#linearGradient3540);stroke-width:1;stroke-linecap:round;stroke-linejoin:round;stroke-miterlimit:4;stroke-opacity:1;stroke-dasharray:none;stroke-dashoffset:0;marker:none;visibility:visible;display:inline;overflow:visible;enable-background:accumulate" />
    <path
       d="M 24.000003,3.4999976 C 12.68881,3.4999976 3.5,12.688804 3.5,23.999998 3.5,35.311192 12.68881,44.500003 24.000003,44.5 35.311191,44.5 44.500011,35.311192 44.5,23.999998 44.5,12.688804 35.311191,3.4999976 24.000003,3.4999976 z"
       id="path2555-6-0"
       style="opacity:0.5;color:#000000;fill:#000000;fill-opacity:0;fill-rule:nonzero;stroke:#0e141f;stroke-width:1;stroke-linecap:round;stroke-linejoin:round;stroke-miterlimit:4;stroke-opacity:1;stroke-dasharray:none;stroke-dashoffset:0;marker:none;visibility:visible;display:inline;overflow:visible;enable-background:accumulate" />
    <polygon
       transform="matrix(0.07633862,0,0,0.07633862,4.6550399,3.853451)"
       style="fill:#ffd05b"
       points="260,436.8 266.4,474 272.4,436.8 278.8,474 288,417.6 220,417.6 229.2,474 235.6,436.8 241.6,474 248,436.8 254,474 "
       id="polygon5" />
    <path
       inkscape:connector-curvature="0"
       style="fill:#ff7058"
       d="m 32.564437,33.320157 c 0,0.702315 -0.09161,1.40463 -0.244283,2.045875 -1.709986,-2.74819 -4.76353,-4.610853 -8.275106,-4.610853 -3.511576,0 -6.56512,1.862663 -8.275106,4.641387 -0.152677,-0.671779 -0.244283,-1.343559 -0.244283,-2.045875 0,-4.702459 3.81693,-8.51939 8.519389,-8.51939 4.702459,-0.03054 8.519389,3.786396 8.519389,8.488856 z"
       id="path7" />
    <path
       inkscape:connector-curvature="0"
       style="fill:#ffffff"
       d="m 26.915379,34.388897 c 1.526773,-2.503907 2.534443,-10.046162 2.534443,-15.145581 0,-7.847612 -5.404774,-11.1149036 -5.404774,-11.1149036 0,0 -5.404774,3.2672916 -5.404774,11.1149036 0,5.099419 1.00767,12.611139 2.534443,15.145581 l 5.740662,0 z"
       id="path9" />
    <path
       inkscape:connector-curvature="0"
       style="fill:#ff7058"
       d="M 28.014655,12.830871 C 26.426812,9.5635784 24.045048,8.1284124 24.045048,8.1284124 c 0,0 -2.381764,1.435166 -3.969607,4.7024586 l 7.939214,0 z"
       id="path11" />
    <circle
       style="fill:#54c0eb"
       cx="24.04505"
       cy="20.067772"
       r="2.6871195"
       id="circle13" />
    <g
       transform="matrix(0.07633862,0,0,0.07633862,4.6550399,3.853451)"
       id="g15">
      <path
         inkscape:connector-curvature="0"
         style="fill:#84dbff"
         d="m 278,186.8 c -1.6,-1.6 -3.6,-3.2 -5.6,-4.4 L 224,230.8 c 1.2,2 2.8,4 4.4,5.6 L 278,186.8 Z"
         id="path17" />
      <path
         inkscape:connector-curvature="0"
         style="fill:#84dbff"
         d="m 282.4,192 -48.8,49.2 c 1.2,0.8 2.8,2 4.4,2.8 l 47.2,-47.2 c -0.8,-2 -1.6,-3.2 -2.8,-4.8 z"
         id="path19" />
    </g>
  </g>
</svg>
