<?xml version="1.0" encoding="UTF-8" standalone="no"?>
<svg
   xmlns:dc="http://purl.org/dc/elements/1.1/"
   xmlns:cc="http://creativecommons.org/ns#"
   xmlns:rdf="http://www.w3.org/1999/02/22-rdf-syntax-ns#"
   xmlns:svg="http://www.w3.org/2000/svg"
   xmlns="http://www.w3.org/2000/svg"
   xmlns:xlink="http://www.w3.org/1999/xlink"
   xmlns:sodipodi="http://sodipodi.sourceforge.net/DTD/sodipodi-0.dtd"
   xmlns:inkscape="http://www.inkscape.org/namespaces/inkscape"
   width="64"
   height="64"
   id="svg2"
   version="1.1"
   inkscape:version="0.91 r13725"
   sodipodi:docname="planner-development.svg">
  <sodipodi:namedview
     pagecolor="#ffffff"
     bordercolor="#666666"
     borderopacity="1"
     objecttolerance="10"
     gridtolerance="10"
     guidetolerance="10"
     inkscape:pageopacity="0"
     inkscape:pageshadow="2"
     inkscape:window-width="1366"
     inkscape:window-height="705"
     id="namedview26"
     showgrid="false"
     inkscape:zoom="7.375"
     inkscape:cx="29.360299"
     inkscape:cy="26.188197"
     inkscape:window-x="0"
     inkscape:window-y="30"
     inkscape:window-maximized="1"
     inkscape:current-layer="svg2" />
  <defs
     id="defs4">
    <linearGradient
       id="linearGradient4194">
      <stop
         style="stop-color:#000000;stop-opacity:1;"
         offset="0"
         id="stop4196" />
      <stop
         style="stop-color:#000000;stop-opacity:0;"
         offset="1"
         id="stop4198" />
    </linearGradient>
    <linearGradient
       id="linearGradient3779">
      <stop
         style="stop-color:#fae164;stop-opacity:1"
         offset="0"
         id="stop3781" />
      <stop
         style="stop-color:#f5a505;stop-opacity:1"
         offset="1"
         id="stop3783" />
    </linearGradient>
    <linearGradient
       id="linearGradient3767">
      <stop
         style="stop-color:#ffffff;stop-opacity:1;"
         offset="0"
         id="stop3769" />
      <stop
         id="stop3777"
         offset="0.2807017"
         style="stop-color:#ffffff;stop-opacity:0.23529412;" />
      <stop
         id="stop3775"
         offset="0.71929854"
         style="stop-color:#ffffff;stop-opacity:0.15686275;" />
      <stop
         style="stop-color:#ffffff;stop-opacity:0.39215687;"
         offset="1"
         id="stop3771" />
    </linearGradient>
    <radialGradient
       xlink:href="#linearGradient3779"
       id="radialGradient3785"
       cx="38.174553"
       cy="997.32349"
       fx="38.174553"
       fy="997.32349"
       r="27"
       gradientUnits="userSpaceOnUse"
       gradientTransform="matrix(1.5322166,1.5322121,-1.2232278,1.2232312,1182.845,-1321.3838)" />
    <radialGradient
       xlink:href="#linearGradient4194"
       id="radialGradient4200"
       cx="-23.524242"
       cy="1041.4944"
       fx="-23.524242"
       fy="1041.4944"
       r="6"
       gradientTransform="matrix(0.91069126,0,0,0.37945469,53.42332,-337.47665)"
       gradientUnits="userSpaceOnUse" />
    <linearGradient
       xlink:href="#linearGradient3767"
       id="linearGradient4177"
       x1="723.62634"
       y1="678.37152"
       x2="763.9314"
       y2="718.67657"
       gradientUnits="userSpaceOnUse"
       gradientTransform="matrix(1.1096969,0,0,1.1096969,-793.7615,-807.54225)" />
  </defs>
  <metadata
     id="metadata7">
    <rdf:RDF>
      <cc:Work
         rdf:about="">
        <dc:format>image/svg+xml</dc:format>
        <dc:type
           rdf:resource="http://purl.org/dc/dcmitype/StillImage" />
        <dc:title />
      </cc:Work>
    </rdf:RDF>
  </metadata>
  <rect
     transform="matrix(2.2485995e-6,1,-1,-2.2485995e-6,0,0)"
     ry="4.4387307"
     rx="4.4387307"
     y="-56.445038"
     x="7.5548205"
     height="48.890217"
     width="48.890217"
     id="rect2993"
     style="fill:url(#radialGradient3785);fill-opacity:1;stroke:none;stroke-linejoin:round" />
  <rect
     transform="matrix(2.2485995e-6,1,-1,-2.2485995e-6,0,0)"
     ry="3.329565"
     rx="3.329565"
     style="opacity:0.4;fill:none;fill-opacity:1;stroke:url(#linearGradient4177);stroke-width:1.10969448;stroke-linejoin:miter;stroke-miterlimit:4;stroke-dasharray:none;stroke-opacity:1"
     id="rect3765"
     width="46.672562"
     height="46.672562"
     x="8.663703"
     y="-55.336224" />
  <rect
     style="opacity:0.6;fill:none;fill-opacity:1;stroke:#915f00;stroke-width:1.10969448;stroke-linejoin:round;stroke-opacity:1"
     id="rect4169"
     width="48.890217"
     height="48.890217"
     x="7.5548205"
     y="-56.445038"
     rx="4.4387307"
     ry="4.4387307"
     transform="matrix(2.2485995e-6,1,-1,-2.2485995e-6,0,0)" />
  <g
     id="g4157"
     transform="matrix(0.70710678,-0.70710678,0.70710678,0.70710678,-13.889353,31.381847)">
    <path
       id="path4273"
       d="m 48.164032,25.616619 c -1.863676,-1.810323 -4.359682,-2.822822 -6.957865,-2.822954 -3.789434,0.0052 -7.249415,2.15457 -8.933299,5.5494 l -16.589989,-0.0015 c -2.452256,-6.25e-4 -4.44038,1.987499 -4.439834,4.439833 -5.86e-4,2.452298 1.987539,4.440424 4.439837,4.439837 l 16.580798,-0.0015 c 1.68529,3.397759 5.1498,5.547629 8.9425,5.549419 3.995226,-0.0049 7.603152,-2.39028 9.172403,-6.064365 l -8.959377,1.2e-5 -3.923362,-3.923362 0.784672,-0.784672 3.13869,-3.13869 8.968605,-4.5e-5 c -0.51921,-1.217096 -1.27511,-2.318879 -2.223779,-3.241342 z"
       style="opacity:0.5;fill:#ffffff;fill-opacity:1;stroke:none;stroke-width:1;stroke-linecap:butt;stroke-linejoin:round;stroke-miterlimit:4;stroke-dasharray:none;stroke-opacity:1"
       inkscape:connector-curvature="0" />
    <path
       style="opacity:1;fill:#333333;fill-opacity:1;stroke:none;stroke-width:1;stroke-linecap:butt;stroke-linejoin:round;stroke-miterlimit:4;stroke-dasharray:none;stroke-opacity:1"
       d="m 48.406332,24.967539 c -1.863787,-1.810212 -4.359651,-2.822852 -6.957837,-2.822981 -3.789429,0.0052 -7.24948,2.154634 -8.933311,5.549411 l -16.589999,-0.0015 c -2.452295,-5.85e-4 -4.440422,1.987541 -4.439837,4.439836 -5.85e-4,2.452297 1.987541,4.440423 4.439837,4.439837 l 16.580802,-0.0015 c 1.685308,3.397742 5.149764,5.547665 8.942508,5.549412 3.995215,-0.0049 7.60311,-2.390238 9.172391,-6.064353 l -8.959365,0 -3.923362,-3.923362 0.784673,-0.784673 3.13869,-3.13869 8.96856,0 c -0.519205,-1.217101 -1.275094,-2.318896 -2.22375,-3.241371 z"
       id="path4169"
       inkscape:connector-curvature="0" />
  </g>
</svg>
