<?xml version="1.0" encoding="UTF-8" standalone="no"?>
<svg
   xmlns:dc="http://purl.org/dc/elements/1.1/"
   xmlns:cc="http://creativecommons.org/ns#"
   xmlns:rdf="http://www.w3.org/1999/02/22-rdf-syntax-ns#"
   xmlns:svg="http://www.w3.org/2000/svg"
   xmlns="http://www.w3.org/2000/svg"
   xmlns:xlink="http://www.w3.org/1999/xlink"
   xmlns:sodipodi="http://sodipodi.sourceforge.net/DTD/sodipodi-0.dtd"
   xmlns:inkscape="http://www.inkscape.org/namespaces/inkscape"
   version="1.1"
   width="64"
   height="64"
   id="svg5157"
   inkscape:version="0.91 r13725"
   sodipodi:docname="planner-elementary (copia).svg">
  <sodipodi:namedview
     pagecolor="#ffffff"
     bordercolor="#666666"
     borderopacity="1"
     objecttolerance="10"
     gridtolerance="10"
     guidetolerance="10"
     inkscape:pageopacity="0"
     inkscape:pageshadow="2"
     inkscape:window-width="1366"
     inkscape:window-height="705"
     id="namedview48"
     showgrid="false"
     inkscape:zoom="8.3125"
     inkscape:cx="13.112782"
     inkscape:cy="32"
     inkscape:window-x="0"
     inkscape:window-y="30"
     inkscape:window-maximized="1"
     inkscape:current-layer="svg5157" />
  <defs
     id="defs5159">
    <linearGradient
       id="linearGradient3820-7-2-8-6">
      <stop
         id="stop3822-2-6-5-0"
         style="stop-color:#3d3d3d;stop-opacity:1"
         offset="0" />
      <stop
         id="stop3864-8-7-4-1"
         style="stop-color:#686868;stop-opacity:0.49803922"
         offset="0.5" />
      <stop
         id="stop3824-1-2-6-7"
         style="stop-color:#686868;stop-opacity:0"
         offset="1" />
    </linearGradient>
    <linearGradient
       id="linearGradient2867-449-88-871-390-598-476-591-434-148-57-177-3-8">
      <stop
         id="stop3750-8-9"
         style="stop-color:#90dbec;stop-opacity:1"
         offset="0" />
      <stop
         id="stop3752-3-2"
         style="stop-color:#42baea;stop-opacity:1"
         offset="0.26238" />
      <stop
         id="stop3754-7-2"
         style="stop-color:#3689e6;stop-opacity:1"
         offset="0.704952" />
      <stop
         id="stop3756-9-3"
         style="stop-color:#2b63a0;stop-opacity:1"
         offset="1" />
    </linearGradient>
    <linearGradient
       id="linearGradient4806">
      <stop
         offset="0"
         style="stop-color:#ffffff;stop-opacity:1"
         id="stop4808" />
      <stop
         offset="0.42447853"
         style="stop-color:#ffffff;stop-opacity:0.23529412"
         id="stop4810" />
      <stop
         offset="0.82089913"
         style="stop-color:#ffffff;stop-opacity:0.15686275"
         id="stop4812" />
      <stop
         offset="1"
         style="stop-color:#ffffff;stop-opacity:0.39215687"
         id="stop4814" />
    </linearGradient>
    <linearGradient
       xlink:href="#linearGradient4806"
       id="linearGradient3118"
       gradientUnits="userSpaceOnUse"
       gradientTransform="matrix(2.537984,0,0,2.537984,-151.1818,-38.725746)"
       x1="71.204407"
       y1="15.369057"
       x2="71.204407"
       y2="40.495617" />
    <radialGradient
       xlink:href="#linearGradient3820-7-2-8-6"
       id="radialGradient3163"
       gradientUnits="userSpaceOnUse"
       gradientTransform="matrix(0.6869404,0,0,0.21461693,-4.02174,4.573331)"
       cx="99.157013"
       cy="186.17059"
       fx="99.157013"
       fy="186.17059"
       r="62.769119" />
    <radialGradient
       cx="1.1978998"
       cy="8.4497671"
       r="19.99999"
       fx="1.1978998"
       fy="8.4497671"
       id="radialGradient3328"
       xlink:href="#linearGradient2867-449-88-871-390-598-476-591-434-148-57-177-3-8"
       gradientUnits="userSpaceOnUse"
       gradientTransform="matrix(0,7.7305496,-8.1779986,-2.1041366e-7,101.10237,-32.920356)" />
  </defs>
  <metadata
     id="metadata5162">
    <rdf:RDF>
      <cc:Work
         rdf:about="">
        <dc:format>image/svg+xml</dc:format>
        <dc:type
           rdf:resource="http://purl.org/dc/dcmitype/StillImage" />
        <dc:title />
      </cc:Work>
    </rdf:RDF>
  </metadata>
  <path
     inkscape:connector-curvature="0"
     style="color:#000000;display:inline;overflow:visible;visibility:visible;fill:url(#radialGradient3328);fill-opacity:1;fill-rule:nonzero;stroke:none;stroke-width:1;marker:none;enable-background:accumulate"
     id="path2555-9"
     d="m 32.000003,0.30475828 c -17.488339,0 -31.69524208,14.20689772 -31.69524208,31.69523872 0,17.48834 14.20690308,31.695247 31.69524208,31.695247 17.488332,0 31.695253,-14.206907 31.695235,-31.695247 0,-17.488341 -14.206903,-31.69523872 -31.695235,-31.69523872 z" />
  <path
     style="color:#000000;clip-rule:nonzero;display:inline;overflow:visible;visibility:visible;opacity:0.5;isolation:auto;mix-blend-mode:normal;color-interpolation:sRGB;color-interpolation-filters:linearRGB;solid-color:#000000;solid-opacity:1;fill:#000000;fill-opacity:0;fill-rule:nonzero;stroke:#00537d;stroke-width:0.60952383;stroke-linecap:round;stroke-linejoin:round;stroke-miterlimit:4;stroke-dasharray:none;stroke-dashoffset:0;stroke-opacity:1;marker:none;color-rendering:auto;image-rendering:auto;shape-rendering:auto;text-rendering:auto;enable-background:accumulate"
     id="path2555-7-1"
     d="m 32,0.30476198 c -17.488338,0 -31.69523808,14.20689602 -31.69523808,31.69523602 0,17.48834 14.20690008,31.695246 31.69523808,31.69524 17.488337,0 31.69525,-14.2069 31.695238,-31.69524 C 63.695238,14.511658 49.488337,0.30476198 32,0.30476198 Z"
     inkscape:connector-curvature="0" />
  <path
     style="color:#000000;display:inline;overflow:visible;visibility:visible;opacity:0.5;fill:none;stroke:url(#linearGradient3118);stroke-width:0.60952383;stroke-linecap:round;stroke-linejoin:round;stroke-miterlimit:4;stroke-dasharray:none;stroke-dashoffset:0;stroke-opacity:1;marker:none;enable-background:accumulate"
     id="path3019"
     d="m 63.085714,32.000001 c 0,17.168162 -13.917563,31.085707 -31.08573,31.085707 -17.168144,0 -31.08569708,-13.917545 -31.08569708,-31.085707 0,-17.168163 13.91755308,-31.08570852 31.08569708,-31.08570852 17.168167,0 31.08573,13.91754552 31.08573,31.08570852 z"
     inkscape:connector-curvature="0" />
  <path
     style="opacity:0.15;fill:none;stroke:#000000;stroke-width:1.3694973;stroke-linecap:round;stroke-linejoin:round"
     inkscape:connector-curvature="0"
     id="path4456"
     d="m 26.87021,14.713315 c -0.960853,0 -1.744076,0.718719 -1.744076,1.600443 l 0,0.646555 c 0,0.701405 0.495542,1.299802 1.181343,1.51505 l 0,10.92531 -9.239202,12.14581 c -1.069201,1.408311 -1.196953,3.230222 -0.332548,4.752082 0.866382,1.521861 2.564775,2.466148 4.435012,2.466148 l 21.49914,0 c 1.870524,0 3.57035,-0.946972 4.434726,-2.468898 0.863216,-1.52304 0.733202,-3.343903 -0.337201,-4.749987 l -9.188079,-12.06474 0,-11.00638 c 0.684627,-0.215234 1.179023,-0.813632 1.179023,-1.51505 l 0,-0.646555 c 0.0029,-0.880113 -0.777595,-1.599133 -1.738491,-1.599133 z m 2.809223,3.330937 4.527664,0 0,12.246133 c 0,0.10598 0.03331,0.210297 0.09999,0.296606 l 9.69502,12.730587 c 0.348858,0.458863 0.391432,1.052127 0.111627,1.547007 -0.280994,0.494919 -0.835707,0.802329 -1.444064,0.802329 l -21.49914,0 c -0.608429,0 -1.163142,-0.308497 -1.444064,-0.802329 -0.282183,-0.494919 -0.240697,-1.086048 0.106973,-1.544911 0,0 9.846099,-13.108696 9.746143,-12.811658 0.06549,-0.0874 0.09998,-0.189538 0.09998,-0.296605 l 0,-0.322211 z" />
  <path
     style="fill:#ff60ff"
     inkscape:connector-curvature="0"
     id="rect4356"
     d="m 27.62346,30.429605 8.593212,0 8.42953,10.974554 1.068885,5.297568 -26.846358,0 0.546321,-4.759154 z" />
  <path
     style="fill:#ffffff"
     inkscape:connector-curvature="0"
     id="path4239"
     d="m 26.951057,14.974102 c -0.960851,0 -1.744073,0.718719 -1.744073,1.600443 l 0,0.646555 c 0,0.701405 0.495541,1.299802 1.181341,1.51505 l 0,10.92531 -9.239188,12.14581 c -1.069199,1.408311 -1.196951,3.230222 -0.332548,4.752082 0.866381,1.521861 2.564772,2.466148 4.435006,2.466148 l 21.499108,0 c 1.870521,0 3.570345,-0.946972 4.434719,-2.468898 0.863215,-1.52304 0.733201,-3.343903 -0.3372,-4.749987 l -9.188066,-12.06474 0,-11.00638 c 0.684626,-0.215234 1.179022,-0.813632 1.179022,-1.51505 l 0,-0.646555 c 0.0029,-0.880113 -0.777594,-1.599133 -1.738489,-1.599133 z m 2.809219,3.330937 4.527657,0 0,12.246133 c 0,0.10598 0.03331,0.210297 0.09999,0.296606 l 9.695006,12.730587 c 0.348857,0.458863 0.391431,1.052127 0.111627,1.547007 -0.280994,0.494919 -0.835706,0.802329 -1.444062,0.802329 l -21.499108,0 c -0.608428,0 -1.16314,-0.308497 -1.444062,-0.802329 -0.282183,-0.494919 -0.240697,-1.086048 0.106973,-1.544911 0,0 9.846084,-13.108696 9.746128,-12.811658 0.06549,-0.0874 0.09998,-0.189538 0.09998,-0.296605 l 0,-0.322211 z" />
  <ellipse
     style="fill:#ff91ff"
     id="circle4243"
     cx="26.191425"
     cy="42.216824"
     rx="2.8640697"
     ry="2.6193817" />
  <ellipse
     style="fill:#ff91ff"
     id="circle4247"
     cx="29.413504"
     cy="35.340946"
     rx="1.0740262"
     ry="0.9822681" />
  <ellipse
     style="fill:#ff91ff"
     id="circle4249"
     cx="31.919565"
     cy="39.597439"
     rx="1.4320349"
     ry="1.3096908" />
</svg>
