<?xml version="1.0" encoding="UTF-8" standalone="no"?>
<svg
   xmlns:dc="http://purl.org/dc/elements/1.1/"
   xmlns:cc="http://creativecommons.org/ns#"
   xmlns:rdf="http://www.w3.org/1999/02/22-rdf-syntax-ns#"
   xmlns:svg="http://www.w3.org/2000/svg"
   xmlns="http://www.w3.org/2000/svg"
   xmlns:sodipodi="http://sodipodi.sourceforge.net/DTD/sodipodi-0.dtd"
   xmlns:inkscape="http://www.inkscape.org/namespaces/inkscape"
   height="64"
   width="64"
   version="1.1"
   id="svg2"
   inkscape:version="0.91 r13725"
   sodipodi:docname="planner-economy.svg">
  <metadata
     id="metadata54">
    <rdf:RDF>
      <cc:Work
         rdf:about="">
        <dc:format>image/svg+xml</dc:format>
        <dc:type
           rdf:resource="http://purl.org/dc/dcmitype/StillImage" />
        <dc:title />
      </cc:Work>
    </rdf:RDF>
  </metadata>
  <sodipodi:namedview
     pagecolor="#ffffff"
     bordercolor="#666666"
     borderopacity="1"
     objecttolerance="10"
     gridtolerance="10"
     guidetolerance="10"
     inkscape:pageopacity="0"
     inkscape:pageshadow="2"
     inkscape:window-width="1366"
     inkscape:window-height="705"
     id="namedview52"
     showgrid="false"
     inkscape:zoom="1.84375"
     inkscape:cx="-73.499881"
     inkscape:cy="64.774447"
     inkscape:window-x="0"
     inkscape:window-y="30"
     inkscape:window-maximized="1"
     inkscape:current-layer="svg2" />
  <defs
     id="defs4">
    <radialGradient
       id="b"
       fx="-22.445999"
       gradientUnits="userSpaceOnUse"
       cy="8.2602997"
       cx="-19.780001"
       gradientTransform="matrix(0,16,-13.75,-5.5063e-6,178.58,274.47)"
       r="20">
      <stop
         stop-color="#ffcd7d"
         offset="0"
         id="stop7" />
      <stop
         stop-color="#fc8f36"
         offset=".26238"
         id="stop9" />
      <stop
         stop-color="#e23a0e"
         offset=".70495"
         id="stop11" />
      <stop
         stop-color="#ac441f"
         offset="1"
         id="stop13" />
    </radialGradient>
    <radialGradient
       id="a"
       gradientUnits="userSpaceOnUse"
       cy="186.17"
       cx="99.156998"
       gradientTransform="matrix(0.68694,0,0,0.21462096,-4.0217,68.573778)"
       r="62.769001">
      <stop
         stop-color="#3d3d3d"
         offset="0"
         id="stop16" />
      <stop
         stop-color="#686868"
         stop-opacity=".49804"
         offset=".5"
         id="stop18" />
      <stop
         stop-color="#686868"
         stop-opacity="0"
         offset="1"
         id="stop20" />
    </radialGradient>
    <linearGradient
       id="d"
       y2="53.699001"
       gradientUnits="userSpaceOnUse"
       x2="64.033997"
       gradientTransform="translate(0,63.5)"
       y1="-49.849998"
       x1="64.775002">
      <stop
         stop-color="#fff"
         offset="0"
         id="stop23" />
      <stop
         stop-color="#fff"
         stop-opacity=".23529"
         offset=".40804"
         id="stop25" />
      <stop
         stop-color="#fff"
         stop-opacity=".15686"
         offset=".84138"
         id="stop27" />
      <stop
         stop-color="#fff"
         stop-opacity=".39216"
         offset="1"
         id="stop29" />
    </linearGradient>
    <linearGradient
       id="c"
       y2="34"
       gradientUnits="userSpaceOnUse"
       x2="70"
       y1="-33.369999"
       x1="70"
       gradientTransform="translate(0,64)">
      <stop
         stop-color="#fff5ef"
         offset="0"
         id="stop32" />
      <stop
         stop-color="#fef8dd"
         offset="1"
         id="stop34" />
    </linearGradient>
  </defs>
  <g
     id="g4189"
     transform="matrix(0.53333333,0,0,0.53333333,-2.4,-3.2000529)">
    <path
       style="color:#000000;fill:url(#b)"
       d="m 64.5,13.998 c -28.692,0 -52,23.308 -52,52 0,28.692 23.308,52 52,52 28.692,0 52,-23.308 52,-52 0,-28.692 -23.308,-52 -52,-52 z"
       id="path40"
       inkscape:connector-curvature="0" />
    <path
       style="color:#000000;opacity:0.4;fill:none;stroke:#640000;stroke-linecap:round;stroke-linejoin:round"
       d="m 116.5,65.9981 c 0,28.72 -23.283,52.002 -51.999,52.002 -28.719,0 -52.001,-23.282 -52.001,-52.002 0,-28.718 23.282,-51.998 52.001,-51.998 28.716,0 51.999,23.28 51.999,51.998 l 0,0 z"
       id="path42"
       inkscape:connector-curvature="0" />
    <circle
       cx="64.5"
       cy="66"
       r="51"
       id="circle44"
       style="fill:none;stroke:url(#d);stroke-linecap:round;stroke-linejoin:round;stroke-opacity:0.39216003" />
    <path
       style="color:#000000;text-indent:0;text-decoration:none;text-decoration-line:none;text-decoration-style:solid;text-decoration-color:#000000;text-transform:none;block-progression:tb;white-space:normal;opacity:0.15;isolation:auto;mix-blend-mode:normal;solid-color:#000000;fill:#ae2109;color-rendering:auto;image-rendering:auto;shape-rendering:auto"
       d="m 62.289,31.285 a 1.0001,1.0001 0 0 0 -0.91602,0.75586 l -2.123,8.504 c -0.83888,-0.19272 -1.6771,-0.3837 -2.4824,-0.58203 A 1.0001,1.0001 0 0 0 56.55274,39.8808 l -7.9453,-1.9844 a 1.0001,1.0001 0 0 0 -1.213,0.728 l -1.5312,6.1523 a 1.0001,1.0001 0 0 0 0.74609,1.2168 c 0,0 1.0659,0.24504 2.1172,0.49609 0.52566,0.12553 1.0481,0.25242 1.4238,0.34961 0.18706,0.04839 0.33937,0.09042 0.42188,0.11523 3.55e-4,1.07e-4 0.0016,-1.06e-4 0.002,0 a 1.0001,1.0001 0 0 0 0.20117,0.07422 c 0.97889,0.24438 1.3986,0.6206 1.6406,1.002 0.23447,0.36947 0.29773,0.82281 0.27734,1.2812 l -2.6504,10.639 a 1.0001,1.0001 0 0 0 -0.0039,0.01953 1.0001,1.0001 0 0 0 -0.0059,0.02148 l -3.737,14.988 c -0.09942,0.23879 -0.26564,0.5053 -0.46094,0.64648 -0.2005,0.14494 -0.41481,0.25176 -0.99805,0.10742 a 1.0001,1.0001 0 0 0 -0.18945,-0.02734 c -0.0082,-0.0015 -0.002,5.2e-5 -0.01172,-0.002 -0.08834,-0.01826 -0.24575,-0.05382 -0.43555,-0.09961 -0.37959,-0.09158 -0.90125,-0.22413 -1.4258,-0.35938 -1.0491,-0.27048 -2.1094,-0.55274 -2.1094,-0.55274 a 1.0001,1.0001 0 0 0 -1.1738,0.56836 l -2.8594,6.5957 a 1.0001,1.0001 0 0 0 0.67578,1.3672 l 7.4941,1.8691 c 1.0596,0.26553 2.1007,0.54019 3.1406,0.81055 l -2.1445,8.6094 a 1.0001,1.0001 0 0 0 0.72852,1.2129 l 5.7539,1.4355 a 1.0001,1.0001 0 0 0 1.2129,-0.72852 l 2.1172,-8.4922 c 0.89811,0.23887 1.7828,0.46925 2.6543,0.68945 l -2.1133,8.4648 a 1.0001,1.0001 0 0 0 0.72852,1.2129 l 5.7617,1.4355 a 1.0001,1.0001 0 0 0 1.2109,-0.72852 l 2.1719,-8.6992 c 4.5797,0.79821 8.7323,1.0716 12.215,0 3.732,-1.1484 6.6576,-3.8749 8.291,-8.541 l 0,-0.002 c 1.3079,-3.7357 1.3127,-6.8562 0.20312,-9.3906 -0.85334,-1.9491 -2.4531,-3.4009 -4.3203,-4.6523 3.1313,-1.3414 5.5542,-4.0395 6.2246,-8.5684 0.5632,-3.7647 -0.64753,-6.8517 -2.9336,-9.1563 -2.0983,-2.1153 -5.0896,-3.5977 -8.4277,-4.8223 l 2.1543,-8.6387 a 1.0001,1.0001 0 0 0 -0.72852,-1.2129 l -5.7617,-1.4355 a 1.0001,1.0001 0 0 0 -1.213,0.729 l -2.0586,8.2578 c -0.88619,-0.21394 -1.7754,-0.42416 -2.668,-0.62891 l 2.0684,-8.293 a 1.0001,1.0001 0 0 0 -0.727,-1.211 l -5.7578,-1.4355 a 1.0001,1.0001 0 0 0 -0.29688,-0.0293 z m 0.7832,2.2109 3.8164,0.95117 -2.0703,8.3066 a 1.0001,1.0001 0 0 0 0.74609,1.2168 c 1.5452,0.35268 3.0959,0.70586 4.5977,1.0801 a 1.0001,1.0001 0 0 0 1.2109,-0.72852 l 2.0566,-8.2441 3.8184,0.95312 -2.1172,8.4941 a 1.0001,1.0001 0 0 0 0.64453,1.1855 c 3.5623,1.2271 6.579,2.7567 8.5098,4.7031 1.9308,1.9464 2.857,4.2294 2.375,7.4512 a 1.0001,1.0001 0 0 0 0,0.002 c -0.711,4.804 -3.125,6.8329 -6.591,7.632 a 1.0001,1.0001 0 0 0 -0.238,1.8614 c 2.4602,1.2809 4.1992,2.8365 5.0703,4.8262 0.87107,1.9896 0.93707,4.5104 -0.25977,7.9277 -1.476,4.2177 -3.798,6.3081 -6.9922,7.291 -3.1942,0.98289 -7.3547,0.74846 -12.197,-0.16797 a 1.0001,1.0001 0 0 0 -1.1562,0.74023 l -2.141,8.586 -3.82,-0.953 2.109,-8.455 a 1.0001,1.0001 0 0 0 -0.72852,-1.2129 c -1.4871,-0.36932 -3.0062,-0.76104 -4.5703,-1.1855 a 1.0001,1.0001 0 0 0 -1.2324,0.72266 l -2.1191,8.5 -3.8145,-0.95117 2.1426,-8.6016 a 1.0001,1.0001 0 0 0 -0.7207,-1.2109 c -1.3383,-0.34274 -2.7084,-0.71045 -4.1133,-1.0625 l -6.351,-1.584 2.046,-4.724 c 0.40716,0.10748 0.647,0.17184 1.291,0.33789 0.52948,0.13652 1.0569,0.27064 1.457,0.36719 0.20008,0.04827 0.36524,0.08778 0.49805,0.11523 0.0664,0.01373 0.1194,0.02467 0.19922,0.03516 0.03991,0.0052 0.06749,0.01696 0.21094,0.0098 0.03168,-0.0016 0.07537,-0.0072 0.13281,-0.01758 0.87547,0.11002 1.6842,-0.04561 2.2344,-0.44336 0.64042,-0.46297 0.96885,-1.0718 1.1562,-1.5371 a 1.0001,1.0001 0 0 0 0.04297,-0.13281 l 3.543,-14.205 a 1.0001,1.0001 0 0 0 0.44922,-1.7969 l 2.4727,-9.9238 a 1.0001,1.0001 0 0 0 0.02734,-0.18359 c 0.04325,-0.7504 -0.05925,-1.6675 -0.59375,-2.5098 -0.48588,-0.76564 -1.3661,-1.3686 -2.5312,-1.7324 -0.0017,-0.0011 -0.0042,-0.0048 -0.0059,-0.0059 -0.13448,-0.08982 -0.17099,-0.09462 -0.21289,-0.11133 -0.08379,-0.03342 -0.13601,-0.04815 -0.20312,-0.06836 -0.13423,-0.04042 -0.29985,-0.08494 -0.5,-0.13672 -0.40031,-0.10355 -0.92931,-0.23242 -1.4609,-0.35938 -0.56908,-0.13589 -0.73433,-0.17284 -1.1426,-0.26758 l 1.0449,-4.1973 6.0273,1.5039 0.20703,-0.92188 a 1.0001,1.0001 0 0 0 0.73438,1.1875 c 1.2066,0.3 2.4427,0.58538 3.6973,0.87109 a 1.0001,1.0001 0 0 0 1.1934,-0.73438 l 2.1191,-8.4902 z m 1.1074,15.305 a 1.0001,1.0001 0 0 0 -0.91406,0.75586 l -2.869,11.502 a 1.0001,1.0001 0 0 0 0.729,1.2125 c 1.5504,0.38643 4.958,1.4566 8.2676,1.5781 1.6548,0.06078 3.3155,-0.10569 4.7578,-0.80664 1.4423,-0.70095 2.6204,-2.01 3.0898,-3.8906 0.48357,-1.9404 0.07623,-3.6816 -0.86719,-4.998 -0.94342,-1.3165 -2.3421,-2.2383 -3.8398,-2.9453 -2.9954,-1.414 -6.5334,-2.0012 -8.0566,-2.3809 a 1.0001,1.0001 0 0 0 -0.29687,-0.02734 z m 0.78711,2.1973 c 1.8326,0.41424 4.4469,0.94988 6.7129,2.0195 1.3156,0.62104 2.4222,1.4011 3.0684,2.3027 0.64616,0.90165 0.91304,1.896 0.55078,3.3496 -0.34291,1.3717 -1.028,2.0904 -2.0234,2.5742 -0.99593,0.48401 -2.3495,0.66109 -3.8105,0.60742 -2.5144,-0.09235 -5.0858,-0.79915 -6.8867,-1.2754 l 2.3887,-9.5781 z m -5.101,15.109 a 1.0001,1.0001 0 0 0 -0.91602,0.75781 l -3.1621,12.682 a 1.0001,1.0001 0 0 0 0.72852,1.2129 c 1.8842,0.46788 5.9509,1.7129 9.8516,1.916 1.9503,0.10156 3.8833,-0.04593 5.5469,-0.77148 1.6636,-0.72556 3.029,-2.126 3.543,-4.1914 0.53135,-2.1305 0.0046,-4.0436 -1.123,-5.4863 -1.128,-1.4429 -2.777,-2.4747 -4.555,-3.2815 -3.555,-1.6136 -7.758,-2.3445 -9.617,-2.8086 a 1.0001,1.0001 0 0 0 -0.29688,-0.0293 z m 0.78711,2.1992 c 2.1788,0.5006 5.4571,1.1704 8.3008,2.4609 1.6085,0.73002 2.9856,1.6416 3.8047,2.6895 0.81907,1.0479 1.1588,2.1736 0.75977,3.7734 -0.37615,1.5115 -1.1848,2.3108 -2.4023,2.8418 -1.2176,0.53104 -2.8729,0.69773 -4.6445,0.60547 -3.132,-0.163 -6.356,-1.054 -8.503,-1.616 l 2.683,-10.755 z"
       id="path46"
       inkscape:connector-curvature="0" />
    <path
       d="M 87.65,59.0141 C 88.695,52.028 83.376,48.2721 76.102,45.7661 L 78.4615,36.302 72.7007,34.8663 70.4036,44.081 C 68.8891,43.70362 67.3337,43.34756 65.788,42.9948 l 2.3135,-9.2754 -5.7576,-1.4357 -2.3611,9.4609 c -1.2536,-0.2855 -2.4842,-0.56772 -3.6787,-0.8647 l 0.0066,-0.02953 -7.9448,-1.9837 -1.5325,6.153 c 0,0 4.2743,0.97956 4.184,1.0403 2.3332,0.58248 2.7549,2.1265 2.6843,3.3505 l -2.6876,10.782 c 0.1608,0.04102 0.36918,0.10009 0.59889,0.19197 -0.19197,-0.04758 -0.39707,-0.10009 -0.60874,-0.15095 l -3.766,15.103 c -0.2855,0.70882 -1.0091,1.7721 -2.64,1.3684 0.05743,0.08368 -4.1873,-1.0452 -4.1873,-1.0452 l -2.8599,6.5944 7.4968,1.8689 c 1.3947,0.34949 2.7615,0.71539 4.1069,1.06 l -2.3841,9.5724 5.7543,1.4357 2.3611,-9.4707 c 1.5719,0.42661 3.0978,0.8204 4.591,1.1912 l -2.3529,9.4264 5.7608,1.4357 2.3841,-9.5544 c 9.8235,1.859 17.21,1.1092 20.32,-7.7758 2.5055,-7.1539 -0.1247,-11.28 -5.2932,-13.971 3.764,-0.86798 6.5993,-3.344 7.3557,-8.4583 z m -13.163,18.457 c -1.7803,7.1539 -13.825,3.2865 -17.73,2.3168 l 3.163,-12.681 c 3.9051,0.97464 16.428,2.9042 14.567,10.365 z m 1.7819,-18.561 c -1.6244,6.5074 -11.65,3.2012 -14.902,2.3906 l 2.8681,-11.502 c 3.2521,0.81056 13.725,2.3234 12.034,9.1114 z"
       id="path48"
       inkscape:connector-curvature="0"
       style="opacity:0.3;fill:#ae2109" />
    <path
       d="M 87.65,58.0139 C 88.695,51.027 83.376,47.2719 76.102,44.7659 l 2.3595,-9.4641 -5.7608,-1.4357 -2.2971,9.2147 C 68.8891,42.70342 67.3337,42.34736 65.788,41.9946 l 2.3135,-9.2754 -5.7576,-1.4357 -2.3611,9.4609 c -1.2536,-0.2855 -2.4842,-0.56772 -3.6787,-0.8647 l 0.0066,-0.02953 -7.9448,-1.9837 -1.5325,6.153 c 0,0 4.2743,0.97956 4.184,1.0403 2.3332,0.58248 2.7549,2.1265 2.6843,3.3505 l -2.6876,10.782 c 0.1608,0.04102 0.36918,0.10009 0.59889,0.19197 -0.19197,-0.04758 -0.39707,-0.10009 -0.60874,-0.15095 l -3.766,15.103 c -0.2855,0.70882 -1.0091,1.7721 -2.64,1.3684 0.05743,0.08368 -4.1873,-1.0452 -4.1873,-1.0452 l -2.8599,6.5944 7.4968,1.8689 c 1.3947,0.34949 2.7615,0.71539 4.1069,1.06 l -2.3841,9.5724 5.7543,1.4357 2.3611,-9.4707 c 1.5719,0.42661 3.0978,0.8204 4.591,1.1912 l -2.3529,9.4264 5.7608,1.4357 2.3841,-9.5544 c 9.8235,1.859 17.21,1.1092 20.32,-7.7758 2.5055,-7.1539 -0.1247,-11.28 -5.2932,-13.971 3.764,-0.86798 6.5993,-3.344 7.3557,-8.4583 z m -13.163,18.457 c -1.7803,7.1539 -13.825,3.2865 -17.73,2.3168 l 3.163,-12.682 c 3.9051,0.97464 16.428,2.9042 14.567,10.365 z m 1.7819,-18.561 c -1.6244,6.5074 -11.65,3.2012 -14.902,2.3906 l 2.8681,-11.502 c 3.2521,0.81056 13.725,2.3234 12.034,9.1114 z"
       id="path50"
       style="fill:url(#c)"
       inkscape:connector-curvature="0" />
  </g>
</svg>
