<?xml version="1.0" encoding="UTF-8" standalone="no"?>
<svg
   xmlns:dc="http://purl.org/dc/elements/1.1/"
   xmlns:cc="http://creativecommons.org/ns#"
   xmlns:rdf="http://www.w3.org/1999/02/22-rdf-syntax-ns#"
   xmlns:svg="http://www.w3.org/2000/svg"
   xmlns="http://www.w3.org/2000/svg"
   xmlns:xlink="http://www.w3.org/1999/xlink"
   xmlns:sodipodi="http://sodipodi.sourceforge.net/DTD/sodipodi-0.dtd"
   xmlns:inkscape="http://www.inkscape.org/namespaces/inkscape"
   version="1.1"
   width="64"
   height="64"
   id="svg6333"
   inkscape:version="0.91 r13725"
   sodipodi:docname="planner-code.svg">
  <sodipodi:namedview
     pagecolor="#ffffff"
     bordercolor="#666666"
     borderopacity="1"
     objecttolerance="10"
     gridtolerance="10"
     guidetolerance="10"
     inkscape:pageopacity="0"
     inkscape:pageshadow="2"
     inkscape:window-width="1366"
     inkscape:window-height="705"
     id="namedview40"
     showgrid="false"
     inkscape:zoom="1.84375"
     inkscape:cx="14.792911"
     inkscape:cy="16.737443"
     inkscape:window-x="0"
     inkscape:window-y="30"
     inkscape:window-maximized="1"
     inkscape:current-layer="svg6333" />
  <defs
     id="defs6335">
    <linearGradient
       x1="23.99999"
       y1="4.999989"
       x2="23.99999"
       y2="43"
       id="linearGradient3381-5-4"
       xlink:href="#linearGradient3924-2-2-5-8"
       gradientUnits="userSpaceOnUse"
       gradientTransform="matrix(1.2789575,0,0,1.2823957,1.3050178,1.2225173)" />
    <linearGradient
       id="linearGradient3924-2-2-5-8">
      <stop
         id="stop3926-9-4-9-6"
         style="stop-color:#ffffff;stop-opacity:1"
         offset="0" />
      <stop
         id="stop3928-9-8-6-5"
         style="stop-color:#ffffff;stop-opacity:0.23529412"
         offset="0.06316455" />
      <stop
         id="stop3930-3-5-1-7"
         style="stop-color:#ffffff;stop-opacity:0.15686275"
         offset="0.95056331" />
      <stop
         id="stop3932-8-0-4-8"
         style="stop-color:#ffffff;stop-opacity:0.39215687"
         offset="1" />
    </linearGradient>
    <radialGradient
       cx="4.9929786"
       cy="43.5"
       r="2.5"
       fx="4.9929786"
       fy="43.5"
       id="radialGradient3337-2-2"
       xlink:href="#linearGradient3688-166-749-4-0-3-8"
       gradientUnits="userSpaceOnUse"
       gradientTransform="matrix(2.003784,0,0,1.4,27.98813,-17.4)" />
    <linearGradient
       id="linearGradient3688-166-749-4-0-3-8">
      <stop
         id="stop2883-4-0-1-8"
         style="stop-color:#181818;stop-opacity:1"
         offset="0" />
      <stop
         id="stop2885-9-2-9-6"
         style="stop-color:#181818;stop-opacity:0"
         offset="1" />
    </linearGradient>
    <radialGradient
       cx="4.9929786"
       cy="43.5"
       r="2.5"
       fx="4.9929786"
       fy="43.5"
       id="radialGradient3339-1-4"
       xlink:href="#linearGradient3688-464-309-9-2-4-2"
       gradientUnits="userSpaceOnUse"
       gradientTransform="matrix(2.003784,0,0,1.4,-20.01187,-104.4)" />
    <linearGradient
       id="linearGradient3688-464-309-9-2-4-2">
      <stop
         id="stop2889-7-9-6-9"
         style="stop-color:#181818;stop-opacity:1"
         offset="0" />
      <stop
         id="stop2891-6-6-1-7"
         style="stop-color:#181818;stop-opacity:0"
         offset="1" />
    </linearGradient>
    <linearGradient
       id="linearGradient3702-501-757-8-4-1-1">
      <stop
         id="stop2895-8-9-9-1"
         style="stop-color:#181818;stop-opacity:0"
         offset="0" />
      <stop
         id="stop2897-7-8-7-7"
         style="stop-color:#181818;stop-opacity:1"
         offset="0.5" />
      <stop
         id="stop2899-4-5-1-5"
         style="stop-color:#181818;stop-opacity:0"
         offset="1" />
    </linearGradient>
    <linearGradient
       x1="25.058096"
       y1="47.027729"
       x2="25.058096"
       y2="39.999443"
       id="linearGradient6394"
       xlink:href="#linearGradient3702-501-757-8-4-1-1"
       gradientUnits="userSpaceOnUse" />
    <radialGradient
       gradientTransform="matrix(0,7.4524736,-14.681726,0,179.23396,-66.795665)"
       gradientUnits="userSpaceOnUse"
       xlink:href="#linearGradient2867-449-88-871-390-598-476-591-434-148-57-177-3-8"
       id="radialGradient5521-1"
       fy="9.9571075"
       fx="7.3198657"
       r="12.671875"
       cy="9.9571075"
       cx="7.8500957" />
    <linearGradient
       id="linearGradient2867-449-88-871-390-598-476-591-434-148-57-177-3-8">
      <stop
         id="stop3750-8-9"
         style="stop-color:#90dbec;stop-opacity:1"
         offset="0" />
      <stop
         id="stop3752-3-2"
         style="stop-color:#42baea;stop-opacity:1"
         offset="0.26238" />
      <stop
         id="stop3754-7-2"
         style="stop-color:#3689e6;stop-opacity:1"
         offset="0.704952" />
      <stop
         id="stop3756-9-3"
         style="stop-color:#2b63a0;stop-opacity:1"
         offset="1" />
    </linearGradient>
  </defs>
  <metadata
     id="metadata6338">
    <rdf:RDF>
      <cc:Work
         rdf:about="">
        <dc:format>image/svg+xml</dc:format>
        <dc:type
           rdf:resource="http://purl.org/dc/dcmitype/StillImage" />
        <dc:title />
      </cc:Work>
    </rdf:RDF>
  </metadata>
  <rect
     style="color:#000000;display:inline;overflow:visible;visibility:visible;fill:url(#radialGradient5521-1);fill-opacity:1;fill-rule:nonzero;stroke:none;stroke-width:0.99999994;marker:none;enable-background:accumulate"
     id="rect5505-21"
     y="7.4464278"
     x="7.4464288"
     ry="2.5183151"
     rx="2.5183151"
     height="49.107143"
     width="49.107143" />
  <rect
     style="opacity:0.5;fill:none;stroke:url(#linearGradient3381-5-4);stroke-width:0.89285713;stroke-linecap:round;stroke-linejoin:round;stroke-miterlimit:4;stroke-dasharray:none;stroke-dashoffset:0;stroke-opacity:1"
     id="rect6741-5-0-2-3"
     y="8.2756891"
     x="8.3392859"
     ry="1.7857143"
     rx="1.7857143"
     height="47.448643"
     width="47.32143" />
  <rect
     style="color:#000000;clip-rule:nonzero;display:inline;overflow:visible;visibility:visible;opacity:0.4;isolation:auto;mix-blend-mode:normal;color-interpolation:sRGB;color-interpolation-filters:linearRGB;solid-color:#000000;solid-opacity:1;fill:#000000;fill-opacity:0;fill-rule:nonzero;stroke:#004264;stroke-width:0.89285713;stroke-linecap:round;stroke-linejoin:round;stroke-miterlimit:4;stroke-dasharray:none;stroke-dashoffset:0;stroke-opacity:1;marker:none;color-rendering:auto;image-rendering:auto;shape-rendering:auto;text-rendering:auto;enable-background:accumulate"
     id="rect5505-21-3-8-9-1-1"
     y="7.4464278"
     x="7.4464288"
     ry="2.6785715"
     rx="2.6785715"
     height="49.107143"
     width="49.107143" />
  <path
     inkscape:connector-curvature="0"
     style="opacity:0.05;fill-opacity:1;stroke:#000000;stroke-width:1.25;stroke-linecap:round;stroke-linejoin:round;stroke-miterlimit:4;stroke-dasharray:none;stroke-opacity:1"
     d="m 33.243714,26.937008 c 1.118462,-1.118462 1.26439,-2.869175 0.09728,-4.036281 -2.285619,-2.285623 -3.598602,-2.042465 -6.175975,-2.042465 3.890356,-1.702015 6.710888,-2.091104 9.531421,-0.778069 1.215751,0.534911 1.70207,1.02123 2.674661,1.99382 l 1.750658,1.750659 c 0.437678,0.437679 0.729427,1.021232 0.826715,1.604783 0.145873,0.923947 -0.09729,1.118463 0.534908,1.799304 0.194517,0.194517 0.486321,0.194517 0.680838,0 0.194519,-0.194517 0.486322,-0.194517 0.680838,0 l 1.702073,1.702071 c 0.389037,0.389035 0.389037,0.972588 0,1.361623 L 42.0944,33.745181 c -0.389034,0.389035 -0.972586,0.389035 -1.361621,0 l -1.604787,-1.653427 c -0.194517,-0.194516 -0.194517,-0.486321 0,-0.680838 0.19452,-0.194519 0.19452,-0.534911 0,-0.729428 -0.680839,-0.680837 -0.875355,-0.437677 -1.799302,-0.534911 -0.632196,-0.09729 -1.15003,-0.36627 -1.587708,-0.803947 m -2.497273,-2.405622 2.634607,2.540142 -2.634607,-2.540142 -15.075257,16.874563 c -0.583554,0.58355 -0.632196,1.556138 -0.04865,2.091105 l 0.680843,0.680838 c 0.583552,0.583556 1.50755,0.534912 2.091104,-0.04864 l 15.12391,-16.923205"
     id="path15-0"
     sodipodi:nodetypes="csccssccsssssccsscccccccscc" />
  <path
     inkscape:connector-curvature="0"
     style="opacity:0.15;fill-opacity:1;stroke-width:1;stroke-miterlimit:4;stroke-dasharray:none"
     d="m 33.264929,26.6158 c 1.118463,-1.118463 1.264391,-2.869177 0.09729,-4.036282 -2.285618,-2.285623 -3.598601,-2.042464 -6.175976,-2.042464 3.890358,-1.702014 6.710887,-2.091103 9.53142,-0.77807 1.215752,0.534911 1.70207,1.02123 2.674661,1.993822 l 1.750658,1.750659 c 0.437679,0.437679 0.729428,1.021231 0.826716,1.604781 0.145872,0.923947 -0.09729,1.118462 0.534908,1.799303 0.194517,0.194519 0.486321,0.194519 0.680838,0 0.194518,-0.194516 0.486323,-0.194516 0.680838,0 l 1.702073,1.702072 c 0.389036,0.389035 0.389036,0.972588 0,1.361622 l -3.45273,3.452729 c -0.389035,0.389036 -0.972586,0.389036 -1.361621,0 l -1.604788,-1.653425 c -0.194516,-0.194516 -0.194516,-0.486324 0,-0.68084 0.194521,-0.194519 0.194521,-0.534911 0,-0.729428 -0.680838,-0.680836 -0.875353,-0.437678 -1.799301,-0.53491 -0.632194,-0.09729 -1.15003,-0.366271 -1.587708,-0.803947 L 33.264939,26.6158"
     id="path15-2"
     sodipodi:nodetypes="csccssccsssssccssccc" />
  <path
     inkscape:connector-curvature="0"
     style="opacity:1;fill:#ffffff;fill-opacity:1"
     d="m 33.302134,25.891251 c 1.118464,-1.118463 1.264392,-2.869175 0.09729,-4.036281 -2.285619,-2.285623 -3.598601,-2.042464 -6.175977,-2.042464 3.890358,-1.702015 6.710888,-2.091104 9.531422,-0.778069 1.215751,0.53491 1.702071,1.021229 2.67466,1.993822 l 1.750659,1.750656 c 0.437678,0.437681 0.729428,1.021233 0.826714,1.604783 0.145873,0.923948 -0.09729,1.118463 0.534908,1.799304 0.194518,0.194519 0.486323,0.194519 0.680839,0 0.194518,-0.194516 0.486322,-0.194516 0.680838,0 l 1.702073,1.702071 c 0.389036,0.389035 0.389036,0.972589 0,1.361623 l -3.452731,3.452729 c -0.389036,0.389035 -0.972586,0.389035 -1.361622,0 l -1.604786,-1.653426 c -0.194517,-0.194516 -0.194517,-0.486323 0,-0.680839 0.19452,-0.194519 0.19452,-0.534911 0,-0.729429 -0.680838,-0.680837 -0.875354,-0.437677 -1.799302,-0.53491 -0.632195,-0.09729 -1.150029,-0.297974 -1.587708,-0.735651 l -2.520035,-2.405623"
     id="path15"
     sodipodi:nodetypes="csccssccsssssccssccc" />
  <path
     inkscape:connector-curvature="0"
     style="opacity:0.15;fill-opacity:1;stroke-width:1;stroke-miterlimit:4;stroke-dasharray:none"
     d="M 33.264929,26.6158 18.189672,43.490361 c -0.583552,0.583552 -0.632194,1.556141 -0.04865,2.091107 l 0.680843,0.680838 c 0.583551,0.583555 1.50755,0.534912 2.091106,-0.04863 L 36.036873,29.290461 Z"
     id="path17-7"
     sodipodi:nodetypes="cccsccc" />
  <path
     inkscape:connector-curvature="0"
     style="opacity:1;fill:#ffffff;fill-opacity:1"
     d="M 33.302134,25.891251 18.226877,42.765813 c -0.583553,0.583553 -0.632195,1.556139 -0.04865,2.091107 l 0.680843,0.680839 c 0.583552,0.583554 1.50755,0.53491 2.091105,-0.04863 L 36.074079,28.565912 Z"
     id="path17"
     sodipodi:nodetypes="cccsccc" />
</svg>
