<?xml version="1.0" encoding="UTF-8" standalone="no"?>
<svg
   xmlns:dc="http://purl.org/dc/elements/1.1/"
   xmlns:cc="http://creativecommons.org/ns#"
   xmlns:rdf="http://www.w3.org/1999/02/22-rdf-syntax-ns#"
   xmlns:svg="http://www.w3.org/2000/svg"
   xmlns="http://www.w3.org/2000/svg"
   xmlns:xlink="http://www.w3.org/1999/xlink"
   xmlns:sodipodi="http://sodipodi.sourceforge.net/DTD/sodipodi-0.dtd"
   xmlns:inkscape="http://www.inkscape.org/namespaces/inkscape"
   version="1.1"
   width="64"
   height="64"
   id="svg5157"
   inkscape:version="0.91 r13725"
   sodipodi:docname="planner-science.svg">
  <sodipodi:namedview
     pagecolor="#ffffff"
     bordercolor="#666666"
     borderopacity="1"
     objecttolerance="10"
     gridtolerance="10"
     guidetolerance="10"
     inkscape:pageopacity="0"
     inkscape:pageshadow="2"
     inkscape:window-width="1366"
     inkscape:window-height="705"
     id="namedview48"
     showgrid="false"
     inkscape:zoom="2.078125"
     inkscape:cx="-25.133678"
     inkscape:cy="10.134255"
     inkscape:window-x="0"
     inkscape:window-y="30"
     inkscape:window-maximized="1"
     inkscape:current-layer="svg5157" />
  <defs
     id="defs5159">
    <linearGradient
       id="linearGradient3820-7-2-8-6">
      <stop
         id="stop3822-2-6-5-0"
         style="stop-color:#3d3d3d;stop-opacity:1"
         offset="0" />
      <stop
         id="stop3864-8-7-4-1"
         style="stop-color:#686868;stop-opacity:0.49803922"
         offset="0.5" />
      <stop
         id="stop3824-1-2-6-7"
         style="stop-color:#686868;stop-opacity:0"
         offset="1" />
    </linearGradient>
    <linearGradient
       id="linearGradient2867-449-88-871-390-598-476-591-434-148-57-177-3-8">
      <stop
         id="stop3750-8-9"
         style="stop-color:#90dbec;stop-opacity:1"
         offset="0" />
      <stop
         id="stop3752-3-2"
         style="stop-color:#42baea;stop-opacity:1"
         offset="0.26238" />
      <stop
         id="stop3754-7-2"
         style="stop-color:#3689e6;stop-opacity:1"
         offset="0.704952" />
      <stop
         id="stop3756-9-3"
         style="stop-color:#2b63a0;stop-opacity:1"
         offset="1" />
    </linearGradient>
    <linearGradient
       id="linearGradient4806">
      <stop
         offset="0"
         style="stop-color:#ffffff;stop-opacity:1"
         id="stop4808" />
      <stop
         offset="0.42447853"
         style="stop-color:#ffffff;stop-opacity:0.23529412"
         id="stop4810" />
      <stop
         offset="0.82089913"
         style="stop-color:#ffffff;stop-opacity:0.15686275"
         id="stop4812" />
      <stop
         offset="1"
         style="stop-color:#ffffff;stop-opacity:0.39215687"
         id="stop4814" />
    </linearGradient>
    <linearGradient
       xlink:href="#linearGradient4806"
       id="linearGradient3118"
       gradientUnits="userSpaceOnUse"
       gradientTransform="matrix(2.220736,0,0,2.220736,-128.28407,-29.885028)"
       x1="71.204407"
       y1="15.369057"
       x2="71.204407"
       y2="40.495617" />
    <radialGradient
       xlink:href="#linearGradient3820-7-2-8-6"
       id="radialGradient3163"
       gradientUnits="userSpaceOnUse"
       gradientTransform="matrix(0.6869404,0,0,0.21461693,-4.02174,4.573331)"
       cx="99.157013"
       cy="186.17059"
       fx="99.157013"
       fy="186.17059"
       r="62.769119" />
    <radialGradient
       cx="1.1978998"
       cy="8.4497671"
       r="19.99999"
       fx="1.1978998"
       fy="8.4497671"
       id="radialGradient3328"
       xlink:href="#linearGradient2867-449-88-871-390-598-476-591-434-148-57-177-3-8"
       gradientUnits="userSpaceOnUse"
       gradientTransform="matrix(0,6.7642309,-7.1557488,-1.8411195e-7,92.464574,-24.805312)" />
  </defs>
  <metadata
     id="metadata5162">
    <rdf:RDF>
      <cc:Work
         rdf:about="">
        <dc:format>image/svg+xml</dc:format>
        <dc:type
           rdf:resource="http://purl.org/dc/dcmitype/StillImage" />
        <dc:title />
      </cc:Work>
    </rdf:RDF>
  </metadata>
  <path
     inkscape:connector-curvature="0"
     style="color:#000000;display:inline;overflow:visible;visibility:visible;fill:url(#radialGradient3328);fill-opacity:1;fill-rule:nonzero;stroke:none;stroke-width:1;marker:none;enable-background:accumulate"
     id="path2555-9"
     d="m 32.000003,4.2666637 c -15.302297,0 -27.7333372,12.4310353 -27.7333372,27.7333333 0,15.302298 12.4310402,27.733341 27.7333372,27.733341 15.30229,0 27.733346,-12.431043 27.73333,-27.733341 0,-15.302298 -12.43104,-27.7333333 -27.73333,-27.7333333 z" />
  <path
     style="color:#000000;clip-rule:nonzero;display:inline;overflow:visible;visibility:visible;opacity:0.5;isolation:auto;mix-blend-mode:normal;color-interpolation:sRGB;color-interpolation-filters:linearRGB;solid-color:#000000;solid-opacity:1;fill:#000000;fill-opacity:0;fill-rule:nonzero;stroke:#00537d;stroke-width:0.53333336;stroke-linecap:round;stroke-linejoin:round;stroke-miterlimit:4;stroke-dasharray:none;stroke-dashoffset:0;stroke-opacity:1;marker:none;color-rendering:auto;image-rendering:auto;shape-rendering:auto;text-rendering:auto;enable-background:accumulate"
     id="path2555-7-1"
     d="m 32,4.2666669 c -15.302296,0 -27.7333333,12.4310341 -27.7333333,27.7333311 0,15.302298 12.4310373,27.73334 27.7333333,27.733335 15.302295,0 27.733344,-12.431037 27.733333,-27.733335 C 59.733333,16.697701 47.302295,4.2666669 32,4.2666669 Z"
     inkscape:connector-curvature="0" />
  <path
     style="color:#000000;display:inline;overflow:visible;visibility:visible;opacity:0.5;fill:none;stroke:url(#linearGradient3118);stroke-width:0.53333336;stroke-linecap:round;stroke-linejoin:round;stroke-miterlimit:4;stroke-dasharray:none;stroke-dashoffset:0;stroke-opacity:1;marker:none;enable-background:accumulate"
     id="path3019"
     d="M 59.2,32.000001 C 59.2,47.022143 47.022132,59.199994 31.999986,59.199994 16.97786,59.199994 4.8000011,47.022143 4.8000011,32.000001 4.8000011,16.977858 16.97786,4.8000061 31.999986,4.8000061 47.022132,4.8000061 59.2,16.977858 59.2,32.000001 Z"
     inkscape:connector-curvature="0" />
  <path
     style="opacity:0.15;fill:none;stroke:#000000;stroke-width:1.19831014;stroke-linecap:round;stroke-linejoin:round"
     inkscape:connector-curvature="0"
     id="path4456"
     d="m 27.511434,16.874151 c -0.840747,0 -1.526067,0.628879 -1.526067,1.400387 l 0,0.565736 c 0,0.613729 0.4336,1.137327 1.033675,1.325669 l 0,9.559646 -8.084301,10.627584 c -0.935551,1.232272 -1.047334,2.826444 -0.29098,4.158071 0.758084,1.331629 2.244178,2.15788 3.880636,2.15788 l 18.811747,0 c 1.636709,0 3.124056,-0.828601 3.880385,-2.160286 0.755314,-1.33266 0.641552,-2.925915 -0.29505,-4.156239 l -8.03957,-10.556647 0,-9.630583 c 0.599049,-0.188329 1.031646,-0.711928 1.031646,-1.325668 l 0,-0.565736 c 0.0025,-0.770099 -0.680396,-1.399241 -1.52118,-1.399241 z m 2.45807,2.914569 3.961706,0 0,10.715367 c 0,0.09273 0.02915,0.18401 0.08749,0.25953 l 8.483143,11.139264 c 0.30525,0.401505 0.342503,0.920611 0.09767,1.353631 -0.245869,0.433054 -0.731243,0.702038 -1.263556,0.702038 l -18.811747,0 c -0.532376,0 -1.017749,-0.269935 -1.263556,-0.702038 -0.24691,-0.433054 -0.21061,-0.950292 0.0936,-1.351797 0,0 8.615337,-11.470109 8.527875,-11.210201 0.0573,-0.07647 0.08748,-0.165846 0.08748,-0.259529 l 0,-0.281935 z" />
  <path
     style="fill:#ff60ff"
     inkscape:connector-curvature="0"
     id="rect4356"
     d="m 28.170528,30.625904 7.51906,0 7.375839,9.602735 0.935274,4.635372 -23.490563,0 0.478031,-4.16426 z" />
  <path
     style="fill:#ffffff"
     inkscape:connector-curvature="0"
     id="path4239"
     d="m 27.582175,17.102339 c -0.840745,0 -1.526064,0.628879 -1.526064,1.400388 l 0,0.565735 c 0,0.61373 0.433598,1.137327 1.033673,1.325669 l 0,9.559646 -8.084289,10.627584 c -0.935549,1.232272 -1.047332,2.826444 -0.29098,4.158072 0.758084,1.331628 2.244176,2.157879 3.880631,2.157879 l 18.811719,0 c 1.636706,0 3.124052,-0.8286 3.880379,-2.160285 0.755313,-1.33266 0.641551,-2.925915 -0.29505,-4.156239 l -8.039557,-10.556647 0,-9.630583 c 0.599047,-0.18833 1.031644,-0.711928 1.031644,-1.325669 l 0,-0.565735 c 0.0025,-0.770099 -0.680395,-1.399242 -1.521178,-1.399242 z m 2.458067,2.91457 3.961699,0 0,10.715366 c 0,0.09273 0.02915,0.18401 0.08749,0.259531 l 8.48313,11.139263 c 0.30525,0.401505 0.342502,0.920611 0.09767,1.353631 -0.24587,0.433055 -0.731243,0.702038 -1.263555,0.702038 l -18.811719,0 c -0.532375,0 -1.017748,-0.269935 -1.263554,-0.702038 -0.246911,-0.433054 -0.21061,-0.950292 0.0936,-1.351797 0,0 8.615323,-11.470109 8.527862,-11.2102 0.0573,-0.07647 0.08748,-0.165846 0.08748,-0.25953 l 0,-0.281934 z" />
  <ellipse
     style="fill:#ff91ff"
     id="circle4243"
     cx="26.917498"
     cy="40.93972"
     rx="2.5060611"
     ry="2.291959" />
  <ellipse
     style="fill:#ff91ff"
     id="circle4247"
     cx="29.736816"
     cy="34.923328"
     rx="0.93977296"
     ry="0.85948461" />
  <ellipse
     style="fill:#ff91ff"
     id="circle4249"
     cx="31.929619"
     cy="38.647758"
     rx="1.2530305"
     ry="1.1459795" />
</svg>
