<?xml version="1.0" encoding="UTF-8" standalone="no"?>
<svg
   xmlns:dc="http://purl.org/dc/elements/1.1/"
   xmlns:cc="http://creativecommons.org/ns#"
   xmlns:rdf="http://www.w3.org/1999/02/22-rdf-syntax-ns#"
   xmlns:svg="http://www.w3.org/2000/svg"
   xmlns="http://www.w3.org/2000/svg"
   xmlns:xlink="http://www.w3.org/1999/xlink"
   xmlns:sodipodi="http://sodipodi.sourceforge.net/DTD/sodipodi-0.dtd"
   xmlns:inkscape="http://www.inkscape.org/namespaces/inkscape"
   id="svg4031"
   height="64"
   width="64"
   version="1.1"
   inkscape:version="0.91 r13725"
   sodipodi:docname="planner-pen.svg">
  <sodipodi:namedview
     pagecolor="#ffffff"
     bordercolor="#666666"
     borderopacity="1"
     objecttolerance="10"
     gridtolerance="10"
     guidetolerance="10"
     inkscape:pageopacity="0"
     inkscape:pageshadow="2"
     inkscape:window-width="1600"
     inkscape:window-height="837"
     id="namedview54"
     showgrid="true"
     inkscape:zoom="8"
     inkscape:cx="3.165597"
     inkscape:cy="32.461608"
     inkscape:window-x="0"
     inkscape:window-y="30"
     inkscape:window-maximized="1"
     inkscape:current-layer="g4182">
    <inkscape:grid
       type="xygrid"
       id="grid4188"
       empspacing="4" />
    <inkscape:grid
       type="xygrid"
       id="grid4190"
       spacingx="0.5"
       spacingy="0.5"
       color="#ff3fff"
       opacity="0.1254902"
       empcolor="#3fffff"
       empopacity="0.11764706"
       empspacing="2" />
  </sodipodi:namedview>
  <defs
     id="defs4033">
    <linearGradient
       id="linearGradient3820-7-2-1">
      <stop
         offset="0"
         style="stop-color:#3d3d3d;stop-opacity:1"
         id="stop3822-2-6-3" />
      <stop
         offset="0.5"
         style="stop-color:#686868;stop-opacity:0.49803922"
         id="stop3864-8-7-7" />
      <stop
         offset="1"
         style="stop-color:#686868;stop-opacity:0"
         id="stop3824-1-2-5" />
    </linearGradient>
    <radialGradient
       gradientTransform="matrix(0.27083381,0,0,0.08762273,-2.855072,25.187228)"
       gradientUnits="userSpaceOnUse"
       xlink:href="#linearGradient3820-7-2-1"
       id="radialGradient3018"
       fy="186.17059"
       fx="99.157013"
       r="62.769119"
       cy="186.17059"
       cx="99.157013" />
    <linearGradient
       id="linearGradient4011-7">
      <stop
         offset="0"
         style="stop-color:#ffffff;stop-opacity:1"
         id="stop4013-4" />
      <stop
         offset="0.507761"
         style="stop-color:#ffffff;stop-opacity:0.23529412"
         id="stop4015-61" />
      <stop
         offset="0.83456558"
         style="stop-color:#ffffff;stop-opacity:0.15686275"
         id="stop4017-2" />
      <stop
         offset="1"
         style="stop-color:#ffffff;stop-opacity:0.39215687"
         id="stop4019-2" />
    </linearGradient>
    <linearGradient
       id="linearGradient8838-4">
      <stop
         offset="0"
         style="stop-color:#000000;stop-opacity:1"
         id="stop8840-4" />
      <stop
         offset="1"
         style="stop-color:#000000;stop-opacity:0"
         id="stop8842-8" />
    </linearGradient>
    <linearGradient
       gradientTransform="matrix(0.5135135,0,0,0.5135135,-0.836132,22.978716)"
       gradientUnits="userSpaceOnUse"
       xlink:href="#linearGradient4011-7"
       id="linearGradient3741"
       y2="42.883553"
       x2="71.204407"
       y1="7.8309216"
       x1="71.204407" />
    <radialGradient
       gradientTransform="matrix(1.1294118,0,0,0.2823525,-34.729414,43.694118)"
       gradientUnits="userSpaceOnUse"
       xlink:href="#linearGradient8838-4"
       id="radialGradient3748"
       fy="4.625"
       fx="62.625"
       r="10.625"
       cy="4.625"
       cx="62.625" />
    <linearGradient
       id="linearGradient4632-92-3-0-8-1-6-6">
      <stop
         offset="0"
         style="stop-color:#fafafa;stop-opacity:1"
         id="stop4634-68-8-0-2-9-1-1" />
      <stop
         offset="1"
         style="stop-color:#e1e1e1;stop-opacity:1"
         id="stop4636-8-21-7-1-4-9-4" />
    </linearGradient>
    <radialGradient
       xlink:href="#linearGradient4632-92-3-0-8-1-6-6"
       id="radialGradient3398"
       gradientUnits="userSpaceOnUse"
       gradientTransform="matrix(0,1.2189437,-1.289497,-3.3177771e-8,46.896006,18.350992)"
       cx="6.2751122"
       cy="8.4497671"
       fx="6.2751122"
       fy="8.4497671"
       r="19.99999" />
    <linearGradient
       xlink:href="#linearGradient3104-8-8-97-4-6-2-0-1-4-0-5-8-3-9-1"
       id="linearGradient4200-6"
       gradientUnits="userSpaceOnUse"
       gradientTransform="matrix(0.80749834,0,0,0.83374395,113.01159,-2.35899)"
       x1="-95.837799"
       y1="54.199703"
       x2="-95.837799"
       y2="5.1757793" />
    <linearGradient
       id="linearGradient3104-8-8-97-4-6-2-0-1-4-0-5-8-3-9-1">
      <stop
         offset="0"
         style="stop-color:#000000;stop-opacity:0.32173914"
         id="stop3106-5-4-3-5-0-1-61-9-2-7-3-3-2-6-9" />
      <stop
         offset="1"
         style="stop-color:#000000;stop-opacity:0.27826086"
         id="stop3108-4-3-7-8-2-4-01-9-9-0-6-4-3-7-7" />
    </linearGradient>
    <linearGradient
       id="linearGradient2867-449-88-871-390-598-476-591-434-148-57-177-3-8-8">
      <stop
         id="stop3750-8-9-0"
         style="stop-color:#95a3ab;stop-opacity:1"
         offset="0" />
      <stop
         id="stop3752-3-2-2"
         style="stop-color:#667885;stop-opacity:1"
         offset="0.26238" />
      <stop
         id="stop3754-7-2-2"
         style="stop-color:#485a6c;stop-opacity:1"
         offset="0.704952" />
      <stop
         id="stop3756-9-3-05"
         style="stop-color:#273445;stop-opacity:1"
         offset="1" />
    </linearGradient>
    <linearGradient
       id="linearGradient4011-8">
      <stop
         id="stop4013-9"
         style="stop-color:#ffffff;stop-opacity:1"
         offset="0" />
      <stop
         id="stop4015-2"
         style="stop-color:#ffffff;stop-opacity:0.23529412"
         offset="0.507761" />
      <stop
         id="stop4017-28"
         style="stop-color:#ffffff;stop-opacity:0.15686275"
         offset="0.83456558" />
      <stop
         id="stop4019-23"
         style="stop-color:#ffffff;stop-opacity:0.39215687"
         offset="1" />
    </linearGradient>
    <linearGradient
       y2="44.340794"
       x2="71.204407"
       y1="6.2375584"
       x1="71.204407"
       gradientTransform="matrix(1.6061774,0,0,1.6061774,-83.216761,-24.728225)"
       gradientUnits="userSpaceOnUse"
       id="linearGradient3540"
       xlink:href="#linearGradient4011-8" />
    <radialGradient
       r="19.99999"
       fy="8.4497671"
       fx="1.1978998"
       cy="8.4497671"
       cx="1.1978998"
       gradientTransform="matrix(0,5.0000024,-5.2894057,-1.3609237e-7,68.694364,-17.989501)"
       gradientUnits="userSpaceOnUse"
       id="radialGradient3543"
       xlink:href="#linearGradient2867-449-88-871-390-598-476-591-434-148-57-177-3-8-8" />
  </defs>
  <metadata
     id="metadata4036">
    <rdf:RDF>
      <cc:Work
         rdf:about="">
        <dc:format>image/svg+xml</dc:format>
        <dc:type
           rdf:resource="http://purl.org/dc/dcmitype/StillImage" />
        <dc:title />
      </cc:Work>
    </rdf:RDF>
  </metadata>
  <g
     id="g4182"
     transform="translate(0,16)">
    <path
       d="M 32.000002,-15.238093 C 14.7639,-15.238093 0.7619047,-1.2361042 0.7619047,16 c 0,17.236103 14.0019953,31.2381 31.2380973,31.238095 17.236095,0 31.238105,-14.001992 31.238088,-31.238095 0,-17.2361042 -14.001993,-31.238093 -31.238088,-31.238093 z"
       id="path2555"
       style="color:#000000;display:inline;overflow:visible;visibility:visible;fill:#c6262e;fill-opacity:1;fill-rule:nonzero;stroke:none;stroke-width:1;marker:none;enable-background:accumulate"
       inkscape:connector-curvature="0" />
    <path
       d="m 61.714281,15.998948 c 0,16.411275 -13.304517,29.715335 -29.713907,29.715335 -16.410893,0 -29.7146599,-13.304211 -29.7146599,-29.715335 0,-16.41051588 13.3037669,-29.713229 29.7146599,-29.713229 16.40939,0 29.713907,13.30271312 29.713907,29.713229 l 0,0 z"
       id="path8655-4"
       style="color:#000000;display:inline;overflow:visible;visibility:visible;opacity:0.3;fill:none;stroke:url(#linearGradient3540);stroke-width:1.52380943;stroke-linecap:round;stroke-linejoin:round;stroke-miterlimit:4;stroke-dasharray:none;stroke-dashoffset:0;stroke-opacity:1;marker:none;enable-background:accumulate"
       inkscape:connector-curvature="0" />
    <path
       d="M 32.000002,-15.238094 C 14.7639,-15.238094 0.7619047,-1.2361042 0.7619047,16 c 0,17.236103 14.0019953,31.2381 31.2380973,31.238095 17.236095,0 31.238105,-14.001992 31.238088,-31.238095 0,-17.2361042 -14.001993,-31.238094 -31.238088,-31.238094 z"
       id="path2555-6-0"
       style="color:#000000;display:inline;overflow:visible;visibility:visible;opacity:0.5;fill:#000000;fill-opacity:0;fill-rule:nonzero;stroke:#0e141f;stroke-width:1.52380943;stroke-linecap:round;stroke-linejoin:round;stroke-miterlimit:4;stroke-dasharray:none;stroke-dashoffset:0;stroke-opacity:1;marker:none;enable-background:accumulate"
       inkscape:connector-curvature="0" />
    <path
       style="opacity:0.15;fill:#000000;fill-opacity:1"
       d="M 46.773154,2.6102894 25.87486,7.3994044 23.335917,18.465944 22.750874,17.880909 c -0.141501,-0.141501 -0.359147,-0.141501 -0.500646,0 l -2.819136,2.81909 c -0.141501,0.141501 -0.141501,0.359141 0,0.500637 l 10.035664,10.035503 c 0.141501,0.1415 0.359146,0.1415 0.500644,0 l 2.819136,-2.819091 c 0.141501,-0.1415 0.141501,-0.359142 0,-0.500638 l -0.606728,-0.606717 11.066716,-2.538904 4.810877,-20.8979565 -7.44506,7.4449385 c 0.69661,1.240818 0.511573,2.851745 -0.544227,3.907525 -1.27349,1.273471 -3.35239,1.273471 -4.636764,0 -1.273491,-1.27347 -1.273491,-3.352551 0,-4.636903 1.055797,-1.0557819 2.655865,-1.2408165 3.907588,-0.544218 l 7.434216,-7.4338856 z m -26.482142,19.4610966 -6.519874,4.277634 10.54715,10.546981 4.277704,-6.519769 -8.30498,-8.304846 z"
       id="path4186"
       inkscape:connector-curvature="0" />
    <path
       style="fill:#ffffff"
       d="M 29.466669,29.711723 19.431134,19.676188 c -0.141501,-0.141485 -0.141501,-0.359191 0,-0.500689 l 2.819094,-2.819093 c 0.1415,-0.141501 0.359189,-0.141501 0.500688,0 l 10.035535,10.035535 c 0.141501,0.141501 0.141501,0.359189 0,0.500689 l -2.819093,2.819093 c -0.141501,0.141501 -0.35919,0.141501 -0.500689,0 z"
       id="path5"
       inkscape:connector-curvature="0" />
    <path
       inkscape:connector-curvature="0"
       id="path4178"
       d="M 46.773154,2.6102894 25.87486,7.3994044 23.335917,18.465944 22.750874,17.880909 c -0.141501,-0.141501 -0.359147,-0.141501 -0.500646,0 l -2.819136,2.81909 c -0.141501,0.141501 -0.141501,0.359141 0,0.500637 l 10.035664,10.035503 c 0.141501,0.1415 0.359146,0.1415 0.500644,0 l 2.819136,-2.819091 c 0.141501,-0.1415 0.141501,-0.359142 0,-0.500638 l -0.606728,-0.606717 11.066716,-2.538904 4.810877,-20.8979565 -7.44506,7.4449385 c 0.69661,1.240818 0.511573,2.851745 -0.544227,3.907525 -1.27349,1.273471 -3.35239,1.273471 -4.636764,0 -1.273491,-1.27347 -1.273491,-3.352551 0,-4.636903 1.055797,-1.0557819 2.655865,-1.2408165 3.907588,-0.544218 l 7.434216,-7.4338856 z m -26.482142,19.4610966 -6.519874,4.277634 10.54715,10.546981 4.277704,-6.519769 -8.30498,-8.304846 z"
       style="opacity:0.07000002;fill:none;fill-opacity:1;stroke:#000000;stroke-width:1.52380943;stroke-opacity:1" />
    <polygon
       style="fill:#2b3b4e"
       points="222.8,357.5 183.5,417.4 86.6,320.5 146.5,281.2 "
       id="polygon7"
       transform="matrix(0.10884528,0,0,0.10884528,4.3451794,-10.060344)" />
    <path
       style="fill:#f9c440;fill-opacity:1"
       d="m 48.057444,2.3480189 -7.445018,7.4450158 c 0.69661,1.2408383 0.511574,2.8517473 -0.544227,3.9075473 -1.273488,1.273488 -3.352434,1.273488 -4.636808,0 -1.273489,-1.27349 -1.273489,-3.352436 0,-4.6368089 1.0558,-1.0558003 2.655824,-1.2408365 3.907547,-0.5442255 l 7.434131,-7.4341343 -20.898292,4.7891928 -2.546982,11.1022179 8.816469,8.816468 11.102218,-2.54698 4.810962,-20.8982931 z"
       id="path9"
       inkscape:connector-curvature="0" />
  </g>
</svg>
