<?xml version="1.0" encoding="UTF-8" standalone="no"?>
<!-- Created with Inkscape (http://www.inkscape.org/) -->

<svg
   xmlns:dc="http://purl.org/dc/elements/1.1/"
   xmlns:cc="http://creativecommons.org/ns#"
   xmlns:rdf="http://www.w3.org/1999/02/22-rdf-syntax-ns#"
   xmlns:svg="http://www.w3.org/2000/svg"
   xmlns="http://www.w3.org/2000/svg"
   xmlns:xlink="http://www.w3.org/1999/xlink"
   xmlns:sodipodi="http://sodipodi.sourceforge.net/DTD/sodipodi-0.dtd"
   xmlns:inkscape="http://www.inkscape.org/namespaces/inkscape"
   width="64"
   height="64"
   id="svg2"
   version="1.1"
   inkscape:version="0.91 r13725"
   sodipodi:docname="dolphin-emu.svg">
  <defs
     id="defs4">
    <linearGradient
       id="linearGradient3880">
      <stop
         style="stop-color:#000000;stop-opacity:0.19607843;"
         offset="0"
         id="stop3882" />
      <stop
         style="stop-color:#000000;stop-opacity:0;"
         offset="1"
         id="stop3884" />
    </linearGradient>
    <linearGradient
       id="linearGradient3830">
      <stop
         style="stop-color:#808080;stop-opacity:0.50980395;"
         offset="0"
         id="stop3832" />
      <stop
         id="stop3848"
         offset="0.05"
         style="stop-color:#808080;stop-opacity:0.39215687;" />
      <stop
         id="stop3846"
         offset="0.904248"
         style="stop-color:#808080;stop-opacity:0.47058824;" />
      <stop
         style="stop-color:#808080;stop-opacity:0.58823532;"
         offset="1"
         id="stop3834" />
    </linearGradient>
    <inkscape:path-effect
       effect="skeletal"
       id="path-effect3787"
       is_visible="true"
       pattern="m 55.594343,1001.6632 1,0"
       copytype="single_stretched"
       prop_scale="1"
       scale_y_rel="false"
       spacing="0"
       normal_offset="0"
       tang_offset="0"
       prop_units="false"
       vertical_pattern="false"
       fuse_tolerance="0" />
    <inkscape:path-effect
       effect="spiro"
       id="path-effect3785"
       is_visible="true" />
    <linearGradient
       id="linearGradient3775">
      <stop
         style="stop-color:#ffffff;stop-opacity:0.58823532;"
         offset="0"
         id="stop3777" />
      <stop
         style="stop-color:#ffffff;stop-opacity:1;"
         offset="1"
         id="stop3779" />
    </linearGradient>
    <linearGradient
       id="linearGradient3765">
      <stop
         style="stop-color:#ffffff;stop-opacity:1;"
         offset="0"
         id="stop3767" />
      <stop
         style="stop-color:#e4e4e4;stop-opacity:1;"
         offset="1"
         id="stop3769" />
    </linearGradient>
    <radialGradient
       inkscape:collect="always"
       xlink:href="#linearGradient3765"
       id="radialGradient3771"
       cx="14.891734"
       cy="-17.680855"
       fx="14.891734"
       fy="-17.680855"
       r="25.570608"
       gradientUnits="userSpaceOnUse"
       gradientTransform="matrix(-1.7922484,4.7450628e-8,-3.529013e-8,-1.3329366,41.58142,-41.248313)" />
    <linearGradient
       inkscape:collect="always"
       xlink:href="#linearGradient3775"
       id="linearGradient3781"
       x1="15.123692"
       y1="-18.801283"
       x2="15.123692"
       y2="32.56842"
       gradientUnits="userSpaceOnUse" />
    <linearGradient
       inkscape:collect="always"
       xlink:href="#linearGradient3830"
       id="linearGradient3836"
       x1="29.461779"
       y1="1008.808"
       x2="29.461779"
       y2="1033.2281"
       gradientUnits="userSpaceOnUse" />
    <radialGradient
       inkscape:collect="always"
       xlink:href="#linearGradient3765"
       id="radialGradient3872"
       gradientUnits="userSpaceOnUse"
       gradientTransform="matrix(-1.7922484,4.7450628e-8,-3.529013e-8,-1.3329366,41.58142,-41.248313)"
       cx="14.891734"
       cy="-17.680855"
       fx="14.891734"
       fy="-17.680855"
       r="25.570608" />
    <linearGradient
       inkscape:collect="always"
       xlink:href="#linearGradient3775"
       id="linearGradient3874"
       gradientUnits="userSpaceOnUse"
       x1="15.123692"
       y1="-18.801283"
       x2="15.123692"
       y2="32.56842" />
    <linearGradient
       inkscape:collect="always"
       xlink:href="#linearGradient3830"
       id="linearGradient3876"
       gradientUnits="userSpaceOnUse"
       x1="29.461779"
       y1="1008.808"
       x2="29.461779"
       y2="1033.2281" />
    <radialGradient
       inkscape:collect="always"
       xlink:href="#linearGradient3880"
       id="radialGradient3888"
       cx="32.629204"
       cy="60.414944"
       fx="32.629204"
       fy="60.414944"
       r="26.290409"
       gradientTransform="matrix(1,0,0,0.10474308,0,54.086896)"
       gradientUnits="userSpaceOnUse" />
    <radialGradient
       inkscape:collect="always"
       xlink:href="#linearGradient3765"
       id="radialGradient3901"
       gradientUnits="userSpaceOnUse"
       gradientTransform="matrix(-1.7922484,4.7450628e-8,-3.529013e-8,-1.3329366,41.58142,-41.248313)"
       cx="14.891734"
       cy="-17.680855"
       fx="14.891734"
       fy="-17.680855"
       r="25.570608" />
    <linearGradient
       inkscape:collect="always"
       xlink:href="#linearGradient3775"
       id="linearGradient3903"
       gradientUnits="userSpaceOnUse"
       x1="15.123692"
       y1="-18.801283"
       x2="15.123692"
       y2="32.56842" />
    <linearGradient
       inkscape:collect="always"
       xlink:href="#linearGradient3830"
       id="linearGradient3905"
       gradientUnits="userSpaceOnUse"
       x1="29.461779"
       y1="1008.808"
       x2="29.461779"
       y2="1033.2281" />
    <radialGradient
       inkscape:collect="always"
       xlink:href="#linearGradient3765"
       id="radialGradient3914"
       gradientUnits="userSpaceOnUse"
       gradientTransform="matrix(-2.224641,5.8898426e-8,-4.3804123e-8,-1.654517,64.733585,960.68023)"
       cx="14.891734"
       cy="-17.680855"
       fx="14.891734"
       fy="-17.680855"
       r="25.570608" />
    <linearGradient
       inkscape:collect="always"
       xlink:href="#linearGradient3775"
       id="linearGradient3916"
       gradientUnits="userSpaceOnUse"
       x1="15.123692"
       y1="-18.801283"
       x2="15.123692"
       y2="32.56842" />
    <linearGradient
       inkscape:collect="always"
       xlink:href="#linearGradient3830"
       id="linearGradient3918"
       gradientUnits="userSpaceOnUse"
       x1="29.461779"
       y1="1008.808"
       x2="29.461779"
       y2="1033.2281" />
    <linearGradient
       inkscape:collect="always"
       xlink:href="#linearGradient3830"
       id="linearGradient3922"
       gradientUnits="userSpaceOnUse"
       x1="29.461779"
       y1="1008.808"
       x2="29.461779"
       y2="1033.2281"
       gradientTransform="translate(0,-1.3508906)" />
    <linearGradient
       inkscape:collect="always"
       xlink:href="#linearGradient3830"
       id="linearGradient3022"
       gradientUnits="userSpaceOnUse"
       gradientTransform="translate(0,-1.3508906)"
       x1="29.461779"
       y1="1008.808"
       x2="29.461779"
       y2="1033.2281" />
    <linearGradient
       inkscape:collect="always"
       xlink:href="#linearGradient3830"
       id="linearGradient3794"
       gradientUnits="userSpaceOnUse"
       gradientTransform="matrix(2.0661021,0,0,2.0661021,-1.0822163,-1122.9211)"
       x1="29.461779"
       y1="1008.808"
       x2="29.461779"
       y2="1033.2281" />
    <linearGradient
       inkscape:collect="always"
       xlink:href="#linearGradient3830"
       id="linearGradient3798"
       gradientUnits="userSpaceOnUse"
       gradientTransform="matrix(2.0661021,0,0,2.0661021,-1.0822163,-1122.9211)"
       x1="29.461779"
       y1="1008.808"
       x2="29.461779"
       y2="1033.2281" />
    <linearGradient
       inkscape:collect="always"
       xlink:href="#linearGradient3775"
       id="linearGradient3804"
       gradientUnits="userSpaceOnUse"
       x1="15.123692"
       y1="-18.801283"
       x2="15.123692"
       y2="32.56842"
       gradientTransform="matrix(1.2203876,0,0,1.2203876,13.437779,1012.0226)" />
    <linearGradient
       inkscape:collect="always"
       xlink:href="#linearGradient3830"
       id="linearGradient3028"
       gradientUnits="userSpaceOnUse"
       gradientTransform="matrix(1.075623,0,0,1.075623,-1.882125,-77.700656)"
       x1="29.461779"
       y1="1008.808"
       x2="29.461779"
       y2="1033.2281" />
    <linearGradient
       inkscape:collect="always"
       xlink:href="#linearGradient3830"
       id="linearGradient3032"
       gradientUnits="userSpaceOnUse"
       gradientTransform="matrix(1.075623,0,0,1.075623,-1.882125,-77.700656)"
       x1="29.461779"
       y1="1008.808"
       x2="29.461779"
       y2="1033.2281" />
  </defs>
  <sodipodi:namedview
     id="base"
     pagecolor="#ffffff"
     bordercolor="#666666"
     borderopacity="1.0"
     inkscape:pageopacity="0.0"
     inkscape:pageshadow="2"
     inkscape:zoom="2.4058204"
     inkscape:cx="9.3513418"
     inkscape:cy="25.799353"
     inkscape:document-units="px"
     inkscape:current-layer="layer1"
     showgrid="false"
     borderlayer="true"
     inkscape:showpageshadow="false"
     inkscape:window-width="1600"
     inkscape:window-height="837"
     inkscape:window-x="0"
     inkscape:window-y="30"
     inkscape:window-maximized="1" />
  <metadata
     id="metadata7">
    <rdf:RDF>
      <cc:Work
         rdf:about="">
        <dc:format>image/svg+xml</dc:format>
        <dc:type
           rdf:resource="http://purl.org/dc/dcmitype/StillImage" />
        <dc:title></dc:title>
      </cc:Work>
    </rdf:RDF>
  </metadata>
  <g
     inkscape:label="Layer 1"
     inkscape:groupmode="layer"
     id="layer1"
     transform="translate(0,-988.36218)">
    <circle
       r="31.739698"
       cy="1020.3622"
       cx="32"
       style="fill:url(#radialGradient3914);fill-opacity:1;stroke:none"
       id="path2985" />
    <circle
       r="31.739698"
       cy="1020.3622"
       cx="32"
       id="path3755"
       style="fill:none;stroke:#828282;stroke-width:0.52060497;stroke-miterlimit:4;stroke-dasharray:none;stroke-opacity:0.58823529" />
    <circle
       r="31.206053"
       cy="1020.3622"
       cx="32"
       style="fill:none;stroke:url(#linearGradient3804);stroke-width:0.52868098;stroke-miterlimit:4;stroke-dasharray:none;stroke-opacity:0.58823529"
       id="path3773" />
    <path
       style="fill:url(#linearGradient3032);fill-opacity:1;stroke:none"
       d="m 21.24377,1007.3539 c -7.202958,0 -13.0083156,5.8054 -13.0083156,13.0084 0,7.2029 5.8053576,13.0083 13.0083156,13.0083 l 21.512461,0 c 7.202958,0 13.008314,-5.8054 13.008314,-13.0083 0,-7.203 -5.805356,-13.0084 -13.008314,-13.0084 l -21.512461,0 z m 25.478821,4.4706 c 0.101861,-0.02 0.194491,0 0.302519,0 0.864227,0 1.579821,0.682 1.579821,1.5462 0,0.8642 -0.715594,1.5798 -1.579821,1.5798 -0.864228,0 -1.546208,-0.7156 -1.546208,-1.5798 0,-0.7562 0.530626,-1.4003 1.243689,-1.5462 z m -30.419964,0.3362 1.344529,0 c 0.402494,0 0.73949,0.3033 0.73949,0.7058 l 0,2.084 2.050407,0 c 0.402494,0 0.73949,0.337 0.73949,0.7395 l 0,1.311 c 0,0.4025 -0.336996,0.7395 -0.73949,0.7395 l -2.050407,0 0,2.084 c 0,0.4025 -0.336996,0.7058 -0.73949,0.7058 l -1.344529,0 c -0.402495,0 -0.739491,-0.3033 -0.739491,-0.7058 l 0,-2.084 -2.050407,0 c -0.402494,0 -0.73949,-0.337 -0.73949,-0.7395 l 0,-1.311 c 0,-0.4025 0.336996,-0.7395 0.73949,-0.7395 l 2.050407,0 0,-2.084 c 0,-0.4025 0.336996,-0.7058 0.739491,-0.7058 z m 27.56284,2.7898 c 0.864228,0 1.546208,0.682 1.546208,1.5462 0,0.8643 -0.68198,1.5799 -1.546208,1.5799 -0.864227,0 -1.579821,-0.7156 -1.579821,-1.5799 0,-0.8642 0.715594,-1.5462 1.579821,-1.5462 z m 6.352899,0 c 0.864228,0 1.57982,0.682 1.57982,1.5462 0,0.8643 -0.715592,1.5799 -1.57982,1.5799 -0.864228,0 -1.546209,-0.7156 -1.546209,-1.5799 0,-0.8642 0.681981,-1.5462 1.546209,-1.5462 z m -22.420018,1.2773 1.680661,0 c 0.402495,0 0.739491,0.3034 0.739491,0.7059 l 0,0.1345 c 0,0.4025 -0.336996,0.7058 -0.739491,0.7058 l -1.680661,0 c -0.402495,0 -0.705878,-0.3033 -0.705878,-0.7058 l 0,-0.1345 c 0,-0.4025 0.303383,-0.7059 0.705878,-0.7059 z m 6.957936,0 1.680662,0 c 0.402494,0 0.705877,0.3034 0.705877,0.7059 l 0,0.1345 c 0,0.4025 -0.303383,0.7058 -0.705877,0.7058 l -1.680662,0 c -0.402495,0 -0.73949,-0.3033 -0.73949,-0.7058 l 0,-0.1345 c 0,-0.4025 0.336995,-0.7059 0.73949,-0.7059 z m 12.268826,1.5127 c 0.864227,0 1.579821,0.6819 1.579821,1.5462 0,0.8641 -0.715594,1.5797 -1.579821,1.5797 -0.864228,0 -1.546208,-0.7156 -1.546208,-1.5797 0,-0.8643 0.68198,-1.5462 1.546208,-1.5462 z m -22.386405,5.3108 c 2.037107,0 3.663841,1.6267 3.663841,3.6638 0,2.0371 -1.626734,3.6975 -3.663841,3.6975 -2.037107,0 -3.697454,-1.6604 -3.697454,-3.6975 0,-2.0371 1.660347,-3.6638 3.697454,-3.6638 z m 14.857044,0 c 2.037107,0 3.697454,1.6267 3.697454,3.6638 0,2.0371 -1.660347,3.6975 -3.697454,3.6975 -2.037108,0 -3.697455,-1.6604 -3.697455,-3.6975 0,-2.0371 1.660347,-3.6638 3.697455,-3.6638 z"
       id="rect3789"
       inkscape:connector-curvature="0" />
    <path
       inkscape:connector-curvature="0"
       style="fill:#ffffff;fill-opacity:0.19607843;stroke:none"
       d="m 32.000001,988.63136 c -17.529352,0 -31.73087994,14.20154 -31.73087994,31.73094 0,11.0694 5.66136634,20.8074 14.25200494,26.4872 -1.096303,-12.8453 4.036835,-25.9686 14.857043,-34.7225 8.633596,-6.9848 19.216621,-9.815 29.41157,-8.773 -5.631852,-8.85311 -15.519886,-14.72264 -26.789738,-14.72264 z"
       id="path3859" />
    <path
       inkscape:connector-curvature="0"
       id="path3927"
       d="m 21.24377,1007.3539 c -7.202958,0 -13.0083156,5.8054 -13.0083156,13.0084 0,7.2029 5.8053576,13.0083 13.0083156,13.0083 l 21.512461,0 c 7.202958,0 13.008314,-5.8054 13.008314,-13.0083 0,-7.203 -5.805356,-13.0084 -13.008314,-13.0084 l -21.512461,0 z m 25.478821,4.4706 c 0.101861,-0.02 0.194491,0 0.302519,0 0.864227,0 1.579821,0.682 1.579821,1.5462 0,0.8642 -0.715594,1.5798 -1.579821,1.5798 -0.864228,0 -1.546208,-0.7156 -1.546208,-1.5798 0,-0.7562 0.530626,-1.4003 1.243689,-1.5462 z m -30.419964,0.3362 1.344529,0 c 0.402494,0 0.73949,0.3033 0.73949,0.7058 l 0,2.084 2.050407,0 c 0.402494,0 0.73949,0.337 0.73949,0.7395 l 0,1.311 c 0,0.4025 -0.336996,0.7395 -0.73949,0.7395 l -2.050407,0 0,2.084 c 0,0.4025 -0.336996,0.7058 -0.73949,0.7058 l -1.344529,0 c -0.402495,0 -0.739491,-0.3033 -0.739491,-0.7058 l 0,-2.084 -2.050407,0 c -0.402494,0 -0.73949,-0.337 -0.73949,-0.7395 l 0,-1.311 c 0,-0.4025 0.336996,-0.7395 0.73949,-0.7395 l 2.050407,0 0,-2.084 c 0,-0.4025 0.336996,-0.7058 0.739491,-0.7058 z m 27.56284,2.7898 c 0.864228,0 1.546208,0.682 1.546208,1.5462 0,0.8643 -0.68198,1.5799 -1.546208,1.5799 -0.864227,0 -1.579821,-0.7156 -1.579821,-1.5799 0,-0.8642 0.715594,-1.5462 1.579821,-1.5462 z m 6.352899,0 c 0.864228,0 1.57982,0.682 1.57982,1.5462 0,0.8643 -0.715592,1.5799 -1.57982,1.5799 -0.864228,0 -1.546209,-0.7156 -1.546209,-1.5799 0,-0.8642 0.681981,-1.5462 1.546209,-1.5462 z m -22.420018,1.2773 1.680661,0 c 0.402495,0 0.739491,0.3034 0.739491,0.7059 l 0,0.1345 c 0,0.4025 -0.336996,0.7058 -0.739491,0.7058 l -1.680661,0 c -0.402495,0 -0.705878,-0.3033 -0.705878,-0.7058 l 0,-0.1345 c 0,-0.4025 0.303383,-0.7059 0.705878,-0.7059 z m 6.957936,0 1.680662,0 c 0.402494,0 0.705877,0.3034 0.705877,0.7059 l 0,0.1345 c 0,0.4025 -0.303383,0.7058 -0.705877,0.7058 l -1.680662,0 c -0.402495,0 -0.73949,-0.3033 -0.73949,-0.7058 l 0,-0.1345 c 0,-0.4025 0.336995,-0.7059 0.73949,-0.7059 z m 12.268826,1.5127 c 0.864227,0 1.579821,0.6819 1.579821,1.5462 0,0.8641 -0.715594,1.5797 -1.579821,1.5797 -0.864228,0 -1.546208,-0.7156 -1.546208,-1.5797 0,-0.8643 0.68198,-1.5462 1.546208,-1.5462 z m -22.386405,5.3108 c 2.037107,0 3.663841,1.6267 3.663841,3.6638 0,2.0371 -1.626734,3.6975 -3.663841,3.6975 -2.037107,0 -3.697454,-1.6604 -3.697454,-3.6975 0,-2.0371 1.660347,-3.6638 3.697454,-3.6638 z m 14.857044,0 c 2.037107,0 3.697454,1.6267 3.697454,3.6638 0,2.0371 -1.660347,3.6975 -3.697454,3.6975 -2.037108,0 -3.697455,-1.6604 -3.697455,-3.6975 0,-2.0371 1.660347,-3.6638 3.697455,-3.6638 z"
       style="fill:url(#linearGradient3028);fill-opacity:1;stroke:none" />
    <rect
       style="fill:none;stroke:#b4b4b4;stroke-width:0.52060497;stroke-miterlimit:4;stroke-dasharray:none;stroke-opacity:0.58823529"
       id="rect3933"
       width="47.550346"
       height="26.160734"
       x="8.2489119"
       y="1007.2488"
       rx="13.080367"
       ry="13.080367" />
  </g>
</svg>
