<?xml version="1.0" encoding="UTF-8" standalone="no"?>
<svg
   xmlns:dc="http://purl.org/dc/elements/1.1/"
   xmlns:cc="http://creativecommons.org/ns#"
   xmlns:rdf="http://www.w3.org/1999/02/22-rdf-syntax-ns#"
   xmlns:svg="http://www.w3.org/2000/svg"
   xmlns="http://www.w3.org/2000/svg"
   xmlns:xlink="http://www.w3.org/1999/xlink"
   xmlns:sodipodi="http://sodipodi.sourceforge.net/DTD/sodipodi-0.dtd"
   xmlns:inkscape="http://www.inkscape.org/namespaces/inkscape"
   id="svg4031"
   height="48"
   width="48"
   version="1.1"
   inkscape:version="0.91 r13725"
   sodipodi:docname="planner_team.svg">
  <sodipodi:namedview
     pagecolor="#ffffff"
     bordercolor="#666666"
     borderopacity="1"
     objecttolerance="10"
     gridtolerance="10"
     guidetolerance="10"
     inkscape:pageopacity="0"
     inkscape:pageshadow="2"
     inkscape:window-width="1366"
     inkscape:window-height="705"
     id="namedview54"
     showgrid="true"
     inkscape:zoom="11.313708"
     inkscape:cx="24.770313"
     inkscape:cy="22.442859"
     inkscape:window-x="0"
     inkscape:window-y="30"
     inkscape:window-maximized="1"
     inkscape:current-layer="g4182">
    <inkscape:grid
       type="xygrid"
       id="grid4188"
       empspacing="4" />
    <inkscape:grid
       type="xygrid"
       id="grid4190"
       spacingx="0.5"
       spacingy="0.5"
       color="#ff3fff"
       opacity="0.1254902"
       empcolor="#3fffff"
       empopacity="0.11764706"
       empspacing="2" />
  </sodipodi:namedview>
  <defs
     id="defs4033">
    <linearGradient
       id="linearGradient3820-7-2-1">
      <stop
         offset="0"
         style="stop-color:#3d3d3d;stop-opacity:1"
         id="stop3822-2-6-3" />
      <stop
         offset="0.5"
         style="stop-color:#686868;stop-opacity:0.49803922"
         id="stop3864-8-7-7" />
      <stop
         offset="1"
         style="stop-color:#686868;stop-opacity:0"
         id="stop3824-1-2-5" />
    </linearGradient>
    <radialGradient
       gradientTransform="matrix(0.27083381,0,0,0.08762273,-2.855072,25.187228)"
       gradientUnits="userSpaceOnUse"
       xlink:href="#linearGradient3820-7-2-1"
       id="radialGradient3018"
       fy="186.17059"
       fx="99.157013"
       r="62.769119"
       cy="186.17059"
       cx="99.157013" />
    <linearGradient
       id="linearGradient4011-7">
      <stop
         offset="0"
         style="stop-color:#ffffff;stop-opacity:1"
         id="stop4013-4" />
      <stop
         offset="0.507761"
         style="stop-color:#ffffff;stop-opacity:0.23529412"
         id="stop4015-61" />
      <stop
         offset="0.83456558"
         style="stop-color:#ffffff;stop-opacity:0.15686275"
         id="stop4017-2" />
      <stop
         offset="1"
         style="stop-color:#ffffff;stop-opacity:0.39215687"
         id="stop4019-2" />
    </linearGradient>
    <linearGradient
       id="linearGradient8838-4">
      <stop
         offset="0"
         style="stop-color:#000000;stop-opacity:1"
         id="stop8840-4" />
      <stop
         offset="1"
         style="stop-color:#000000;stop-opacity:0"
         id="stop8842-8" />
    </linearGradient>
    <linearGradient
       gradientTransform="matrix(0.5135135,0,0,0.5135135,-0.836132,22.978716)"
       gradientUnits="userSpaceOnUse"
       xlink:href="#linearGradient4011-7"
       id="linearGradient3741"
       y2="42.883553"
       x2="71.204407"
       y1="7.8309216"
       x1="71.204407" />
    <radialGradient
       gradientTransform="matrix(1.1294118,0,0,0.2823525,-34.729414,43.694118)"
       gradientUnits="userSpaceOnUse"
       xlink:href="#linearGradient8838-4"
       id="radialGradient3748"
       fy="4.625"
       fx="62.625"
       r="10.625"
       cy="4.625"
       cx="62.625" />
    <linearGradient
       id="linearGradient4632-92-3-0-8-1-6-6">
      <stop
         offset="0"
         style="stop-color:#fafafa;stop-opacity:1"
         id="stop4634-68-8-0-2-9-1-1" />
      <stop
         offset="1"
         style="stop-color:#e1e1e1;stop-opacity:1"
         id="stop4636-8-21-7-1-4-9-4" />
    </linearGradient>
    <radialGradient
       xlink:href="#linearGradient4632-92-3-0-8-1-6-6"
       id="radialGradient3398"
       gradientUnits="userSpaceOnUse"
       gradientTransform="matrix(0,1.2189437,-1.289497,-3.3177771e-8,46.896006,18.350992)"
       cx="6.2751122"
       cy="8.4497671"
       fx="6.2751122"
       fy="8.4497671"
       r="19.99999" />
    <linearGradient
       xlink:href="#linearGradient3104-8-8-97-4-6-2-0-1-4-0-5-8-3-9-1"
       id="linearGradient4200-6"
       gradientUnits="userSpaceOnUse"
       gradientTransform="matrix(0.80749834,0,0,0.83374395,113.01159,-2.35899)"
       x1="-95.837799"
       y1="54.199703"
       x2="-95.837799"
       y2="5.1757793" />
    <linearGradient
       id="linearGradient3104-8-8-97-4-6-2-0-1-4-0-5-8-3-9-1">
      <stop
         offset="0"
         style="stop-color:#000000;stop-opacity:0.32173914"
         id="stop3106-5-4-3-5-0-1-61-9-2-7-3-3-2-6-9" />
      <stop
         offset="1"
         style="stop-color:#000000;stop-opacity:0.27826086"
         id="stop3108-4-3-7-8-2-4-01-9-9-0-6-4-3-7-7" />
    </linearGradient>
    <linearGradient
       id="linearGradient2867-449-88-871-390-598-476-591-434-148-57-177-3-8-8">
      <stop
         id="stop3750-8-9-0"
         style="stop-color:#95a3ab;stop-opacity:1"
         offset="0" />
      <stop
         id="stop3752-3-2-2"
         style="stop-color:#667885;stop-opacity:1"
         offset="0.26238" />
      <stop
         id="stop3754-7-2-2"
         style="stop-color:#485a6c;stop-opacity:1"
         offset="0.704952" />
      <stop
         id="stop3756-9-3-05"
         style="stop-color:#273445;stop-opacity:1"
         offset="1" />
    </linearGradient>
    <linearGradient
       id="linearGradient4011-8">
      <stop
         id="stop4013-9"
         style="stop-color:#ffffff;stop-opacity:1"
         offset="0" />
      <stop
         id="stop4015-2"
         style="stop-color:#ffffff;stop-opacity:0.23529412"
         offset="0.507761" />
      <stop
         id="stop4017-28"
         style="stop-color:#ffffff;stop-opacity:0.15686275"
         offset="0.83456558" />
      <stop
         id="stop4019-23"
         style="stop-color:#ffffff;stop-opacity:0.39215687"
         offset="1" />
    </linearGradient>
    <linearGradient
       y2="44.340794"
       x2="71.204407"
       y1="6.2375584"
       x1="71.204407"
       gradientTransform="matrix(1.054054,0,0,1.054054,-51.611004,-2.7279013)"
       gradientUnits="userSpaceOnUse"
       id="linearGradient3540"
       xlink:href="#linearGradient4011-8" />
    <radialGradient
       r="19.99999"
       fy="8.4497671"
       fx="1.1978998"
       cy="8.4497671"
       cx="1.1978998"
       gradientTransform="matrix(0,5.0000024,-5.2894057,-1.3609237e-7,68.694364,-17.989501)"
       gradientUnits="userSpaceOnUse"
       id="radialGradient3543"
       xlink:href="#linearGradient2867-449-88-871-390-598-476-591-434-148-57-177-3-8-8" />
  </defs>
  <metadata
     id="metadata4036">
    <rdf:RDF>
      <cc:Work
         rdf:about="">
        <dc:format>image/svg+xml</dc:format>
        <dc:type
           rdf:resource="http://purl.org/dc/dcmitype/StillImage" />
        <dc:title />
      </cc:Work>
    </rdf:RDF>
  </metadata>
  <g
     id="g4182">
    <path
       d="m 40.999999,41.499999 a 17,5.4999999 0 1 1 -33.999999,0 17,5.4999999 0 1 1 33.999999,0 z"
       id="path3818-0-5"
       style="fill:url(#radialGradient3018);fill-opacity:1;stroke:none" />
    <path
       d="M 24.000003,3.4999978 C 12.68881,3.4999978 3.5,12.688804 3.5,23.999998 3.5,35.311192 12.68881,44.500003 24.000003,44.5 35.311191,44.5 44.500011,35.311192 44.5,23.999998 44.5,12.688804 35.311191,3.4999978 24.000003,3.4999978 z"
       id="path2555"
       style="color:#000000;fill:#8cd5ff;fill-opacity:1;fill-rule:nonzero;stroke:none;stroke-width:1;marker:none;visibility:visible;display:inline;overflow:visible;enable-background:accumulate" />
    <path
       inkscape:connector-curvature="0"
       id="path4487"
       d="m 24.091797,19.013266 c -1.070976,0.01108 -2.387103,0.527393 -3.859375,2.152344 l 1.279297,-0.667969 c 0,0 -1.71106,0.784425 -1.464844,2.970703 -0.01503,0.0012 -0.03224,-0.0063 -0.04687,-0.0039 -0.348984,0.11632 -0.465077,0.727385 -0.232422,1.367187 0.174491,0.436229 0.435744,0.754981 0.726563,0.900391 0.174492,1.163276 0.785316,2.18051 1.599609,2.820312 -0.11632,0.116337 -0.37715,0.40883 -0.667969,0.757813 -0.129527,0.09714 -0.335947,0.21921 -0.541015,0.341797 -1.677425,-0.494124 -2.543608,-0.957827 -2.949219,-1.244141 -0.17449,-0.232655 -0.350255,-0.436192 -0.4375,-0.523437 0.552556,-0.43623 0.930548,-1.105199 1.046875,-1.861328 0.174492,-0.08724 0.379767,-0.32051 0.496094,-0.611329 0.143509,-0.401804 0.08641,-0.800198 -0.138672,-0.894531 0.0521,-0.638219 -0.117781,-1.419649 -0.996094,-2.042969 0,0 -1.861145,-2.355672 -4.478516,0.523438 l 0.84375,-0.435547 c 0,0 -1.100196,0.528782 -0.964843,1.947266 -0.01734,0.0037 -0.03638,-0.0062 -0.05274,0.002 -0.232654,0.08724 -0.320968,0.464161 -0.146484,0.90039 0.11632,0.290819 0.290567,0.524084 0.49414,0.611329 0.11632,0.785212 0.523401,1.425098 1.046876,1.861328 -0.08724,0.08724 -0.261056,0.261486 -0.435547,0.49414 -0.465311,0.348984 -1.598781,0.959594 -4.128907,1.570313 0,0 -0.02973,0.290548 -0.08789,0.755859 0.1744912,0.232656 0.3784572,0.46635 0.5820312,0.669922 0.494393,0.494393 1.04553,0.901016 1.65625,1.25 0.11632,0.08724 0.262794,0.144954 0.408203,0.203125 0.668885,0.319903 1.396429,0.553594 2.181641,0.669922 0.174492,0.02908 0.348944,0.05859 0.523437,0.05859 l 0.05664,0 0.146484,0 c 0.05533,0 0.110688,0.0038 0.166016,0.0078 0.0829,0.09216 0.159929,0.192914 0.240234,0.28125 0.727048,0.727048 1.571548,1.36715 2.53125,1.890625 0.203574,0.11632 0.405803,0.203986 0.609375,0.320313 1.017867,0.494392 2.123834,0.843086 3.28711,1.017578 0.261737,0.02908 0.523634,0.08789 0.814453,0.08789 l 0.08789,0 0.203125,0 c 0.261737,0.02908 0.523635,0.0293 0.814454,0.0293 0.261737,0 0.552716,-2.17e-4 0.814453,-0.0293 l 0.203125,0 0.08789,0 c 0.290819,-0.02908 0.550762,-0.05881 0.8125,-0.08789 0.261737,-0.02908 0.496076,-0.08635 0.757813,-0.144531 0.05816,0 0.14497,-0.02951 0.203125,-0.05859 0.203574,-0.05816 0.435098,-0.115656 0.638672,-0.173828 0.232656,-0.05816 0.437267,-0.145169 0.669922,-0.232422 0.02908,0 0.08614,-0.02951 0.115234,-0.05859 0.523473,-0.203572 1.019279,-0.437482 1.513672,-0.699219 0.93062,-0.523475 1.773167,-1.161624 2.529297,-1.888672 0.08226,-0.08226 0.157917,-0.170251 0.236328,-0.255859 0.03776,-0.0039 0.07552,4.34e-4 0.113281,-0.0059 l 0.115234,0 0.05859,0 c 0.174492,-0.02908 0.378242,-0.02951 0.552734,-0.05859 0.174493,-0.02908 0.319649,-0.05881 0.494141,-0.08789 0.05816,0 0.08831,-0.0293 0.146485,-0.0293 0.145417,-0.02908 0.290136,-0.05707 0.435546,-0.115234 0.145417,-0.05816 0.290138,-0.08831 0.435547,-0.146484 0.02908,0 0.05881,-0.0293 0.08789,-0.0293 0.348983,-0.116321 0.66838,-0.290353 0.988281,-0.464844 0.61072,-0.348984 1.192894,-0.755607 1.658203,-1.25 0.203574,-0.203572 0.407541,-0.437266 0.582032,-0.669922 -0.05816,-0.436229 -0.08789,-0.726562 -0.08789,-0.726562 -2.530126,-0.61072 -3.663595,-1.22133 -4.128906,-1.570313 -0.174491,-0.232655 -0.350255,-0.436192 -0.4375,-0.523437 0.552556,-0.43623 0.930548,-1.105199 1.046875,-1.861328 0.174492,-0.08724 0.379766,-0.32051 0.496093,-0.611329 0.145417,-0.407147 0.08616,-0.813143 -0.146484,-0.90039 -0.0066,-0.0016 -0.01472,0.0013 -0.02148,0 0.0436,-0.632159 -0.13255,-1.394975 -0.996094,-2.007813 0,0 -1.861145,-2.35567 -4.478516,0.523438 l 0.84375,-0.435547 c 0,0 -1.098228,0.509663 -0.964843,1.917969 -0.0081,0.0029 -0.01758,-0.002 -0.02539,0.002 -0.232654,0.08724 -0.319031,0.464161 -0.144531,0.90039 0.116321,0.290819 0.290566,0.524084 0.49414,0.611329 0.116321,0.785212 0.5234,1.425098 1.046875,1.861328 -0.08724,0.08724 -0.261057,0.261486 -0.435547,0.49414 -0.387157,0.290369 -1.291371,0.763627 -3.023437,1.265625 -0.194273,-0.117388 -0.397183,-0.236546 -0.525391,-0.333984 -0.290819,-0.378066 -0.551642,-0.641485 -0.667968,-0.757813 0.814294,-0.639802 1.396037,-1.657036 1.599609,-2.820312 0.290819,-0.11632 0.55207,-0.464162 0.726562,-0.900391 0.232656,-0.639802 0.14565,-1.250858 -0.232421,-1.367187 -0.0025,-8.44e-4 -0.0053,-0.0012 -0.0078,-0.002 0.0817,-0.957652 -0.171925,-2.132641 -1.503906,-3.082032 0,0 -1.103713,-1.385648 -2.888672,-1.367187 z"
       style="fill:none;fill-opacity:1;opacity:0.07;stroke:#000000;stroke-opacity:1" />
    <path
       id="path4520"
       d="M 24.246094 10.958984 C 22.210361 10.958984 20.552734 12.267681 20.552734 13.867188 C 20.552734 15.175873 21.628365 16.252795 23.140625 16.630859 L 24.246094 18.201172 L 25.380859 16.630859 C 26.864036 16.252795 27.939453 15.146791 27.939453 13.867188 C 27.939453 12.267682 26.281827 10.958984 24.246094 10.958984 z M 15.8125 15.466797 C 14.416569 15.466797 13.253906 16.367544 13.253906 17.472656 C 13.253906 18.374195 14.009477 19.130841 15.027344 19.392578 L 15.8125 20.46875 L 16.597656 19.392578 C 17.615524 19.130841 18.371094 18.374195 18.371094 17.472656 C 18.371094 16.367544 17.237513 15.466797 15.8125 15.466797 z M 32.417969 15.466797 C 31.022037 15.466797 29.859375 16.367544 29.859375 17.472656 C 29.859375 18.374195 30.614947 19.130841 31.632812 19.392578 L 32.417969 20.46875 L 33.203125 19.392578 C 34.250074 19.130841 34.976562 18.374195 34.976562 17.472656 C 34.976562 16.367544 33.842982 15.466797 32.417969 15.466797 z "
       style="fill:none;fill-opacity:1;opacity:0.07;stroke:#000000;stroke-opacity:1" />
    <path
       style="fill:#000000;fill-opacity:1;opacity:0.15"
       d="m 24.091797,19.013266 c -1.070976,0.01108 -2.387103,0.527393 -3.859375,2.152344 l 1.279297,-0.667969 c 0,0 -1.71106,0.784425 -1.464844,2.970703 -0.01503,0.0012 -0.03224,-0.0063 -0.04687,-0.0039 -0.348984,0.11632 -0.465077,0.727385 -0.232422,1.367187 0.174491,0.436229 0.435744,0.754981 0.726563,0.900391 0.174492,1.163276 0.785316,2.18051 1.599609,2.820312 -0.11632,0.116337 -0.37715,0.40883 -0.667969,0.757813 -0.129527,0.09714 -0.335947,0.21921 -0.541015,0.341797 -1.677425,-0.494124 -2.543608,-0.957827 -2.949219,-1.244141 -0.17449,-0.232655 -0.350255,-0.436192 -0.4375,-0.523437 0.552556,-0.43623 0.930548,-1.105199 1.046875,-1.861328 0.174492,-0.08724 0.379767,-0.32051 0.496094,-0.611329 0.143509,-0.401804 0.08641,-0.800198 -0.138672,-0.894531 0.0521,-0.638219 -0.117781,-1.419649 -0.996094,-2.042969 0,0 -1.861145,-2.355672 -4.478516,0.523438 l 0.84375,-0.435547 c 0,0 -1.100196,0.528782 -0.964843,1.947266 -0.01734,0.0037 -0.03638,-0.0062 -0.05274,0.002 -0.232654,0.08724 -0.320968,0.464161 -0.146484,0.90039 0.11632,0.290819 0.290567,0.524084 0.49414,0.611329 0.11632,0.785212 0.523401,1.425098 1.046876,1.861328 -0.08724,0.08724 -0.261056,0.261486 -0.435547,0.49414 -0.465311,0.348984 -1.598781,0.959594 -4.128907,1.570313 0,0 -0.02973,0.290548 -0.08789,0.755859 0.1744912,0.232656 0.3784572,0.46635 0.5820312,0.669922 0.494393,0.494393 1.04553,0.901016 1.65625,1.25 0.11632,0.08724 0.262794,0.144954 0.408203,0.203125 0.668885,0.319903 1.396429,0.553594 2.181641,0.669922 0.174492,0.02908 0.348944,0.05859 0.523437,0.05859 l 0.05664,0 0.146484,0 c 0.05533,0 0.110688,0.0038 0.166016,0.0078 0.0829,0.09216 0.159929,0.192914 0.240234,0.28125 0.727048,0.727048 1.571548,1.36715 2.53125,1.890625 0.203574,0.11632 0.405803,0.203986 0.609375,0.320313 1.017867,0.494392 2.123834,0.843086 3.28711,1.017578 0.261737,0.02908 0.523634,0.08789 0.814453,0.08789 l 0.08789,0 0.203125,0 c 0.261737,0.02908 0.523635,0.0293 0.814454,0.0293 0.261737,0 0.552716,-2.17e-4 0.814453,-0.0293 l 0.203125,0 0.08789,0 c 0.290819,-0.02908 0.550762,-0.05881 0.8125,-0.08789 0.261737,-0.02908 0.496076,-0.08635 0.757813,-0.144531 0.05816,0 0.14497,-0.02951 0.203125,-0.05859 0.203574,-0.05816 0.435098,-0.115656 0.638672,-0.173828 0.232656,-0.05816 0.437267,-0.145169 0.669922,-0.232422 0.02908,0 0.08614,-0.02951 0.115234,-0.05859 0.523473,-0.203572 1.019279,-0.437482 1.513672,-0.699219 0.93062,-0.523475 1.773167,-1.161624 2.529297,-1.888672 0.08226,-0.08226 0.157917,-0.170251 0.236328,-0.255859 0.03776,-0.0039 0.07552,4.34e-4 0.113281,-0.0059 l 0.115234,0 0.05859,0 c 0.174492,-0.02908 0.378242,-0.02951 0.552734,-0.05859 0.174493,-0.02908 0.319649,-0.05881 0.494141,-0.08789 0.05816,0 0.08831,-0.0293 0.146485,-0.0293 0.145417,-0.02908 0.290136,-0.05707 0.435546,-0.115234 0.145417,-0.05816 0.290138,-0.08831 0.435547,-0.146484 0.02908,0 0.05881,-0.0293 0.08789,-0.0293 0.348983,-0.116321 0.66838,-0.290353 0.988281,-0.464844 0.61072,-0.348984 1.192894,-0.755607 1.658203,-1.25 0.203574,-0.203572 0.407541,-0.437266 0.582032,-0.669922 -0.05816,-0.436229 -0.08789,-0.726562 -0.08789,-0.726562 -2.530126,-0.61072 -3.663595,-1.22133 -4.128906,-1.570313 -0.174491,-0.232655 -0.350255,-0.436192 -0.4375,-0.523437 0.552556,-0.43623 0.930548,-1.105199 1.046875,-1.861328 0.174492,-0.08724 0.379766,-0.32051 0.496093,-0.611329 0.145417,-0.407147 0.08616,-0.813143 -0.146484,-0.90039 -0.0066,-0.0016 -0.01472,0.0013 -0.02148,0 0.0436,-0.632159 -0.13255,-1.394975 -0.996094,-2.007813 0,0 -1.861145,-2.35567 -4.478516,0.523438 l 0.84375,-0.435547 c 0,0 -1.098228,0.509663 -0.964843,1.917969 -0.0081,0.0029 -0.01758,-0.002 -0.02539,0.002 -0.232654,0.08724 -0.319031,0.464161 -0.144531,0.90039 0.116321,0.290819 0.290566,0.524084 0.49414,0.611329 0.116321,0.785212 0.5234,1.425098 1.046875,1.861328 -0.08724,0.08724 -0.261057,0.261486 -0.435547,0.49414 -0.387157,0.290369 -1.291371,0.763627 -3.023437,1.265625 -0.194273,-0.117388 -0.397183,-0.236546 -0.525391,-0.333984 -0.290819,-0.378066 -0.551642,-0.641485 -0.667968,-0.757813 0.814294,-0.639802 1.396037,-1.657036 1.599609,-2.820312 0.290819,-0.11632 0.55207,-0.464162 0.726562,-0.900391 0.232656,-0.639802 0.14565,-1.250858 -0.232421,-1.367187 -0.0025,-8.44e-4 -0.0053,-0.0012 -0.0078,-0.002 0.0817,-0.957652 -0.171925,-2.132641 -1.503906,-3.082032 0,0 -1.103713,-1.385648 -2.888672,-1.367187 z"
       id="path4473"
       inkscape:connector-curvature="0" />
    <path
       d="m 43.5,23.999308 c 0,10.7699 -8.73109,19.50069 -19.499753,19.50069 C 13.230598,43.499998 4.5,34.769109 4.5,23.999308 4.5,13.229906 13.230598,4.4999998 24.000247,4.4999998 34.76891,4.4999998 43.5,13.229906 43.5,23.999308 l 0,0 z"
       id="path8655-4"
       style="opacity:0.3;color:#000000;fill:none;stroke:url(#linearGradient3540);stroke-width:1;stroke-linecap:round;stroke-linejoin:round;stroke-miterlimit:4;stroke-opacity:1;stroke-dasharray:none;stroke-dashoffset:0;marker:none;visibility:visible;display:inline;overflow:visible;enable-background:accumulate" />
    <path
       d="M 24.000003,3.4999976 C 12.68881,3.4999976 3.5,12.688804 3.5,23.999998 3.5,35.311192 12.68881,44.500003 24.000003,44.5 35.311191,44.5 44.500011,35.311192 44.5,23.999998 44.5,12.688804 35.311191,3.4999976 24.000003,3.4999976 z"
       id="path2555-6-0"
       style="opacity:0.5;color:#000000;fill:#000000;fill-opacity:0;fill-rule:nonzero;stroke:#0e141f;stroke-width:1;stroke-linecap:round;stroke-linejoin:round;stroke-miterlimit:4;stroke-opacity:1;stroke-dasharray:none;stroke-dashoffset:0;marker:none;visibility:visible;display:inline;overflow:visible;enable-background:accumulate" />
    <path
       inkscape:connector-curvature="0"
       style="fill:#e6e9ee"
       d="m 38.466969,28.978629 c -2.530126,-0.61072 -3.66432,-1.221439 -4.129631,-1.570422 -0.174491,-0.232655 -0.348983,-0.436229 -0.436228,-0.523474 l 0,0 c 0.552556,-0.43623 0.93062,-1.105113 1.046947,-1.861243 0.174492,-0.08724 0.378066,-0.319901 0.494393,-0.61072 0.145417,-0.407147 0.08724,-0.814293 -0.1454,-0.90154 -0.116337,-0.02908 -0.261737,0 -0.378066,0.11632 -0.319901,-1.221439 -1.279603,-2.093896 -2.442881,-2.093896 -1.163275,0 -2.122978,0.872457 -2.442878,2.093896 -0.116321,-0.11632 -0.261738,-0.17449 -0.378066,-0.11632 -0.232654,0.08724 -0.319901,0.465311 -0.145401,0.90154 0.116321,0.290819 0.290819,0.523475 0.494393,0.61072 0.116321,0.785212 0.523473,1.425013 1.046948,1.861243 l 0,0 c -0.08724,0.08724 -0.261738,0.261737 -0.436228,0.494391 -0.465311,0.348984 -1.599505,0.959704 -4.129631,1.570423 0,0 -0.02908,0.290819 -0.08724,0.75613 0.17449,0.232656 0.378064,0.465311 0.581638,0.668883 0.494391,0.494393 1.046947,0.901539 1.657669,1.250523 0.11632,0.08724 0.261737,0.145401 0.407145,0.203572 0.668885,0.319903 1.395932,0.552557 2.181144,0.668885 0.174492,0.02908 0.348982,0.05816 0.523474,0.05816 0.02908,0 0.02908,0 0.05816,0 0.02908,0 0.08724,0 0.145417,0 0.174491,0 0.348983,0.02908 0.523473,0.02908 0.174492,0 0.348984,0 0.523475,-0.02908 0.05816,0 0.08724,0 0.11632,0 0.02908,0 0.02908,0 0.05816,0 0.174492,-0.02908 0.378064,-0.02908 0.552556,-0.05816 0.174492,-0.02908 0.319901,-0.05816 0.494393,-0.08724 0.05816,0 0.08724,-0.02908 0.145417,-0.02908 0.145417,-0.02908 0.290819,-0.05816 0.436229,-0.11632 0.145417,-0.05816 0.290819,-0.08724 0.436228,-0.145417 0.02908,0 0.05816,-0.02908 0.08724,-0.02908 0.348983,-0.116321 0.668883,-0.290819 0.988784,-0.46531 0.61072,-0.348984 1.19236,-0.75613 1.657669,-1.250523 0.203574,-0.203572 0.407147,-0.436227 0.581638,-0.668883 -0.05816,-0.436229 -0.08724,-0.727048 -0.08724,-0.727048 z"
       id="path5" />
    <path
       inkscape:connector-curvature="0"
       style="fill:#324a5e"
       d="m 30.120462,24.907163 c -1.308687,-2.501046 0.523474,-3.315339 0.523474,-3.315339 l -0.843375,0.436229 c 2.617371,-2.879108 4.478613,-0.523474 4.478613,-0.523474 1.803078,1.279604 0.639802,3.228092 0.639802,3.228092 0,0 -0.203572,-1.425015 -0.988784,-2.035735 0,0 -0.930622,0.959704 -3.082682,0.08724 0,0 -0.494393,0.697966 -0.319903,1.628587 0,0 -0.203572,-0.116337 -0.290819,-0.61072 0.02908,-0.02908 -0.232653,0.61072 -0.11632,1.105112 l 0,0 z"
       id="path7" />
    <path
       inkscape:connector-curvature="0"
       style="fill:#e6e9ee"
       d="m 22.064773,28.978629 c -2.530125,-0.61072 -3.635238,-1.221439 -4.129631,-1.570422 -0.17449,-0.232655 -0.348982,-0.436229 -0.436227,-0.523474 l 0,0 c 0.552556,-0.43623 0.93062,-1.105113 1.046947,-1.861243 0.174492,-0.08724 0.378066,-0.319901 0.494393,-0.61072 0.145417,-0.407147 0.08724,-0.814293 -0.145417,-0.90154 -0.11632,-0.02908 -0.261737,0 -0.378066,0.11632 -0.319901,-1.221439 -1.279603,-2.093896 -2.442879,-2.093896 -1.163277,0 -2.12298,0.872457 -2.44288,2.093896 -0.116337,-0.11632 -0.261738,-0.17449 -0.378066,-0.11632 -0.232654,0.08724 -0.319901,0.465311 -0.145417,0.90154 0.11632,0.290819 0.290819,0.523475 0.494393,0.61072 0.11632,0.785212 0.523474,1.425013 1.046947,1.861243 l 0,0 c -0.08724,0.08724 -0.261737,0.261737 -0.436228,0.494391 -0.465311,0.348984 -1.599505,0.959704 -4.129631,1.570423 0,0 -0.02908,0.290819 -0.08724,0.75613 0.1744909,0.232656 0.3780639,0.465311 0.5816379,0.668883 0.494393,0.494393 1.046949,0.901539 1.657669,1.250523 0.11632,0.08724 0.261737,0.145401 0.407146,0.203572 0.668885,0.319903 1.395931,0.552557 2.181143,0.668885 0.174492,0.02908 0.348982,0.05816 0.523475,0.05816 0.02908,0 0.02908,0 0.05816,0 0.02908,0 0.08724,0 0.145417,0 0.17449,0 0.348982,0.02908 0.523474,0.02908 0.174491,0 0.348983,0 0.523473,-0.02908 0.05816,0 0.08724,0 0.116337,0 0.02908,0 0.02908,0 0.05816,0 0.174492,-0.02908 0.378064,-0.02908 0.552556,-0.05816 0.174492,-0.02908 0.319901,-0.05816 0.494393,-0.08724 0.05816,0 0.08724,-0.02908 0.1454,-0.02908 0.145417,-0.02908 0.290819,-0.05816 0.43623,-0.11632 0.1454,-0.05816 0.290819,-0.08724 0.436227,-0.145417 0.02908,0 0.05816,-0.02908 0.08724,-0.02908 0.348982,-0.116321 0.668883,-0.290819 0.988783,-0.46531 0.610722,-0.348984 1.19236,-0.75613 1.657669,-1.250523 0.203574,-0.203572 0.407148,-0.436227 0.581638,-0.668883 -0.05816,-0.436229 -0.08724,-0.727048 -0.08724,-0.727048 z"
       id="path9" />
    <path
       inkscape:connector-curvature="0"
       style="fill:#324a5e"
       d="m 13.747348,24.907163 c -1.308686,-2.501046 0.523474,-3.344421 0.523474,-3.344421 l -0.843375,0.43623 c 2.617371,-2.87911 4.478614,-0.523475 4.478614,-0.523475 1.803079,1.279605 0.639801,3.228092 0.639801,3.228092 0,0 -0.203572,-1.425015 -0.988784,-2.035734 0,0 -0.93062,0.959704 -3.082682,0.08724 0,0 -0.494393,0.697967 -0.3199,1.628587 0,0 -0.203574,-0.11632 -0.290819,-0.61072 0,0 -0.261738,0.639802 -0.116321,1.134194 l 0,0 z"
       id="path11" />
    <path
       inkscape:connector-curvature="0"
       style="fill:#ffffff"
       d="M 33.290389,30.694461 C 29.48066,29.763841 27.79391,28.862302 27.066861,28.309746 26.776042,27.93168 26.514305,27.669944 26.397978,27.553616 l 0,0 c 0.814294,-0.639802 1.395932,-1.657669 1.599504,-2.820945 0.290819,-0.11632 0.552556,-0.465311 0.727048,-0.90154 0.232656,-0.639802 0.145417,-1.250521 -0.232655,-1.36685 -0.174491,-0.05816 -0.378065,0.02908 -0.581638,0.203574 -0.465312,-1.832159 -1.948488,-3.169927 -3.66432,-3.169927 -1.744914,0 -3.199011,1.337768 -3.66432,3.169927 -0.203574,-0.174491 -0.407148,-0.232656 -0.581638,-0.203574 -0.348984,0.11632 -0.465311,0.727048 -0.232656,1.36685 0.174491,0.436229 0.436228,0.75613 0.727047,0.90154 0.174492,1.163276 0.785212,2.181143 1.599505,2.820945 l 0,0 c -0.11632,0.116337 -0.378064,0.407147 -0.668883,0.75613 -0.697967,0.523474 -2.384717,1.454095 -6.223529,2.384715 0,0 -0.05816,0.436229 -0.11632,1.134194 0.261737,0.348985 0.581638,0.697967 0.872457,1.017868 0.727048,0.727048 1.570423,1.366849 2.530125,1.890324 0.203574,0.11632 0.407148,0.203574 0.61072,0.319901 1.017867,0.494392 2.12298,0.843375 3.286256,1.017867 0.261737,0.02908 0.523474,0.08724 0.814293,0.08724 0.02908,0 0.05816,0 0.08724,0 0.05816,0 0.145417,0 0.203574,0 0.261737,0.02908 0.523475,0.02908 0.814294,0.02908 0.261737,0 0.552556,0 0.814293,-0.02908 0.05816,0 0.145417,0 0.203574,0 0.02908,0 0.05816,0 0.08724,0 0.290819,-0.02908 0.552556,-0.05816 0.814294,-0.08724 0.261737,-0.02908 0.494393,-0.08724 0.75613,-0.145417 0.05816,0 0.145417,-0.02908 0.203572,-0.05816 0.203574,-0.05816 0.436229,-0.11632 0.639803,-0.174492 0.232656,-0.05816 0.436228,-0.145401 0.668883,-0.232654 0.02908,0 0.08724,-0.02908 0.116337,-0.05816 0.523473,-0.203572 1.017866,-0.436228 1.512259,-0.697965 0.93062,-0.523475 1.773995,-1.163276 2.530125,-1.890324 0.319901,-0.319901 0.61072,-0.668884 0.872457,-1.017868 -0.203572,-0.668883 -0.232655,-1.105112 -0.232655,-1.105112 z"
       id="path13" />
    <path
       inkscape:connector-curvature="0"
       style="fill:#324a5e"
       d="m 20.727005,24.529097 c -1.977569,-3.780648 0.785212,-5.031169 0.785212,-5.031169 l -1.279604,0.668883 c 3.926058,-4.333203 6.747003,-0.785212 6.747003,-0.785212 2.7337,1.948488 0.959702,4.856679 0.959702,4.856679 0,0 -0.3199,-2.122979 -1.483176,-3.082682 0,0 -1.395932,1.454095 -4.653106,0.116321 0,0 -0.75613,1.046949 -0.494393,2.44288 0,0 -0.3199,-0.203574 -0.407146,-0.930622 0,0.05816 -0.407147,0.988786 -0.174492,1.744914 l 0,0 z"
       id="path15" />
    <path
       style="fill:#000000;fill-opacity:1;opacity:0.15"
       d="M 24.246094 10.958984 C 22.210361 10.958984 20.552734 12.267681 20.552734 13.867188 C 20.552734 15.175873 21.628365 16.252795 23.140625 16.630859 L 24.246094 18.201172 L 25.380859 16.630859 C 26.864036 16.252795 27.939453 15.146791 27.939453 13.867188 C 27.939453 12.267682 26.281827 10.958984 24.246094 10.958984 z M 15.8125 15.466797 C 14.416569 15.466797 13.253906 16.367544 13.253906 17.472656 C 13.253906 18.374195 14.009477 19.130841 15.027344 19.392578 L 15.8125 20.46875 L 16.597656 19.392578 C 17.615524 19.130841 18.371094 18.374195 18.371094 17.472656 C 18.371094 16.367544 17.237513 15.466797 15.8125 15.466797 z M 32.417969 15.466797 C 31.022037 15.466797 29.859375 16.367544 29.859375 17.472656 C 29.859375 18.374195 30.614947 19.130841 31.632812 19.392578 L 32.417969 20.46875 L 33.203125 19.392578 C 34.250074 19.130841 34.976562 18.374195 34.976562 17.472656 C 34.976562 16.367544 33.842982 15.466797 32.417969 15.466797 z "
       id="path4489" />
    <path
       inkscape:connector-curvature="0"
       style="fill:#ffffff"
       d="m 27.939318,12.867253 c 0,-1.599506 -1.657668,-2.9081902 -3.693401,-2.9081902 -2.035733,0 -3.693402,1.3086842 -3.693402,2.9081902 0,1.308686 1.076029,2.384717 2.588289,2.762781 l 1.105113,1.570423 1.134194,-1.570423 c 1.483177,-0.378064 2.559207,-1.483177 2.559207,-2.762781 z"
       id="path17" />
    <g
       transform="matrix(0.07270476,0,0,0.07270476,5.7789066,5.2477938)"
       id="g19">
      <circle
         style="fill:#ff7058"
         cx="228"
         cy="103.6"
         r="8"
         id="circle21" />
      <circle
         style="fill:#ff7058"
         cx="254"
         cy="103.6"
         r="8"
         id="circle23" />
      <circle
         style="fill:#ff7058"
         cx="280"
         cy="103.6"
         r="8"
         id="circle25" />
    </g>
    <path
       inkscape:connector-curvature="0"
       style="fill:#ffffff"
       d="m 34.977139,16.473409 c 0,-1.105112 -1.134194,-2.006651 -2.559207,-2.006651 -1.395932,0 -2.559208,0.901539 -2.559208,2.006651 0,0.901539 0.75613,1.657669 1.773996,1.919406 l 0.785212,1.076031 0.785211,-1.076031 c 1.046949,-0.261737 1.773996,-1.017867 1.773996,-1.919406 z"
       id="path27" />
    <g
       transform="matrix(0.07270476,0,0,0.07270476,5.7789066,5.2477938)"
       id="g29">
      <circle
         style="fill:#4cdbc4"
         cx="348.79999"
         cy="153.60001"
         r="5.5999999"
         id="circle31" />
      <circle
         style="fill:#4cdbc4"
         cx="366.79999"
         cy="153.60001"
         r="5.5999999"
         id="circle33" />
      <circle
         style="fill:#4cdbc4"
         cx="384.79999"
         cy="153.60001"
         r="5.5999999"
         id="circle35" />
    </g>
    <path
       inkscape:connector-curvature="0"
       style="fill:#ffffff"
       d="m 18.371372,16.473409 c 0,-1.105112 -1.134195,-2.006651 -2.559208,-2.006651 -1.395931,0 -2.559209,0.901539 -2.559209,2.006651 0,0.901539 0.75613,1.657669 1.773997,1.919406 l 0.785212,1.076031 0.78521,-1.076031 c 1.017868,-0.261737 1.773998,-1.017867 1.773998,-1.919406 z"
       id="path37" />
    <g
       transform="matrix(0.07270476,0,0,0.07270476,5.7789066,5.2477938)"
       id="g39">
      <circle
         style="fill:#4cdbc4"
         cx="120"
         cy="153.60001"
         r="5.5999999"
         id="circle41" />
      <circle
         style="fill:#4cdbc4"
         cx="138"
         cy="153.60001"
         r="5.5999999"
         id="circle43" />
      <circle
         style="fill:#4cdbc4"
         cx="156"
         cy="153.60001"
         r="5.5999999"
         id="circle45" />
    </g>
  </g>
</svg>
