<?xml version="1.0" encoding="UTF-8" standalone="no"?>
<svg
   xmlns:dc="http://purl.org/dc/elements/1.1/"
   xmlns:cc="http://creativecommons.org/ns#"
   xmlns:rdf="http://www.w3.org/1999/02/22-rdf-syntax-ns#"
   xmlns:svg="http://www.w3.org/2000/svg"
   xmlns="http://www.w3.org/2000/svg"
   xmlns:xlink="http://www.w3.org/1999/xlink"
   xmlns:sodipodi="http://sodipodi.sourceforge.net/DTD/sodipodi-0.dtd"
   xmlns:inkscape="http://www.inkscape.org/namespaces/inkscape"
   id="svg3489"
   height="64"
   width="64"
   version="1.1"
   inkscape:version="0.91 r13725"
   sodipodi:docname="64.svg">
  <sodipodi:namedview
     pagecolor="#ffffff"
     bordercolor="#666666"
     borderopacity="1"
     objecttolerance="10"
     gridtolerance="10"
     guidetolerance="10"
     inkscape:pageopacity="0"
     inkscape:pageshadow="2"
     inkscape:window-width="1366"
     inkscape:window-height="705"
     id="namedview56"
     showgrid="true"
     inkscape:zoom="11.313708"
     inkscape:cx="35.237877"
     inkscape:cy="29.894214"
     inkscape:window-x="0"
     inkscape:window-y="30"
     inkscape:window-maximized="1"
     inkscape:current-layer="g4184">
    <inkscape:grid
       type="xygrid"
       id="grid4192"
       empspacing="4" />
    <inkscape:grid
       type="xygrid"
       id="grid4194"
       spacingx="0.5"
       spacingy="0.5"
       color="#ff3fff"
       opacity="0.1254902"
       empcolor="#3fffff"
       empopacity="0.1254902"
       empspacing="2" />
  </sodipodi:namedview>
  <defs
     id="defs3491">
    <linearGradient
       id="linearGradient4806">
      <stop
         offset="0"
         style="stop-color:#ffffff;stop-opacity:1"
         id="stop4808" />
      <stop
         offset="0.42447853"
         style="stop-color:#ffffff;stop-opacity:0.23529412"
         id="stop4810" />
      <stop
         offset="0.82089913"
         style="stop-color:#ffffff;stop-opacity:0.15686275"
         id="stop4812" />
      <stop
         offset="1"
         style="stop-color:#ffffff;stop-opacity:0.39215687"
         id="stop4814" />
    </linearGradient>
    <linearGradient
       gradientTransform="matrix(2.3268746,0,0,2.3268746,-135.94475,-32.842783)"
       gradientUnits="userSpaceOnUse"
       xlink:href="#linearGradient4806"
       id="linearGradient3293"
       y2="40.495617"
       x2="71.204407"
       y1="15.369057"
       x1="71.204407" />
    <linearGradient
       id="linearGradient23419">
      <stop
         offset="0"
         style="stop-color:#000000;stop-opacity:1"
         id="stop23421" />
      <stop
         offset="1"
         style="stop-color:#000000;stop-opacity:0"
         id="stop23423" />
    </linearGradient>
    <linearGradient
       id="linearGradient8838">
      <stop
         offset="0"
         style="stop-color:#000000;stop-opacity:1"
         id="stop8840" />
      <stop
         offset="1"
         style="stop-color:#000000;stop-opacity:0"
         id="stop8842" />
    </linearGradient>
    <linearGradient
       id="linearGradient2867-449-88-871-390-598-476-591-434-148-57-177-3-8-8-9">
      <stop
         offset="0"
         style="stop-color:#64baff;stop-opacity:1"
         id="stop3750-8-9-0" />
      <stop
         offset="0.26238"
         style="stop-color:#3689e6;stop-opacity:1"
         id="stop3752-3-2-2" />
      <stop
         offset="0.704952"
         style="stop-color:#0d52bf;stop-opacity:1"
         id="stop3754-7-2-2" />
      <stop
         offset="1"
         style="stop-color:#0d52bf;stop-opacity:1"
         id="stop3756-9-3-05" />
    </linearGradient>
    <linearGradient
       id="linearGradient3104-8-8-97-4-6-2-0-1-4-0-5-8-3-9-1">
      <stop
         offset="0"
         style="stop-color:#000000;stop-opacity:0.32173914"
         id="stop3106-5-4-3-5-0-1-61-9-2-7-3-3-2-6-9" />
      <stop
         offset="1"
         style="stop-color:#000000;stop-opacity:0.27826086"
         id="stop3108-4-3-7-8-2-4-01-9-9-0-6-4-3-7-7" />
    </linearGradient>
    <linearGradient
       id="linearGradient4632-92-3-0-8-1-6-6">
      <stop
         offset="0"
         style="stop-color:#fafafa;stop-opacity:1"
         id="stop4634-68-8-0-2-9-1-1" />
      <stop
         offset="1"
         style="stop-color:#e1e1e1;stop-opacity:1"
         id="stop4636-8-21-7-1-4-9-4" />
    </linearGradient>
    <linearGradient
       id="linearGradient4011-7-0">
      <stop
         offset="0"
         style="stop-color:#ffffff;stop-opacity:1"
         id="stop4013-4" />
      <stop
         offset="0.507761"
         style="stop-color:#ffffff;stop-opacity:0.23529412"
         id="stop4015-61" />
      <stop
         offset="0.83456558"
         style="stop-color:#ffffff;stop-opacity:0.15686275"
         id="stop4017-2" />
      <stop
         offset="1"
         style="stop-color:#ffffff;stop-opacity:0.39215687"
         id="stop4019-2" />
    </linearGradient>
    <linearGradient
       gradientTransform="matrix(0.72972969,0,0,0.72972969,-4.3460816,29.49607)"
       gradientUnits="userSpaceOnUse"
       xlink:href="#linearGradient4011-7-0"
       id="linearGradient3306"
       y2="42.883553"
       x2="71.204407"
       y1="7.8309216"
       x1="71.204407" />
    <linearGradient
       gradientTransform="matrix(1.1151168,0,0,1.1513607,154.34934,-4.9719397)"
       gradientUnits="userSpaceOnUse"
       xlink:href="#linearGradient3104-8-8-97-4-6-2-0-1-4-0-5-8-3-9-1"
       id="linearGradient3315"
       y2="5.1757793"
       x2="-95.837799"
       y1="54.199703"
       x1="-95.837799" />
    <radialGradient
       gradientTransform="matrix(0,7.1951254,-7.6115838,-1.9584024e-7,96.316284,-28.423918)"
       gradientUnits="userSpaceOnUse"
       xlink:href="#linearGradient2867-449-88-871-390-598-476-591-434-148-57-177-3-8-8-9"
       id="radialGradient3328"
       fy="8.4497671"
       fx="1.1978998"
       r="19.99999"
       cy="8.4497671"
       cx="1.1978998" />
    <radialGradient
       gradientTransform="matrix(1.3176471,0,0,0.37647,-34.517651,58.258824)"
       gradientUnits="userSpaceOnUse"
       xlink:href="#linearGradient8838"
       id="radialGradient3384"
       fy="4.625"
       fx="62.625"
       r="10.625"
       cy="4.625"
       cx="62.625" />
    <radialGradient
       gradientTransform="matrix(0,1.7065212,-1.8052958,-4.6448879e-8,63.254408,23.291389)"
       gradientUnits="userSpaceOnUse"
       xlink:href="#linearGradient4632-92-3-0-8-1-6-6"
       id="radialGradient3399"
       fy="8.4497671"
       fx="6.2751122"
       r="19.99999"
       cy="8.4497671"
       cx="6.2751122" />
    <radialGradient
       r="62.769119"
       fy="185.29727"
       fx="99.189415"
       cy="185.29727"
       cx="99.189415"
       gradientTransform="matrix(0.3823536,7.5555777e-8,-1.8372241e-8,0.1115198,-5.9254271,36.335849)"
       gradientUnits="userSpaceOnUse"
       id="radialGradient3300-9"
       xlink:href="#linearGradient23419" />
    <radialGradient
       r="62.769119"
       fy="185.29727"
       fx="99.189415"
       cy="185.29727"
       cx="99.189415"
       gradientTransform="matrix(0.2549024,5.3967361e-8,-1.2248161e-8,0.07965545,6.7163816,44.240666)"
       gradientUnits="userSpaceOnUse"
       id="radialGradient4192"
       xlink:href="#linearGradient23419" />
  </defs>
  <metadata
     id="metadata3494">
    <rdf:RDF>
      <cc:Work
         rdf:about="">
        <dc:format>image/svg+xml</dc:format>
        <dc:type
           rdf:resource="http://purl.org/dc/dcmitype/StillImage" />
        <dc:title />
      </cc:Work>
    </rdf:RDF>
  </metadata>
  <g
     id="g4184">
    <g
       transform="translate(1.55e-6,-0.00183192)"
       id="g4198">
      <path
         d="m 55.999998,57.0017 a 24,6.9985714 0 1 1 -47.9999991,0 24,6.9985714 0 1 1 47.9999991,0 z"
         id="path3818-0"
         style="opacity:0.2;fill:url(#radialGradient3300-9);fill-opacity:1;stroke:none" />
      <path
         style="opacity:0.4;fill:url(#radialGradient4192);fill-opacity:1;stroke:none"
         id="path4190"
         d="m 47.999998,59.0017 a 16,4.9988822 0 1 1 -31.999999,0 16,4.9988822 0 1 1 31.999999,0 z" />
    </g>
    <path
       d="m 32.000008,2.4999964 c -16.277082,0 -29.5000035,13.2229156 -29.5000035,29.4999996 0,16.277084 13.2229215,29.500007 29.5000035,29.500003 16.277076,0 29.500012,-13.222919 29.499996,-29.500003 0,-16.277084 -13.22292,-29.4999996 -29.499996,-29.4999996 z"
       id="path2555-9"
       style="color:#000000;fill:url(#radialGradient3328);fill-opacity:1;fill-rule:nonzero;stroke:none;stroke-width:1;marker:none;visibility:visible;display:inline;overflow:visible;enable-background:accumulate" />
    <path
       d="m 60.50001,31.999999 c 0,15.740115 -12.7599,28.499999 -28.50002,28.499999 -15.740099,0 -28.499991,-12.759884 -28.499991,-28.499999 0,-15.740116 12.759892,-28.5000013 28.499991,-28.5000013 15.74012,0 28.50002,12.7598853 28.50002,28.5000013 z"
       id="path3019"
       style="opacity:0.3;color:#000000;fill:none;stroke:url(#linearGradient3293);stroke-width:1;stroke-linecap:round;stroke-linejoin:round;stroke-miterlimit:4;stroke-opacity:1;stroke-dasharray:none;stroke-dashoffset:0;marker:none;visibility:visible;display:inline;overflow:visible;enable-background:accumulate" />
    <path
       d="m 32,2.499999 c -16.277082,0 -29.5,13.222915 -29.5,29.499998 0,16.277083 13.222918,29.500005 29.5,29.5 16.27708,0 29.50001,-13.222917 29.5,-29.5 C 61.5,15.722914 48.27708,2.499999 32,2.499999 z"
       id="path2555-7-1"
       style="opacity:0.5;color:#000000;fill:none;fill-opacity:0;fill-rule:nonzero;stroke:#0e141f;stroke-width:1;stroke-linecap:round;stroke-linejoin:round;stroke-miterlimit:4;stroke-opacity:1;stroke-dasharray:none;stroke-dashoffset:0;marker:none;visibility:visible;display:inline;overflow:visible;enable-background:accumulate" />
    <g
       style="opacity:0.15;fill:#000000;fill-opacity:1;stroke:none;stroke-opacity:1"
       id="g4192"
       transform="matrix(0.58276882,0,0,0.58276882,-5.4201303,-7.038491)">
      <path
         inkscape:connector-curvature="0"
         id="path4194"
         d="m 67.485968,38.020363 c -4.026059,-0.123553 -8.39142,1.070326 -13.663367,3.37679 5.588289,0 8.436615,-0.526851 13.392306,4.428878 2.530532,2.530543 2.213728,6.327018 -0.211337,8.752088 l -0.01838,0.05054 -32.398811,36.262591 c -1.265266,1.265273 -1.366314,3.374619 -0.101074,4.534548 l 1.474761,1.479355 c 1.265263,1.265273 3.26928,1.159581 4.534548,-0.105668 l 32.504477,-36.37745 c 0.821158,0.612305 1.758031,0.941893 2.862232,1.111816 2.003309,0.210822 2.424336,-0.313856 3.900537,1.162349 0.421757,0.421757 0.421757,1.158671 0,1.58043 -0.421754,0.421754 -0.421754,1.053009 0,1.474761 l 3.477865,3.588128 c 0.843512,0.843513 2.11061,0.843513 2.954117,0 l 7.48407,-7.488665 c 0.843507,-0.843511 0.843507,-2.106009 0,-2.949522 L 89.98871,55.207538 c -0.421747,-0.421755 -1.053002,-0.421755 -1.474761,0 -0.421757,0.421759 -1.053002,0.421759 -1.474761,0 -1.37073,-1.476213 -0.846083,-1.897219 -1.16235,-3.90054 -0.210935,-1.265263 -0.842808,-2.528875 -1.791767,-3.477862 l -3.794864,-3.79487 C 78.18143,41.92547 77.123639,40.870857 74.487641,39.711055 72.194323,38.64345 69.901603,38.094494 67.485968,38.020363 Z"
         style="opacity:1;fill:#000000;fill-opacity:1;stroke:none;stroke-opacity:1" />
    </g>
    <g
       transform="matrix(0.58276882,0,0,0.58276882,-5.4201303,-7.038491)"
       id="g4196"
       style="opacity:0.07;fill:none;fill-opacity:1;stroke:#000000;stroke-opacity:1;stroke-width:1.7159463;stroke-miterlimit:4;stroke-dasharray:none">
      <path
         style="opacity:1;fill:none;fill-opacity:1;stroke:#000000;stroke-opacity:1;stroke-width:1.7159463;stroke-miterlimit:4;stroke-dasharray:none"
         d="m 67.485968,38.020363 c -4.026059,-0.123553 -8.39142,1.070326 -13.663367,3.37679 5.588289,0 8.436615,-0.526851 13.392306,4.428878 2.530532,2.530543 2.213728,6.327018 -0.211337,8.752088 l -0.01838,0.05054 -32.398811,36.262591 c -1.265266,1.265273 -1.366314,3.374619 -0.101074,4.534548 l 1.474761,1.479355 c 1.265263,1.265273 3.26928,1.159581 4.534548,-0.105668 l 32.504477,-36.37745 c 0.821158,0.612305 1.758031,0.941893 2.862232,1.111816 2.003309,0.210822 2.424336,-0.313856 3.900537,1.162349 0.421757,0.421757 0.421757,1.158671 0,1.58043 -0.421754,0.421754 -0.421754,1.053009 0,1.474761 l 3.477865,3.588128 c 0.843512,0.843513 2.11061,0.843513 2.954117,0 l 7.48407,-7.488665 c 0.843507,-0.843511 0.843507,-2.106009 0,-2.949522 L 89.98871,55.207538 c -0.421747,-0.421755 -1.053002,-0.421755 -1.474761,0 -0.421757,0.421759 -1.053002,0.421759 -1.474761,0 -1.37073,-1.476213 -0.846083,-1.897219 -1.16235,-3.90054 -0.210935,-1.265263 -0.842808,-2.528875 -1.791767,-3.477862 l -3.794864,-3.79487 C 78.18143,41.92547 77.123639,40.870857 74.487641,39.711055 72.194323,38.64345 69.901603,38.094494 67.485968,38.020363 Z"
         id="path4198"
         inkscape:connector-curvature="0" />
    </g>
    <g
       transform="matrix(0.58276882,0,0,0.58276882,-5.4201303,-8.0386771)"
       id="g3375"
       style="fill:#ffffff;fill-opacity:1;stroke:none;stroke-opacity:1">
      <path
         style="opacity:1;fill:#ffffff;fill-opacity:1;stroke:none;stroke-opacity:1"
         d="m 67.485968,38.020363 c -4.026059,-0.123553 -8.39142,1.070326 -13.663367,3.37679 5.588289,0 8.436615,-0.526851 13.392306,4.428878 2.530532,2.530543 2.213728,6.327018 -0.211337,8.752088 l -0.01838,0.05054 -32.398811,36.262591 c -1.265266,1.265273 -1.366314,3.374619 -0.101074,4.534548 l 1.474761,1.479355 c 1.265263,1.265273 3.26928,1.159581 4.534548,-0.105668 l 32.504477,-36.37745 c 0.821158,0.612305 1.758031,0.941893 2.862232,1.111816 2.003309,0.210822 2.424336,-0.313856 3.900537,1.162349 0.421757,0.421757 0.421757,1.158671 0,1.58043 -0.421754,0.421754 -0.421754,1.053009 0,1.474761 l 3.477865,3.588128 c 0.843512,0.843513 2.11061,0.843513 2.954117,0 l 7.48407,-7.488665 c 0.843507,-0.843511 0.843507,-2.106009 0,-2.949522 L 89.98871,55.207538 c -0.421747,-0.421755 -1.053002,-0.421755 -1.474761,0 -0.421757,0.421759 -1.053002,0.421759 -1.474761,0 -1.37073,-1.476213 -0.846083,-1.897219 -1.16235,-3.90054 -0.210935,-1.265263 -0.842808,-2.528875 -1.791767,-3.477862 l -3.794864,-3.79487 C 78.18143,41.92547 77.123639,40.870857 74.487641,39.711055 72.194323,38.64345 69.901603,38.094494 67.485968,38.020363 Z"
         id="path15"
         inkscape:connector-curvature="0" />
    </g>
  </g>
</svg>
